<svg xmlns="http://www.w3.org/2000/svg" viewBox="0 0 1442 984.6"><defs><style>.cls-1{fill:#ec9d93;}.cls-1,.cls-2,.cls-3,.cls-4{stroke:#000;}.cls-1,.cls-10,.cls-11,.cls-12,.cls-13,.cls-2,.cls-3,.cls-4,.cls-5,.cls-6,.cls-8,.cls-9{stroke-miterlimit:10;}.cls-2{fill:#6395ce;}.cls-3{fill:#fff;}.cls-4{fill:#f3d344;}.cls-10,.cls-11,.cls-12,.cls-13,.cls-14,.cls-5,.cls-6,.cls-8,.cls-9{fill:none;}.cls-10,.cls-11,.cls-12,.cls-13,.cls-5,.cls-6,.cls-8,.cls-9{stroke:#231815;}.cls-6{stroke-dasharray:8.51 8.51;}.cls-7{fill:#231815;}.cls-8{stroke-dasharray:5.09 5.09;}.cls-9{stroke-dasharray:8.9 8.9;}.cls-10{stroke-dasharray:7.75 7.75;}.cls-11{stroke-dasharray:5.09 5.09;}.cls-12{stroke-dasharray:7.69 7.69;}.cls-13{stroke-dasharray:8.23 8.23;}</style></defs><g id="圖層_2" data-name="圖層 2"><g id="content"><polygon class="cls-1" points="535.96 671.53 535.96 624.52 474.88 659.78 474.88 706.79 535.96 671.53"/><polygon class="cls-1" points="445.82 772.69 621.71 671.14 418.13 553.61 242.24 655.16 445.82 772.69"/><polygon class="cls-2" points="617.39 764.84 474.88 682.57 759.9 518.02 902.4 600.29 617.39 764.84"/><polygon class="cls-3" points="678.46 659.06 678.46 682.57 963.48 518.02 963.48 494.51 678.46 659.06"/><polygon class="cls-3" points="739.54 412.24 739.54 341.72 943.12 224.18 943.12 294.7 739.54 412.24"/><polygon class="cls-1" points="678.46 659.06 535.96 576.79 820.97 412.24 963.48 494.51 678.46 659.06"/><polygon class="cls-4" points="841.33 471 739.54 412.24 943.12 294.7 1044.91 353.47 841.33 471"/><polygon class="cls-1" points="841.33 400.48 841.33 612.27 922.76 659.06 922.76 447.5 841.33 400.48"/><polygon class="cls-4" points="620.44 465.13 559.37 500.39 600.08 523.89 661.16 488.63 620.44 465.13"/><polygon class="cls-4" points="600.08 523.89 600.08 570.91 661.16 535.65 661.16 488.63 600.08 523.89"/><polygon class="cls-4" points="579.73 394.61 518.65 429.87 559.37 453.37 620.44 418.11 579.73 394.61"/><polygon class="cls-4" points="559.37 453.37 559.37 500.39 620.44 465.13 620.44 418.11 559.37 453.37"/><polygon class="cls-4" points="539.01 324.09 477.94 359.35 518.65 382.85 579.73 347.59 539.01 324.09"/><polygon class="cls-4" points="518.65 382.85 518.65 429.87 579.73 394.61 579.73 347.59 518.65 382.85"/><polygon class="cls-2" points="800.61 306.46 861.69 341.72 861.69 435.74 800.61 400.48 800.61 306.46"/><polygon class="cls-4" points="800.61 682.57 882.05 635.55 882.05 541.52 800.61 588.54 800.61 682.57"/><polygon class="cls-4" points="800.61 588.54 719.18 541.52 719.18 635.55 800.61 683.02 800.61 588.54"/><polygon class="cls-2" points="678.46 541.52 800.61 471 902.4 529.77 780.25 600.29 678.46 541.52"/><polygon class="cls-3" points="861.69 576.79 861.69 600.29 820.97 623.8 820.97 600.29 861.69 576.79"/><polygon class="cls-3" points="780.25 365.22 800.61 353.47 841.33 376.98 820.97 388.73 780.25 365.22"/><polygon class="cls-3" points="678.46 565.03 678.46 518.02 739.54 553.28 739.54 600.29 678.46 565.03"/><polygon class="cls-1" points="963.48 36.13 963.48 130.15 902.4 94.89 902.4 0.87 963.48 36.13"/><polygon class="cls-3" points="902.4 24.37 841.33 59.63 902.4 94.89 963.48 59.63 902.4 24.37"/><polygon class="cls-4" points="882.05 224.18 963.48 177.17 963.48 59.63 882.05 106.65 882.05 224.18"/><line class="cls-5" x1="698.82" y1="318.21" x2="702.39" y2="316.15"/><line class="cls-6" x1="709.76" y1="311.9" x2="853.39" y2="228.97"/><line class="cls-5" x1="857.08" y1="226.84" x2="860.65" y2="224.78"/><path class="cls-7" d="M857.13,232.36a.5.5,0,0,1-.21-.68l3.53-6.78-7.64-.34a.5.5,0,0,1-.48-.52.51.51,0,0,1,.52-.48l8.43.37a.5.5,0,0,1,.42.73l-3.9,7.48a.48.48,0,0,1-.19.21A.51.51,0,0,1,857.13,232.36Z"/><polyline class="cls-5" points="719.18 376.98 698.82 388.73 698.82 412.24 718.14 423.39"/><path class="cls-7" d="M709.82,424.13a.5.5,0,0,1,.48-.52l7.64-.33-3.53-6.79a.49.49,0,0,1,.21-.67.51.51,0,0,1,.68.21l3.89,7.48a.48.48,0,0,1,0,.48.51.51,0,0,1-.41.25l-8.43.37a.5.5,0,0,1-.27-.07A.5.5,0,0,1,709.82,424.13Z"/><polyline class="cls-5" points="988.48 535.65 1008.84 523.89 1008.84 500.39 989.52 489.24"/><path class="cls-7" d="M997.84,488.5a.5.5,0,0,1-.48.52l-7.64.33,3.53,6.78a.5.5,0,0,1-.89.47l-3.89-7.48a.5.5,0,0,1,0-.49.48.48,0,0,1,.41-.24l8.43-.37a.49.49,0,0,1,.27.06A.53.53,0,0,1,997.84,488.5Z"/><line class="cls-5" x1="943.12" y1="630.39" x2="946.69" y2="632.45"/><line class="cls-8" x1="951.1" y1="635" x2="957.71" y2="638.81"/><polyline class="cls-5" points="959.91 640.09 963.48 642.15 963.48 646.27"/><line class="cls-9" x1="963.48" y1="655.16" x2="963.48" y2="704.1"/><polyline class="cls-5" points="963.48 708.55 963.48 712.67 959.91 714.73"/><line class="cls-8" x1="955.5" y1="717.27" x2="948.89" y2="721.09"/><polyline class="cls-5" points="946.69 722.36 943.12 724.42 939.55 722.36"/><line class="cls-10" x1="932.84" y1="718.48" x2="909.33" y2="704.91"/><polyline class="cls-5" points="905.97 702.97 902.4 700.91 902.4 696.79"/><line class="cls-11" x1="902.4" y1="691.7" x2="902.4" y2="684.07"/><polyline class="cls-5" points="902.4 681.53 902.4 677.41 898.84 679.47"/><line class="cls-12" x1="892.18" y1="683.31" x2="828.91" y2="719.84"/><line class="cls-5" x1="825.58" y1="721.76" x2="822.01" y2="723.82"/><path class="cls-7" d="M825.53,716.25a.49.49,0,0,1,.21.67l-3.53,6.79,7.64.33a.5.5,0,0,1,.48.52.51.51,0,0,1-.52.48l-8.43-.37a.5.5,0,0,1-.42-.73l3.9-7.48a.41.41,0,0,1,.19-.2A.46.46,0,0,1,825.53,716.25Z"/><polyline class="cls-5" points="575.9 724.42 597.03 712.67 597.03 689.16 617.39 677.41 617.39 653.9 637.75 642.15 637.75 618.64 657.06 607.49"/><path class="cls-7" d="M653.55,615.06a.5.5,0,0,1-.22-.67l3.54-6.79-7.65-.33a.5.5,0,0,1,0-1l8.42.37a.5.5,0,0,1,.42.25.54.54,0,0,1,0,.48l-3.9,7.48a.52.52,0,0,1-.19.2A.51.51,0,0,1,653.55,615.06Z"/><polygon class="cls-3" points="1298.49 586.6 1441 504.32 1155.98 339.78 1013.48 422.05 1298.49 586.6"/><polygon class="cls-4" points="1298.49 541.52 1298.49 471 1094.91 353.47 1094.91 423.99 1298.49 541.52"/><polygon class="cls-4" points="286.01 960.23 286.01 983.74 1 819.19 1 795.68 286.01 960.23"/><polygon class="cls-3" points="286.01 960.23 428.52 877.96 143.51 713.41 1 795.68 286.01 960.23"/><polygon class="cls-3" points="460.63 407.82 460.63 619.61 379.2 666.39 379.2 454.83 460.63 407.82"/><polygon class="cls-1" points="1010.63 270.07 1071.7 305.33 1030.99 328.84 969.91 293.58 1010.63 270.07"/><polygon class="cls-1" points="1030.99 328.84 1030.99 375.85 969.91 340.59 969.91 293.58 1030.99 328.84"/><polygon class="cls-1" points="1051.35 199.55 1112.42 234.81 1071.7 258.32 1010.63 223.06 1051.35 199.55"/><polygon class="cls-1" points="1071.7 258.32 1071.7 305.33 1010.63 270.07 1010.63 223.06 1071.7 258.32"/><polygon class="cls-1" points="1092.06 129.03 1153.14 164.29 1112.42 187.79 1051.35 152.53 1092.06 129.03"/><polygon class="cls-1" points="1112.42 187.79 1112.42 234.81 1051.35 199.55 1051.35 152.53 1112.42 187.79"/><polygon class="cls-2" points="227.45 789.81 288.52 825.07 247.8 848.57 186.73 813.31 227.45 789.81"/><polygon class="cls-2" points="268.16 719.28 329.24 754.55 288.52 778.05 227.45 742.79 268.16 719.28"/><polygon class="cls-2" points="288.52 778.05 288.52 825.07 227.45 789.81 227.45 742.79 288.52 778.05"/><polygon class="cls-2" points="308.88 648.76 369.95 684.02 329.24 707.53 268.16 672.27 308.88 648.76"/><polygon class="cls-2" points="329.24 707.53 329.24 754.55 268.16 719.28 268.16 672.27 329.24 707.53"/><polygon class="cls-2" points="1410.46 335.84 1288.31 265.32 1186.52 324.09 1308.67 394.61 1410.46 335.84"/><polygon class="cls-2" points="1196.7 151.01 1115.27 103.99 1115.27 9.96 1196.7 56.98 1196.7 151.01"/><polygon class="cls-2" points="1196.7 56.98 1278.13 9.96 1278.13 103.99 1196.7 151.46 1196.7 56.98"/><polygon class="cls-3" points="1135.63 45.23 1135.63 68.73 1176.34 92.24 1176.34 68.73 1135.63 45.23"/><polygon class="cls-1" points="539.01 230.06 477.94 265.32 477.94 359.35 539.01 324.09 539.01 230.06"/><polygon class="cls-3" points="559.37 288.83 539.01 277.07 498.29 300.58 518.65 312.33 559.37 288.83"/><polygon class="cls-2" points="1046.34 523.89 1046.34 617.92 1107.41 582.66 1107.41 488.63 1046.34 523.89"/><polygon class="cls-1" points="1107.41 512.14 1168.48 547.4 1107.41 582.66 1046.34 547.4 1107.41 512.14"/><polygon class="cls-3" points="1127.77 711.95 1046.34 664.94 1046.34 547.4 1127.77 594.42 1127.77 711.95"/><polyline class="cls-5" points="1255.84 298.24 1234.71 286.49 1234.71 262.98 1214.35 251.23 1214.35 227.72 1193.99 215.97 1193.99 192.46 1174.68 181.31"/><path class="cls-7" d="M1183,180.57a.5.5,0,0,1-.48.52l-7.64.33,3.53,6.79a.5.5,0,0,1-.21.67.51.51,0,0,1-.68-.21l-3.89-7.48a.48.48,0,0,1,0-.48.49.49,0,0,1,.41-.25l8.42-.37a.53.53,0,0,1,.28.07A.5.5,0,0,1,1183,180.57Z"/><path class="cls-5" d="M72,729.61c0-1.38,0-2.75,0-4.12"/><path class="cls-13" d="M72.29,717.26c6.91-136.12,117.4-244.9,254.21-249.11"/><path class="cls-5" d="M330.62,468.05c1.37,0,2.74,0,4.12,0"/><path class="cls-7" d="M77,722.9a.51.51,0,0,0-.7.13L72,729.38,68,722.83a.49.49,0,0,0-.69-.17.5.5,0,0,0-.17.68l4.35,7.23a.51.51,0,0,0,.42.24.47.47,0,0,0,.42-.22l4.71-7a.43.43,0,0,0,.09-.26A.5.5,0,0,0,77,722.9Z"/><path d="M122.45,28.44V21h9.7V18H123V12.2h-4.85V10.72H123V5.08h9.17V1h1.74V5.08h9v5.64h4.64V12.2H142.9V18h-9V21h9.75v7.49Zm-3.22,20.29-.52-1.68a32.55,32.55,0,0,0,8-1.27,20.1,20.1,0,0,0,5.9-2.84c-1.3-.5-2.67-1-4.11-1.45s-3-.94-4.64-1.4c.49-.63,1-1.35,1.53-2.16s1.06-1.65,1.58-2.53h-8.22V33.82h9.17a43.23,43.23,0,0,0,2.53-4.8l1.69.58c-.28.56-.63,1.21-1,1.95s-.82,1.49-1.24,2.27h17.77V35.4h-7.43a25.09,25.09,0,0,1-4.48,7c1.26.49,2.49,1,3.68,1.55s2.38,1.14,3.54,1.77l-1.11,1.53c-1.19-.71-2.41-1.35-3.64-1.93s-2.49-1.15-3.79-1.71a18.65,18.65,0,0,1-6.22,3.45A37.14,37.14,0,0,1,119.23,48.73Zm5-21.77h8V22.38h-8Zm.53-16.24h7.43v-4h-7.43Zm0,5.75h7.43V12.2h-7.43ZM134,41.77a19.11,19.11,0,0,0,4.37-6.37h-9.44c-.45.77-.89,1.49-1.31,2.16s-.79,1.25-1.11,1.74c1.33.38,2.63.78,3.87,1.18S132.84,41.32,134,41.77Zm-.11-31.05h7.27v-4h-7.27Zm0,5.75h7.27V12.2h-7.27Zm0,10.49H142V22.38h-8.07Zm10.75,21.51-1.26-1.42a34.25,34.25,0,0,0,6.54-5.22,33.25,33.25,0,0,0,4.74-6.22,41.22,41.22,0,0,1-3.11-8A51.51,51.51,0,0,1,150,18.79c-.49,1.3-1,2.57-1.64,3.8s-1.24,2.46-2,3.69l-1.63-.9a39.9,39.9,0,0,0,3.74-7.8A76.92,76.92,0,0,0,151,9.12q1-4.2,1.45-7.57l1.74.32q-.48,3-1.08,5.93t-1.45,5.72h15v1.84h-4.53a60.78,60.78,0,0,1-1.74,11.05,39.16,39.16,0,0,1-3.69,9.2,32.74,32.74,0,0,0,4.48,6.09,31.28,31.28,0,0,0,5.8,4.87l-1.37,1.69A40.39,40.39,0,0,1,160,43.15a37.8,37.8,0,0,1-4.32-5.8A39.42,39.42,0,0,1,144.64,48.47Zm11.08-14.76a36.56,36.56,0,0,0,3.21-8.83,57.88,57.88,0,0,0,1.32-9.52h-9A51.24,51.24,0,0,0,152.6,25,41.21,41.21,0,0,0,155.72,33.71Z"/><path d="M181.79,48.73V15.84q-1.95,2.89-4,5.51a41.27,41.27,0,0,1-4,4.45,6.7,6.7,0,0,0-.66-.66,5,5,0,0,0-.71-.55,28.76,28.76,0,0,0,3.45-3.69c1.22-1.51,2.43-3.16,3.64-4.93s2.35-3.59,3.43-5.43,2-3.6,2.79-5.27a28.23,28.23,0,0,0,1.71-4.4l1.9.68a52.9,52.9,0,0,1-2.42,5.51q-1.49,2.93-3.22,5.83V48.73Zm5.59-3.32v-1.9h16.93q1.51-3.69,3.05-8.17t2.77-9.12q1.25-4.63,1.92-8.7l2.06.48q-.59,3-1.45,6.3t-1.92,6.77c-.71,2.29-1.43,4.49-2.17,6.62s-1.45,4.07-2.16,5.82H221.6v1.9ZM189,14.47v-1.9h14.29v-11h1.9v11h14.44v1.9Zm9.86,24.35q-1.15-5.48-2.61-10.28a69.56,69.56,0,0,0-3.29-8.85l1.84-.64q1.8,4.27,3.32,9.2t2.59,10.1Z"/><path d="M262.76,48.73a77.28,77.28,0,0,1-9.14-.47,26.51,26.51,0,0,1-7.07-1.77,19.15,19.15,0,0,1-5.61-3.61c-.57.42-1.36,1-2.37,1.66s-2,1.39-3,2.11-1.8,1.33-2.4,1.82l-1.21-1.84,2.43-1.43c1.05-.63,2.13-1.3,3.24-2s2-1.3,2.61-1.79V25.75h-7.8V23.8h9.75v18A20.54,20.54,0,0,0,247.5,45a24.21,24.21,0,0,0,6.43,1.5,82.16,82.16,0,0,0,8.83.4q5.64,0,9.6-.19c2.63-.12,5.06-.25,7.27-.39l-.58,2.11Q275,48.74,262.76,48.73Zm-21-34a30.45,30.45,0,0,0-2.22-2.77c-.91-1-1.86-2-2.84-3a23.61,23.61,0,0,0-2.74-2.35l1.31-1.16a31.4,31.4,0,0,1,2.82,2.45c1,1,2,1.93,2.88,2.9s1.66,1.84,2.26,2.61Zm7.8,28.52a3.69,3.69,0,0,0-.26-.92c-.14-.34-.25-.61-.32-.82h2.48a6.72,6.72,0,0,0,2.4-.32,2,2,0,0,0,1.1-1.21,13.6,13.6,0,0,0,.61-2.53c.17-.95.34-2.28.5-4s.3-3.55.42-5.54.19-3.84.19-5.56h-5.06a36.16,36.16,0,0,1-2.09,11.47,26.32,26.32,0,0,1-4.77,8.35l-1.42-1.21A25.88,25.88,0,0,0,248,32.87a35.29,35.29,0,0,0,1.76-12.08V12.62h-5.8V10.83h7.43V3.08h1.9v7.75h7.12v1.79h-8.75v7.91h6.9q0,3.27-.18,6.59c-.12,2.21-.27,4.24-.45,6.06s-.35,3.31-.52,4.43a12.78,12.78,0,0,1-1,3.43,3.33,3.33,0,0,1-1.79,1.68,8.88,8.88,0,0,1-3.25.48ZM260,18.53l-1.53-1.11a22,22,0,0,0,3.06-4.11A35.29,35.29,0,0,0,264,8.17a29.71,29.71,0,0,0,1.53-5.09l1.74.42c-.24,1.06-.55,2.15-.92,3.3s-.8,2.27-1.29,3.4h13.39V12H264.19A36.52,36.52,0,0,1,260,18.53Zm3.64,24.93a5.23,5.23,0,0,0-.27-1c-.14-.39-.24-.69-.31-.9h3.42a2.37,2.37,0,0,0,1.64-.44,2,2,0,0,0,.47-1.45V30.76H261V28.91h7.54V24.22h1.16c.56-.49,1.25-1.17,2.06-2s1.49-1.61,2.05-2.24h-11V18.16h13.87l.63.63q-.84,1-2.13,2.37c-.86.92-1.72,1.79-2.56,2.64s-1.56,1.54-2.16,2.11v3h8.22v1.85h-8.22v8.91a3.86,3.86,0,0,1-.95,2.84,4.16,4.16,0,0,1-3.06,1Z"/><path d="M294,48.11l-1.74-.89a45.47,45.47,0,0,0,3.17-10.12,74.32,74.32,0,0,0,1.21-14.55V10h10V1h1.9V4.62H319V6.26H308.52V10h13.07v6.22h-1.9V11.58H307.57v3.64l7.64-.53.11,1.69-7.75.47v2.48a1.54,1.54,0,0,0,.37,1.24,3.28,3.28,0,0,0,1.74.29h4.48a8.06,8.06,0,0,0,2.13-.21,1.65,1.65,0,0,0,1.06-1,10.31,10.31,0,0,0,.6-2.29l1.74.95a8,8,0,0,1-1,2.82,2.65,2.65,0,0,1-1.6,1.11,13.15,13.15,0,0,1-2.75.23h-4.85c-1.68,0-2.74-.2-3.16-.6a3.39,3.39,0,0,1-.63-2.4V17l-7.17.48v5.06a78.89,78.89,0,0,1-1.21,14.73A47.41,47.41,0,0,1,294,48.11ZM298.5,15.8l7.17-.48V11.58H298.5Zm1.79,31.73L299.76,46l5.17-1c2.14-.4,4.31-.83,6.48-1.29.25-.6.54-1.43.87-2.48s.68-2.11,1-3.16l1.74.42a34.75,34.75,0,0,1-1.84,4.85l3.66-.79c1.14-.25,2.14-.49,3-.74v1.69c-1.2.31-2.65.66-4.35,1s-3.49.73-5.35,1.1l-5.38,1.06C303.05,47.05,301.56,47.32,300.29,47.53ZM299.92,27V25.39h20.56V27Zm2.22,10.17V29.61h15.65V37.2Zm4.37,6.7c-.31-.71-.7-1.5-1.16-2.38A21.91,21.91,0,0,0,304,39.2l1.64-.73q.57.95,1.29,2.37a22.13,22.13,0,0,1,1,2.32ZM304,35.67H315.9V31.19H304Zm14.08,12.71-1.21-1.69a38.05,38.05,0,0,0,7.67-5,41.15,41.15,0,0,0,6.14-6.46A72.26,72.26,0,0,1,329.15,28q-.66-4-1.08-8.7l-7.17.52L320.74,18l7.18-.58c-.18-2.42-.31-5-.4-7.75S327.39,4,327.39.93h1.79q0,4.59.16,8.67c.1,2.73.24,5.3.42,7.73l12-.95.16,1.84-12,.9a86,86,0,0,0,2.21,14.18,47.92,47.92,0,0,0,3.37-5.77,49.89,49.89,0,0,0,2.53-6l1.74.85a65.56,65.56,0,0,1-3.11,6.93,48.88,48.88,0,0,1-3.9,6.3,32.75,32.75,0,0,0,2.61,6.4,21.08,21.08,0,0,0,3.3,4.56,28.68,28.68,0,0,0,1.66-3.85,33.4,33.4,0,0,0,1.18-4.11l1.64.69c-.18.81-.43,1.75-.77,2.82s-.72,2.14-1.16,3.21a14.63,14.63,0,0,1-1.5,2.82c-.56.81-1.26.83-2.11.06a19.92,19.92,0,0,1-3.42-4.54,35.65,35.65,0,0,1-2.75-6.32,46.4,46.4,0,0,1-5.95,6.11A40.09,40.09,0,0,1,318.11,48.38Zm19.61-35.06a31.46,31.46,0,0,0-2.56-3.11,25.89,25.89,0,0,0-3.24-3l1.21-1.27a38.38,38.38,0,0,1,3.27,3,34.28,34.28,0,0,1,2.69,3Z"/><path d="M416.45,50.34a5.23,5.23,0,0,0-.27-1c-.14-.39-.24-.68-.31-.89h5.43a4.56,4.56,0,0,0,2.29-.53,3.48,3.48,0,0,0,1.35-2.37,20,20,0,0,0,.44-2.69c.13-1.13.23-2.29.32-3.48s.17-2.23.24-3.11h-12l1.21-9.65h10.75v-6H416c-1.16.7-2.33,1.38-3.53,2S410,23.9,408.8,24.46l-1.1-1.64a57.31,57.31,0,0,0,7.11-3.74,53.17,53.17,0,0,0,6.33-4.53,34,34,0,0,0-3.16-2.8c-1.13-.87-2.25-1.68-3.38-2.42L415.76,8q1.69,1.11,3.48,2.53t3.27,2.8a41.18,41.18,0,0,0,3.82-3.91,30.81,30.81,0,0,0,2.93-4H418V3.63H431.1l.9.74a34.09,34.09,0,0,1-5.54,7.7,50.93,50.93,0,0,1-7.64,6.64h9v9.81h-11l-.64,5.85H428c0,1.09-.11,2.35-.23,3.8s-.26,2.82-.4,4.16-.3,2.44-.47,3.32a6.59,6.59,0,0,1-1.66,3.72,6.11,6.11,0,0,1-3.93,1Zm13.23.16-.95-1.79a40.5,40.5,0,0,0,6.43-2.58,41,41,0,0,0,5.49-3.33,36.34,36.34,0,0,1-3.27-3.61A35,35,0,0,1,434.53,35h-3.95V33.26h19.77l.89.79a38.38,38.38,0,0,1-3.48,4.75,33.53,33.53,0,0,1-4.22,4.11,27.9,27.9,0,0,0,5.65,3.35,37.93,37.93,0,0,0,7,2.29l-.9,1.85A37.16,37.16,0,0,1,448,47.81a29.52,29.52,0,0,1-5.91-3.74,40.74,40.74,0,0,1-5.8,3.61A49.79,49.79,0,0,1,429.68,50.5Zm.53-18.34-1.27-1.64a9.32,9.32,0,0,0,4.25-3.32,9.42,9.42,0,0,0,1-4.69V18.77h11.13v8.06a1.18,1.18,0,0,0,.5,1.13,4.36,4.36,0,0,0,2,.29,12.77,12.77,0,0,0,3-.23A1.69,1.69,0,0,0,452,26.88a18,18,0,0,0,.63-2.79,4.14,4.14,0,0,0,.79.5l.85.4a9.47,9.47,0,0,1-.95,3.34,2.77,2.77,0,0,1-1.74,1.37,11.74,11.74,0,0,1-2.95.29h-1.16a5.72,5.72,0,0,1-3.09-.58,2.55,2.55,0,0,1-.82-2.21V20.51h-7.43v2A11.12,11.12,0,0,1,434.82,28,11.3,11.3,0,0,1,430.21,32.16Zm26.83-8a41.34,41.34,0,0,1-9.51-5.2,48.14,48.14,0,0,1-8-7.25,43,43,0,0,1-5.8-8.27l1.53-.74a40.1,40.1,0,0,0,5,7.17,36.35,36.35,0,0,0,3.53-3.06Q445.7,5,447.08,3.53l1.32,1.16a40,40,0,0,1-3.46,3.43q-1.81,1.58-3.56,3c.6.67,1.24,1.34,1.93,2s1.38,1.31,2.08,1.9c.74-.59,1.56-1.31,2.48-2.13s1.82-1.68,2.71-2.56,1.64-1.65,2.24-2.32l1.32,1.21a38.77,38.77,0,0,1-3.64,3.59q-2.06,1.78-3.79,3.27a44.86,44.86,0,0,0,5.51,3.69,31.55,31.55,0,0,0,5.93,2.63ZM442.12,41.7a29.88,29.88,0,0,0,6.12-6.7H436.48a36.64,36.64,0,0,0,2.61,3.59A27,27,0,0,0,442.12,41.7Z"/><path d="M134.84,85V80.54H118.65V78.75h16.19V74.06h1.9v4.69h10.43V74.06h1.9v4.69h16.24v1.79H149.07V85h-1.9V80.54H136.74V85Zm9.33,37-1-1.53a33.12,33.12,0,0,0,6-4.24,34.8,34.8,0,0,0,4.77-5.3,47.4,47.4,0,0,1-2.13-9c-.48-3.33-.81-6.9-1-10.73H132.1v7.64a68.89,68.89,0,0,1-.53,8.91,31.23,31.23,0,0,1-1.87,7.43,30,30,0,0,1-3.77,6.75l-1.58-1.1a24.71,24.71,0,0,0,4-7.49,36.75,36.75,0,0,0,1.61-8.12h-5.11a26,26,0,0,1-1.16,7,24.82,24.82,0,0,1-3.54,6.86l-1.53-1.06a22.64,22.64,0,0,0,3.3-6.22,24.41,24.41,0,0,0,1.19-6.59h-3.43v-1.9h10.38c.07-.73.11-1.47.11-2.21V97.63H122V87.08h1.74v8.65h6.43V89.3h20.45c0-.85-.05-1.71-.05-2.59V84.08h1.85v2.63c0,.88,0,1.74.05,2.59h12.44v1.79H152.55a96.63,96.63,0,0,0,.85,9.78,52.93,52.93,0,0,0,1.73,8.09,38.35,38.35,0,0,0,3.22-6.09A54.47,54.47,0,0,0,160.72,96l1.85.63a63.25,63.25,0,0,1-2.9,7.78,42.17,42.17,0,0,1-3.8,6.72,19.16,19.16,0,0,0,5.8,8.65c.35-.64.73-1.43,1.14-2.38s.79-1.92,1.16-2.92.65-1.87.86-2.61l1.64,1.11c-.25.77-.58,1.67-1,2.71s-.85,2-1.29,3-.84,1.79-1.19,2.43a1.39,1.39,0,0,1-1.05.74,1.86,1.86,0,0,1-1.27-.43,21.32,21.32,0,0,1-6.06-8.59,40.63,40.63,0,0,1-4.61,4.88A35.47,35.47,0,0,1,144.17,121.93Zm-8.59-6.38V95h13.23v1.58h-5.43v4.53h5.11V109h-5.11v5h5.69v1.58Zm1.63-14.45h4.54V96.57h-4.54Zm0,6.28h9.65v-4.69h-9.65Zm0,6.59h4.54v-5h-4.54Zm22.41-25.73c-.53-.53-1.2-1.11-2-1.77A25.28,25.28,0,0,0,155,84.66l1.05-1.32A19.55,19.55,0,0,1,158.69,85a18.59,18.59,0,0,1,2.14,1.82Z"/><path d="M176.29,119V100.18h16.92V119Zm1.89-1.9h13.13v-15H178.18Zm7.28-22.72V77h22.72V94.38Zm1.9-1.89h18.92V78.88H187.36ZM200.48,119V100.18h17.24V119Zm1.9-1.9h13.44v-15H202.38Z"/><path d="M237.34,117.08a9.25,9.25,0,0,1-6.32-2.27,11,11,0,0,1-3.48-5.69l1.74-.63a9.75,9.75,0,0,0,2.84,4.85,7.41,7.41,0,0,0,5.22,2q4.28,0,6.54-2.24a9.86,9.86,0,0,0,1-11.08,8.5,8.5,0,0,0-3.35-3,10.38,10.38,0,0,0-4.8-1.08h-1V96h1a8.58,8.58,0,0,0,6.17-2.16,7.56,7.56,0,0,0,2.27-5.74A7.21,7.21,0,0,0,244.09,84a6.71,6.71,0,0,0-2.9-2.4,9.37,9.37,0,0,0-3.85-.79,6.59,6.59,0,0,0-4.87,1.92,11.42,11.42,0,0,0-2.82,4.66l-1.74-.68a11.7,11.7,0,0,1,3.92-5.8,9.07,9.07,0,0,1,5.51-2,10.08,10.08,0,0,1,6.94,2.42A8.7,8.7,0,0,1,247,88.14a9.6,9.6,0,0,1-1.55,5.4,8.81,8.81,0,0,1-4.35,3.4,9.92,9.92,0,0,1,6.9,9.7,12.44,12.44,0,0,1-1.08,5.22,8.42,8.42,0,0,1-3.43,3.79A11.7,11.7,0,0,1,237.34,117.08Z"/><path d="M256.08,116.45V79.54h10.07a19.24,19.24,0,0,1,8.25,1.61,15.43,15.43,0,0,1,5.53,4.27,17.17,17.17,0,0,1,3.11,6,22.92,22.92,0,0,1,0,13.26,17.21,17.21,0,0,1-3.11,5.93,15.43,15.43,0,0,1-5.53,4.27,19.24,19.24,0,0,1-8.25,1.61Zm1.79-1.85h8.28a17.64,17.64,0,0,0,7.48-1.42,13.46,13.46,0,0,0,5-3.83,15.27,15.27,0,0,0,2.74-5.35,21.92,21.92,0,0,0,0-12,15.45,15.45,0,0,0-2.74-5.35,13.72,13.72,0,0,0-5-3.85,17.47,17.47,0,0,0-7.48-1.45h-8.28Z"/><path d="M295.84,121.8a5.76,5.76,0,0,0-.24-1c-.12-.37-.22-.66-.29-.87h4.43a2.28,2.28,0,0,0,1.58-.45,1.94,1.94,0,0,0,.47-1.45V102.34q-2.37.9-4.42,1.61l-2.85,1-.69-2c.81-.21,1.94-.55,3.4-1s3-1,4.56-1.56V86.79h-7.48v-1.9h7.48V74.14h1.9V84.89h6.12v1.9h-6.12V99.66l3.56-1.38q1.67-.63,2.61-1v1.9l-2.53,1.08c-1.13.47-2.34,1-3.64,1.45v16.39q0,3.75-3.95,3.75Zm29.26,0v-17.4h-8v13h-1.89V102.55h9.86v-5.9H312.76v6.43h-1.9V94.75h30.63v8.12h-1.9V96.65H327v5.9h10v11a3.94,3.94,0,0,1-.93,2.85,4.09,4.09,0,0,1-3,.95h-3a5.12,5.12,0,0,0-.27-1c-.14-.38-.24-.68-.31-.89H333a2.26,2.26,0,0,0,1.61-.45,2,2,0,0,0,.45-1.45v-9.07H327v17.4ZM313.71,91.06v-1.9h20.66V84.63h-20v-1.9h20V78.2H313.71V76.3h22.56V91.06Z"/><path d="M410.46,121.87l-1.31-1.42a27,27,0,0,0,4.93-4,26.47,26.47,0,0,0,3.82-5.12,32.17,32.17,0,0,1-3.24-4.48,37.81,37.81,0,0,1-2.77-5.59l1.74-.74a34.27,34.27,0,0,0,5.22,9,29.3,29.3,0,0,0,2.16-6.65,39.89,39.89,0,0,0,.73-7.9h-8.9V93.09a31,31,0,0,0,1.79-2.69c.7-1.16,1.43-2.42,2.19-3.79s1.46-2.69,2.13-4,1.2-2.32,1.58-3.16h-9.8v-1.9h11.91l.74.85c-.42.94-1,2.11-1.71,3.5s-1.5,2.81-2.32,4.27-1.6,2.8-2.32,4-1.29,2.17-1.72,2.8h8.33a52.53,52.53,0,0,1-.87,10.23,30.86,30.86,0,0,1-2.55,7.69,22,22,0,0,0,8.88,5.3,40.68,40.68,0,0,0,12.36,1.66q5.64,0,9.36-.1t5.88-.32l-.58,2c-1.13.07-2.83.13-5.12.16s-5.46,0-9.54,0a45.69,45.69,0,0,1-12.76-1.58,22.37,22.37,0,0,1-9.43-5.43,25.76,25.76,0,0,1-3.85,4.9A45.84,45.84,0,0,1,410.46,121.87Zm27.84-5.74v-5.69H424.8v-1.9h13.5v-5.38H426.7v-1.9h11.6V95.89H427.49V94H438.3V88.61H423.54v-1.9H438.3V81.34H427.7v-1.9h10.6V74.11h1.9v5.33h11v7.27h5v1.9h-5v7.28h-11v5.37h12.39v1.9H440.2v5.38h14.44v1.9H440.2v5.69Zm1.9-29.42h9.12V81.34H440.2Zm0,7.28h9.12V88.61H440.2Z"/><path d="M524.83,86.58v-1.9h20.45v1.9Zm2.53-7v-1.9h15.5v1.9Zm0,14.13V91.8h15.5v1.9Zm0,7.06v-1.9h15.5v1.9Zm.37,19.09v-14H543v14Zm1.9-1.9h11.49V107.72H529.63Zm28.31,3.27V93.49H546.39v-1.9h11.55V74.77h1.89V91.59h11v1.9h-11v27.73Z"/><rect x="580.88" y="119.34" width="47.08" height="1.74"/><path d="M588.52,104v12.08h32.21V104Zm15.18,5.06H597v1.59h6.69v3.79H590.31v-8.8H603.7ZM619,107.69v6.75H605.5v-3.79h6.8v-1.59h-6.8v-3.42H619Z"/><path d="M605.5,99.47V95.94h18.76V94.3H605.5V90.77h14.55V85.61h8.27V84h-8.27V78.8H605.5V74.9h-1.8v3.9H586.83v1.64H603.7V84H580.77v1.64H603.7v3.53H586.62v1.63H603.7V94.3H584.3v1.64h19.4v3.53h-23v1.63h47.76V99.47Zm0-19h12.81V84H605.5Zm0,5.17h12.81v3.53H605.5Z"/><path d="M485.65,101a29.1,29.1,0,0,1-2.5-2.63q-1.45-1.7-2.83-3.51t-2.16-3V87.05h6.65V85.32h-6.65V74.14h-1.89V85.32h-8.33v1.73h8.33v1c-.43,1.26-1,2.68-1.69,4.24s-1.5,3.16-2.4,4.8-1.83,3.2-2.79,4.72a37.24,37.24,0,0,1-2.88,4l1.64,1a60,60,0,0,0,4.37-6.72,58.73,58.73,0,0,0,3.75-7.77v29.52h1.89V94.44c.56.91,1.21,1.86,1.93,2.84s1.45,1.93,2.19,2.82a27.3,27.3,0,0,0,2,2.24Z"/><polygon points="492.77 85.53 494.66 85.53 494.66 81.68 502.68 81.68 502.68 85.53 504.57 85.53 504.57 81.68 514.33 81.68 514.33 79.78 504.57 79.78 504.57 74.35 502.68 74.35 502.68 79.78 494.66 79.78 494.66 74.35 492.77 74.35 492.77 79.78 483.86 79.78 483.86 81.68 492.77 81.68 492.77 85.53"/><path d="M515,106.72H499.62a25,25,0,0,0,.47-5.06h10.39V87.11h-23v14.55h10.7c0,.91-.08,1.79-.15,2.63a20,20,0,0,1-.37,2.43h-14.5v1.84h14.07a13.73,13.73,0,0,1-4.92,7.33,25,25,0,0,1-9.52,4.06l.79,1.79a32.54,32.54,0,0,0,9.73-4.35,14.81,14.81,0,0,0,5.61-7.72,21.26,21.26,0,0,0,5.8,7.41,23.73,23.73,0,0,0,9.23,4.56l.89-1.79a26.43,26.43,0,0,1-8.41-3.88,19,19,0,0,1-6.24-7.41H515ZM494.15,100h-4.81V88.79h19.24V100H494.15Z"/><rect x="494.15" y="93.38" width="9.62" height="1.69"/><path d="M378.69,4.85V21h15.55V46.55a1.9,1.9,0,0,1-.47,1.45,2.26,2.26,0,0,1-1.58.45h-4.43c.07.21.17.5.29.89a6.72,6.72,0,0,1,.24,1h3.85a4,4,0,0,0,3.05-1,3.9,3.9,0,0,0,.95-2.77V4.85Zm15.55,7h0v1.9h0v5.32H380.59V6.75h13.65Z"/><rect x="384" y="11.86" width="6.83" height="1.9"/><rect x="359.81" y="11.86" width="6.83" height="1.9"/><path d="M372,4.85H354.49V50.5h1.9V21H372Zm-1.9,7v7.21H356.39V6.75h13.66Z"/><path d="M389.76,34.26H381V27.15h6.48v-1.9H362.77v1.9h6.86v7.11h-9.07v1.9h9q-.79,9-9.49,12l1.16,1.37a17.53,17.53,0,0,0,7.22-5.06,14.66,14.66,0,0,0,3.06-8.33h7.59v13.5H381V36.16h8.8Zm-10.7,0h-7.54V27.15h7.54Z"/><path d="M353.68,121.82a4.66,4.66,0,0,0-.27-1c-.14-.37-.24-.66-.31-.87h4.43a2.28,2.28,0,0,0,1.58-.45,1.94,1.94,0,0,0,.47-1.45V102.21c-1.69.63-3.25,1.21-4.69,1.71l-2.9,1-.68-2c.8-.21,2-.57,3.5-1.08s3.12-1.06,4.77-1.66V87.45h-7.8v-1.9h7.8V74.17h1.9V85.55h6.8v1.9h-6.8v12c1.51-.56,2.9-1.1,4.16-1.61s2.18-.9,2.75-1.18v1.89c-.46.25-1.34.65-2.64,1.19s-2.72,1.12-4.27,1.71v16.61q0,3.73-4,3.74Z"/><polygon points="376.93 91.46 376.93 84.34 367.65 84.34 367.65 82.44 376.93 82.44 376.93 74.85 378.82 74.85 378.82 82.44 387.84 82.44 387.84 74.85 389.74 74.85 389.74 82.44 399.33 82.44 399.33 84.34 389.74 84.34 389.74 91.46 387.84 91.46 387.84 84.34 378.82 84.34 378.82 91.46 376.93 91.46"/><line class="cls-14" x1="372.55" y1="106.43" x2="372.55" y2="109.99"/><path d="M370.65,94.25V120.5H396V94.25Zm11.7,12.18h-4.41v1.9h4.41v10.28h-9.8V96.15h9.8Zm11.76,0v12.18h-9.86V108.33h4.47v-1.9h-4.47V96.15h9.86Z"/><rect x="468.41" y="47.2" width="44.7" height="1.54"/><path d="M490.73,26.5l1.19,1.2a41.38,41.38,0,0,0,9.39-10.54l.82-1.36v8.48a2.55,2.55,0,0,0,1.67,2.49,14,14,0,0,0,3.3.21c2.43,0,3.39-.25,3.77-.47a3.16,3.16,0,0,0,1.28-1.5,10.07,10.07,0,0,0,.5-3.64l-1.74-.53a10.38,10.38,0,0,1-.21,2.55,2.56,2.56,0,0,1-1,1.73,5.09,5.09,0,0,1-2.61.38,4.6,4.6,0,0,1-2.53-.45,1.64,1.64,0,0,1-.69-1.43V15.94h8.85V14.35h-10l.24-.6c.46-1.17,1.08-3.07,1.89-5.81l.1-.31h6.53V6H491.06V7.63h3.18l-1.86,8.31h7.78l-.41.67A35.4,35.4,0,0,1,490.73,26.5Zm3.82-12.15,1.51-6.72h7l-.11.53a31.2,31.2,0,0,1-2,5.93l-.12.26Z"/><path d="M474.51,30.44V43.2h32.66V30.44Zm30.84,5.43v5.74h-29V32h29Z"/><rect x="483.59" y="35.87" width="14.51" height="1.43"/><rect x="475.76" y="11.5" width="6.68" height="1.56"/><path d="M484,20.57l-1.45,1a15.76,15.76,0,0,1,1.29,1.74l.33.53-.6.14c-3.77.91-7.35,1.62-10.64,2.12l-.51.08V18.59h15.13V6.09H470.78V28.15l14.53-3,1.28,2.13,1.48-1A49.63,49.63,0,0,0,484,20.57Zm-11.58-6.94V7.73h13.37v9.2H472.42Z"/></g></g></svg>