<svg xmlns="http://www.w3.org/2000/svg" viewBox="0 0 1442 984.6"><defs><style>.cls-1{fill:#ed9e94;}.cls-1,.cls-2,.cls-3,.cls-4{stroke:#000;}.cls-1,.cls-10,.cls-11,.cls-12,.cls-13,.cls-2,.cls-3,.cls-4,.cls-5,.cls-6,.cls-8,.cls-9{stroke-miterlimit:10;}.cls-2{fill:#6396cf;}.cls-3{fill:#fff;}.cls-4{fill:#f4d444;}.cls-10,.cls-11,.cls-12,.cls-13,.cls-5,.cls-6,.cls-8,.cls-9{fill:none;stroke:#231815;}.cls-6{stroke-dasharray:8.51 8.51;}.cls-7{fill:#231815;}.cls-8{stroke-dasharray:5.09 5.09;}.cls-9{stroke-dasharray:8.9 8.9;}.cls-10{stroke-dasharray:7.75 7.75;}.cls-11{stroke-dasharray:5.09 5.09;}.cls-12{stroke-dasharray:7.69 7.69;}.cls-13{stroke-dasharray:8.23 8.23;}</style></defs><g id="圖層_2" data-name="圖層 2"><g id="TEXT"><polygon class="cls-1" points="535.96 671.53 535.96 624.52 474.88 659.78 474.88 706.79 535.96 671.53"/><polygon class="cls-1" points="445.82 772.69 621.71 671.14 418.13 553.61 242.24 655.16 445.82 772.69"/><polygon class="cls-2" points="617.39 764.84 474.88 682.57 759.9 518.02 902.4 600.29 617.39 764.84"/><polygon class="cls-3" points="678.46 659.06 678.46 682.57 963.48 518.02 963.48 494.51 678.46 659.06"/><polygon class="cls-3" points="739.54 412.24 739.54 341.72 943.12 224.18 943.12 294.7 739.54 412.24"/><polygon class="cls-1" points="678.46 659.06 535.96 576.79 820.97 412.24 963.48 494.51 678.46 659.06"/><polygon class="cls-4" points="841.33 471 739.54 412.24 943.12 294.7 1044.91 353.47 841.33 471"/><polygon class="cls-1" points="841.33 400.48 841.33 612.27 922.76 659.06 922.76 447.5 841.33 400.48"/><polygon class="cls-4" points="620.44 465.13 559.37 500.39 600.08 523.89 661.16 488.63 620.44 465.13"/><polygon class="cls-4" points="600.08 523.89 600.08 570.91 661.16 535.65 661.16 488.63 600.08 523.89"/><polygon class="cls-4" points="579.73 394.61 518.65 429.87 559.37 453.37 620.44 418.11 579.73 394.61"/><polygon class="cls-4" points="559.37 453.37 559.37 500.39 620.44 465.13 620.44 418.11 559.37 453.37"/><polygon class="cls-4" points="539.01 324.09 477.94 359.35 518.65 382.85 579.73 347.59 539.01 324.09"/><polygon class="cls-4" points="518.65 382.85 518.65 429.87 579.73 394.61 579.73 347.59 518.65 382.85"/><polygon class="cls-2" points="800.61 306.46 861.69 341.72 861.69 435.74 800.61 400.48 800.61 306.46"/><polygon class="cls-4" points="800.61 682.57 882.05 635.55 882.05 541.52 800.61 588.54 800.61 682.57"/><polygon class="cls-4" points="800.61 588.54 719.18 541.52 719.18 635.55 800.61 683.02 800.61 588.54"/><polygon class="cls-2" points="678.46 541.52 800.61 471 902.4 529.77 780.25 600.29 678.46 541.52"/><polygon class="cls-3" points="861.69 576.79 861.69 600.29 820.97 623.8 820.97 600.29 861.69 576.79"/><polygon class="cls-3" points="780.25 365.22 800.61 353.47 841.33 376.98 820.97 388.73 780.25 365.22"/><polygon class="cls-3" points="678.46 565.03 678.46 518.02 739.54 553.28 739.54 600.29 678.46 565.03"/><polygon class="cls-1" points="963.48 36.13 963.48 130.15 902.4 94.89 902.4 0.87 963.48 36.13"/><polygon class="cls-3" points="902.4 24.37 841.33 59.63 902.4 94.89 963.48 59.63 902.4 24.37"/><polygon class="cls-4" points="882.05 224.18 963.48 177.17 963.48 59.63 882.05 106.65 882.05 224.18"/><line class="cls-5" x1="698.82" y1="318.21" x2="702.39" y2="316.15"/><line class="cls-6" x1="709.76" y1="311.9" x2="853.39" y2="228.97"/><line class="cls-5" x1="857.08" y1="226.84" x2="860.65" y2="224.78"/><path class="cls-7" d="M857.13,232.36a.5.5,0,0,1-.21-.68l3.53-6.78-7.64-.34a.5.5,0,0,1-.48-.52.51.51,0,0,1,.52-.48l8.43.37a.5.5,0,0,1,.42.73l-3.9,7.48a.48.48,0,0,1-.19.21A.51.51,0,0,1,857.13,232.36Z"/><polyline class="cls-5" points="719.18 376.98 698.82 388.73 698.82 412.24 718.14 423.39"/><path class="cls-7" d="M709.82,424.13a.5.5,0,0,1,.48-.52l7.64-.33-3.53-6.79a.49.49,0,0,1,.21-.67.51.51,0,0,1,.68.21l3.89,7.48a.48.48,0,0,1,0,.48.51.51,0,0,1-.41.25l-8.43.37a.5.5,0,0,1-.27-.07A.5.5,0,0,1,709.82,424.13Z"/><polyline class="cls-5" points="988.48 535.65 1008.84 523.89 1008.84 500.39 989.52 489.24"/><path class="cls-7" d="M997.84,488.5a.5.5,0,0,1-.48.52l-7.64.33,3.53,6.78a.5.5,0,0,1-.89.47l-3.89-7.48a.5.5,0,0,1,0-.49.48.48,0,0,1,.41-.24l8.43-.37a.49.49,0,0,1,.27.06A.53.53,0,0,1,997.84,488.5Z"/><line class="cls-5" x1="943.12" y1="630.39" x2="946.69" y2="632.45"/><line class="cls-8" x1="951.1" y1="635" x2="957.71" y2="638.81"/><polyline class="cls-5" points="959.91 640.09 963.48 642.15 963.48 646.27"/><line class="cls-9" x1="963.48" y1="655.16" x2="963.48" y2="704.1"/><polyline class="cls-5" points="963.48 708.55 963.48 712.67 959.91 714.73"/><line class="cls-8" x1="955.5" y1="717.27" x2="948.89" y2="721.09"/><polyline class="cls-5" points="946.69 722.36 943.12 724.42 939.55 722.36"/><line class="cls-10" x1="932.84" y1="718.48" x2="909.33" y2="704.91"/><polyline class="cls-5" points="905.97 702.97 902.4 700.91 902.4 696.79"/><line class="cls-11" x1="902.4" y1="691.7" x2="902.4" y2="684.07"/><polyline class="cls-5" points="902.4 681.53 902.4 677.41 898.84 679.47"/><line class="cls-12" x1="892.18" y1="683.31" x2="828.91" y2="719.84"/><line class="cls-5" x1="825.58" y1="721.76" x2="822.01" y2="723.82"/><path class="cls-7" d="M825.53,716.25a.49.49,0,0,1,.21.67l-3.53,6.79,7.64.33a.5.5,0,0,1,.48.52.51.51,0,0,1-.52.48l-8.43-.37a.5.5,0,0,1-.42-.73l3.9-7.48a.41.41,0,0,1,.19-.2A.46.46,0,0,1,825.53,716.25Z"/><polyline class="cls-5" points="575.9 724.42 597.03 712.67 597.03 689.16 617.39 677.41 617.39 653.9 637.75 642.15 637.75 618.64 657.06 607.49"/><path class="cls-7" d="M653.55,615.06a.5.5,0,0,1-.22-.67l3.54-6.79-7.65-.33a.5.5,0,0,1,0-1l8.42.37a.5.5,0,0,1,.42.25.54.54,0,0,1,0,.48l-3.9,7.48a.52.52,0,0,1-.19.2A.51.51,0,0,1,653.55,615.06Z"/><polygon class="cls-3" points="1298.49 586.6 1441 504.32 1155.98 339.78 1013.48 422.05 1298.49 586.6"/><polygon class="cls-4" points="1298.49 541.52 1298.49 471 1094.91 353.47 1094.91 423.99 1298.49 541.52"/><polygon class="cls-4" points="286.01 960.23 286.01 983.74 1 819.19 1 795.68 286.01 960.23"/><polygon class="cls-3" points="286.01 960.23 428.52 877.96 143.51 713.41 1 795.68 286.01 960.23"/><polygon class="cls-3" points="460.63 407.82 460.63 619.61 379.2 666.39 379.2 454.83 460.63 407.82"/><polygon class="cls-1" points="1010.63 270.07 1071.7 305.33 1030.99 328.84 969.91 293.58 1010.63 270.07"/><polygon class="cls-1" points="1030.99 328.84 1030.99 375.85 969.91 340.59 969.91 293.58 1030.99 328.84"/><polygon class="cls-1" points="1051.35 199.55 1112.42 234.81 1071.7 258.32 1010.63 223.06 1051.35 199.55"/><polygon class="cls-1" points="1071.7 258.32 1071.7 305.33 1010.63 270.07 1010.63 223.06 1071.7 258.32"/><polygon class="cls-1" points="1092.06 129.03 1153.14 164.29 1112.42 187.79 1051.35 152.53 1092.06 129.03"/><polygon class="cls-1" points="1112.42 187.79 1112.42 234.81 1051.35 199.55 1051.35 152.53 1112.42 187.79"/><polygon class="cls-2" points="227.45 789.81 288.52 825.07 247.8 848.57 186.73 813.31 227.45 789.81"/><polygon class="cls-2" points="268.16 719.28 329.24 754.55 288.52 778.05 227.45 742.79 268.16 719.28"/><polygon class="cls-2" points="288.52 778.05 288.52 825.07 227.45 789.81 227.45 742.79 288.52 778.05"/><polygon class="cls-2" points="308.88 648.76 369.95 684.02 329.24 707.53 268.16 672.27 308.88 648.76"/><polygon class="cls-2" points="329.24 707.53 329.24 754.55 268.16 719.28 268.16 672.27 329.24 707.53"/><polygon class="cls-2" points="1410.46 335.84 1288.31 265.32 1186.52 324.09 1308.67 394.61 1410.46 335.84"/><polygon class="cls-2" points="1196.7 151.01 1115.27 103.99 1115.27 9.96 1196.7 56.98 1196.7 151.01"/><polygon class="cls-2" points="1196.7 56.98 1278.13 9.96 1278.13 103.99 1196.7 151.46 1196.7 56.98"/><polygon class="cls-3" points="1135.63 45.23 1135.63 68.73 1176.34 92.24 1176.34 68.73 1135.63 45.23"/><polygon class="cls-1" points="539.01 230.06 477.94 265.32 477.94 359.35 539.01 324.09 539.01 230.06"/><polygon class="cls-3" points="559.37 288.83 539.01 277.07 498.29 300.58 518.65 312.33 559.37 288.83"/><polygon class="cls-2" points="1046.34 523.89 1046.34 617.92 1107.41 582.66 1107.41 488.63 1046.34 523.89"/><polygon class="cls-1" points="1107.41 512.14 1168.48 547.4 1107.41 582.66 1046.34 547.4 1107.41 512.14"/><polygon class="cls-3" points="1127.77 711.95 1046.34 664.94 1046.34 547.4 1127.77 594.42 1127.77 711.95"/><polyline class="cls-5" points="1255.84 298.24 1234.71 286.49 1234.71 262.98 1214.35 251.23 1214.35 227.72 1193.99 215.97 1193.99 192.46 1174.68 181.31"/><path class="cls-7" d="M1183,180.57a.5.5,0,0,1-.48.52l-7.64.33,3.53,6.79a.5.5,0,0,1-.21.67.51.51,0,0,1-.68-.21l-3.89-7.48a.48.48,0,0,1,0-.48.49.49,0,0,1,.41-.25l8.42-.37a.53.53,0,0,1,.28.07A.5.5,0,0,1,1183,180.57Z"/><path class="cls-5" d="M72,729.61c0-1.38,0-2.75,0-4.12"/><path class="cls-13" d="M72.29,717.26c6.91-136.12,117.4-244.9,254.21-249.11"/><path class="cls-5" d="M330.62,468.05c1.37,0,2.74,0,4.12,0"/><path class="cls-7" d="M77,722.9a.51.51,0,0,0-.7.13L72,729.38,68,722.83a.49.49,0,0,0-.69-.17.5.5,0,0,0-.17.68l4.35,7.23a.51.51,0,0,0,.42.24.47.47,0,0,0,.42-.22l4.71-7a.43.43,0,0,0,.09-.26A.5.5,0,0,0,77,722.9Z"/><path d="M117.16,46.07h6.29c3.1,0,7.49.32,11.37,3.6a15,15,0,0,1,5.27,11.84,14.66,14.66,0,0,1-5.41,11.83c-2.82,2.41-5.78,3.56-11.28,3.56h-6.24Zm3.42,27.6h3a13.17,13.17,0,0,0,8.83-2.78,11.79,11.79,0,0,0,4.16-9.38c0-7.4-5.18-12.2-13-12.2h-3Z"/><path d="M147.22,48.1a2.36,2.36,0,1,1-2.36,2.36A2.37,2.37,0,0,1,147.22,48.1Zm1.66,9.62V76.9h-3.32V57.72Z"/><path d="M163.72,84.57a5.38,5.38,0,0,0,5.09-2.68,8.91,8.91,0,0,0,1.06-4.9V74.22a8.1,8.1,0,0,1-6.56,3.24,9.2,9.2,0,0,1-6.57-2.59A10.42,10.42,0,0,1,154,67.29a10.1,10.1,0,0,1,2.77-7.45,9.48,9.48,0,0,1,6.57-2.58,8,8,0,0,1,6.56,3.18V57.72h3.33V76.44c0,2.08,0,5-1.85,7.53a9.33,9.33,0,0,1-7.67,3.56ZM159.33,62a7.33,7.33,0,0,0-1.94,5.27,7.44,7.44,0,0,0,2.17,5.64,5.83,5.83,0,0,0,4.12,1.57,5.68,5.68,0,0,0,4.2-1.62,7.76,7.76,0,0,0,2.18-5.55,7.57,7.57,0,0,0-2-5.41,6.15,6.15,0,0,0-4.34-1.71A5.94,5.94,0,0,0,159.33,62Z"/><path d="M181.16,48.1a2.36,2.36,0,1,1-2.36,2.36A2.37,2.37,0,0,1,181.16,48.1Zm1.66,9.62V76.9H179.5V57.72Z"/><path d="M192.53,60.77V76.9H189.2V60.77h-2V57.72h2V50.78h3.33v6.94h3.33v3.05Z"/><path d="M213.71,57.72H217V76.9h-3.33V74.22a8.1,8.1,0,0,1-6.56,3.24c-4.86,0-9.34-3.43-9.34-10.17s4.44-10,9.34-10a8,8,0,0,1,6.56,3.18Zm-12.48,9.57c0,4.11,2.31,7.21,6.28,7.21s6.38-3.38,6.38-7.17c0-4.94-3.42-7.12-6.38-7.12C204.23,60.21,201.23,62.62,201.23,67.29Z"/><path d="M226.66,43.2V76.9h-3.33V43.2Z"/><path d="M255.1,48.8c-7.44,0-12.62,5.59-12.62,12.75A12.36,12.36,0,0,0,255,74.22,10.73,10.73,0,0,0,264.44,69a9.77,9.77,0,0,0,1.25-4.39h-9.15V61.42h12.85v.74a17,17,0,0,1-3,9.75A13.84,13.84,0,0,1,255,77.46a16,16,0,1,1,.1-31.9"/><path d="M289.55,57.72h3.33V76.9h-3.33V74.22A8.1,8.1,0,0,1,283,77.46c-4.85,0-9.34-3.43-9.34-10.17s4.44-10,9.34-10a7.94,7.94,0,0,1,6.56,3.18Zm-12.48,9.57c0,4.11,2.31,7.21,6.29,7.21s6.38-3.38,6.38-7.17c0-4.94-3.42-7.12-6.38-7.12C280.08,60.21,277.07,62.62,277.07,67.29Z"/><path d="M299.18,57.72h3.32v2a5.59,5.59,0,0,1,4.77-2.49,5.74,5.74,0,0,1,5.22,3.09,6.4,6.4,0,0,1,5.78-3.09c5.68,0,6.24,4.76,6.24,7.48V76.9h-3.33V65.25c0-2.17-.28-5-3.42-5-3.84,0-4.25,3.7-4.25,6V76.9h-3.33V65.53c0-1.34,0-5.32-3.47-5.32-3.79,0-4.21,3.93-4.21,6.24V76.9h-3.32Z"/><path d="M347.87,72a11.7,11.7,0,0,1-2.36,3.1,9.33,9.33,0,0,1-6.38,2.36c-4.62,0-9.48-2.92-9.48-10,0-5.73,3.51-10.16,9.29-10.16a8.56,8.56,0,0,1,7.26,3.51A12.83,12.83,0,0,1,348,68H333.07c.05,4,2.78,6.52,6.11,6.52a5.84,5.84,0,0,0,3.92-1.39,7.65,7.65,0,0,0,2-2.64Zm-3.29-6.79a5.74,5.74,0,0,0-5.64-5,5.83,5.83,0,0,0-5.64,5Z"/><path d="M360.32,42.2h6.8c3.35,0,8.1.35,12.3,3.9a16.25,16.25,0,0,1,5.69,12.79,15.87,15.87,0,0,1-5.84,12.8c-3,2.6-6.25,3.85-12.2,3.85h-6.75ZM364,72h3.25a14.25,14.25,0,0,0,9.55-3,12.79,12.79,0,0,0,4.5-10.15c0-8-5.6-13.19-14.05-13.19H364Z"/><path d="M409.42,70.24a12.41,12.41,0,0,1-2.55,3.35,10.07,10.07,0,0,1-6.9,2.55c-5,0-10.24-3.15-10.24-10.85,0-6.2,3.79-11,10-11a9.28,9.28,0,0,1,7.85,3.79,13.93,13.93,0,0,1,1.95,7.8H393.42c.05,4.3,3,7,6.6,7a6.31,6.31,0,0,0,4.25-1.5,8.27,8.27,0,0,0,2.15-2.85Zm-3.55-7.35a6.21,6.21,0,0,0-6.1-5.4,6.31,6.31,0,0,0-6.1,5.4Z"/><path d="M416.08,54.8l6.2,14,6.19-14h4L422.28,76.89,412.08,54.8Z"/><path d="M454.67,70.24a12.41,12.41,0,0,1-2.55,3.35,10.07,10.07,0,0,1-6.89,2.55c-5,0-10.25-3.15-10.25-10.85,0-6.2,3.8-11,10-11a9.28,9.28,0,0,1,7.85,3.79,13.93,13.93,0,0,1,1.95,7.8H438.68c.05,4.3,3,7,6.6,7a6.3,6.3,0,0,0,4.24-1.5,8.27,8.27,0,0,0,2.15-2.85Zm-3.55-7.35a6.21,6.21,0,0,0-6.1-5.4,6.3,6.3,0,0,0-6.09,5.4Z"/><path d="M463.93,39.1V75.54h-3.6V39.1Z"/><path d="M469.43,65.24a11,11,0,1,1,11,10.9A10.65,10.65,0,0,1,469.43,65.24Zm3.7,0c0,5.1,3.6,7.7,7.3,7.7s7.3-2.65,7.3-7.7-3.51-7.75-7.3-7.75S473.13,60.19,473.13,65.24Z"/><path d="M500.53,87h-3.6V54.8h3.6v2.9a8.92,8.92,0,0,1,7.1-3.4c6.5,0,10.1,5.39,10.1,11s-3.65,10.85-10,10.85a8.81,8.81,0,0,1-7.25-3.5ZM514,65.29c0-5.1-3.45-7.8-6.8-7.8s-6.9,2.75-6.9,7.75c0,4.25,2.7,7.7,6.95,7.7S514,69.44,514,65.29Z"/><path d="M523.23,54.8h3.6V57A6,6,0,0,1,532,54.3a6.21,6.21,0,0,1,5.65,3.34,6.93,6.93,0,0,1,6.25-3.34c6.15,0,6.75,5.14,6.75,8.09V75.54H547V62.94c0-2.35-.3-5.45-3.7-5.45-4.15,0-4.6,4-4.6,6.5V75.54h-3.6V63.24c0-1.45,0-5.75-3.75-5.75-4.1,0-4.55,4.25-4.55,6.75v11.3h-3.6Z"/><path d="M575.88,70.24a12.41,12.41,0,0,1-2.55,3.35,10.07,10.07,0,0,1-6.9,2.55c-5,0-10.24-3.15-10.24-10.85,0-6.2,3.79-11,10-11a9.28,9.28,0,0,1,7.85,3.79,13.93,13.93,0,0,1,1.95,7.8H559.88c0,4.3,3,7,6.6,7a6.31,6.31,0,0,0,4.25-1.5,8.27,8.27,0,0,0,2.15-2.85Zm-3.55-7.35a6.21,6.21,0,0,0-6.1-5.4,6.31,6.31,0,0,0-6.1,5.4Z"/><path d="M581.54,54.8h3.6v2.39a7.31,7.31,0,0,1,5.94-2.89A7.06,7.06,0,0,1,597,57.14c1.05,1.55,1.2,3.25,1.2,5.55V75.54h-3.6V62.79a6.1,6.1,0,0,0-1-3.8,4.07,4.07,0,0,0-3.4-1.5,4.52,4.52,0,0,0-3.64,1.6c-1.4,1.65-1.5,4.1-1.5,5.6V75.54h-3.6Z"/><path d="M608.74,58.09V75.54h-3.6V58.09h-2.2V54.8h2.2V47.3h3.6v7.5h3.6v3.29Z"/><path d="M627.07,61.66l3.73,8.55,3.93-9.52,3.91,9.52,3.76-8.55h2.43l-6.25,13.45-3.87-9.39-3.88,9.39-6.19-13.45Z"/><path d="M648.23,55.36a1.55,1.55,0,0,1,0,3.09,1.55,1.55,0,1,1,0-3.09Zm1.09,6.3V74.24h-2.18V61.66Z"/><path d="M655.69,63.66V74.24H653.5V63.66h-1.33v-2h1.33V57.12h2.19v4.54h2.18v2Z"/><path d="M659.93,52.15h2.18v11a4.43,4.43,0,0,1,3.61-1.76,4.25,4.25,0,0,1,3.6,1.72,5.59,5.59,0,0,1,.73,3.37v7.79h-2.18V66.51a3.69,3.69,0,0,0-.58-2.31,2.47,2.47,0,0,0-2.06-.9,2.74,2.74,0,0,0-2.21,1,5.28,5.28,0,0,0-.91,3.39v6.58h-2.18Z"/><path d="M117.27,106.9a9.91,9.91,0,0,1,1.48-4.68,8.36,8.36,0,0,1,7.39-3.71c6,0,9,4.19,9,8.58a7.61,7.61,0,0,1-4.1,7.06c1.09.43,4.57,2.19,4.57,7.67,0,6-4.33,9.59-9.77,9.59-3.29,0-7.15-1.38-8.87-5.48a9.38,9.38,0,0,1-.72-3.34h3.53a7.23,7.23,0,0,0,1.15,3.19,5.87,5.87,0,0,0,4.91,2.39,6.31,6.31,0,0,0,6.24-6.44,5.64,5.64,0,0,0-3.14-5.34,8.12,8.12,0,0,0-3.63-.67v-3.15a7,7,0,0,0,3.63-.66,5.07,5.07,0,0,0,2.67-4.73c0-2.81-1.53-5.43-5.44-5.43a4.83,4.83,0,0,0-4.1,1.81,6.4,6.4,0,0,0-1.24,3.34Z"/><path d="M140.6,99h6.49c3.2,0,7.73.33,11.73,3.72A15.51,15.51,0,0,1,164.26,115a15.16,15.16,0,0,1-5.58,12.21c-2.91,2.48-6,3.67-11.64,3.67H140.6Zm3.53,28.47h3.1a13.62,13.62,0,0,0,9.11-2.86,12.15,12.15,0,0,0,4.29-9.68c0-7.63-5.34-12.59-13.4-12.59h-3.1Z"/><path d="M191.93,105.32a7.66,7.66,0,0,0-1.86-2.38,5.69,5.69,0,0,0-3.58-1.1c-3.15,0-5.34,2-5.34,4.92a3.32,3.32,0,0,0,1.19,2.76,10.46,10.46,0,0,0,3.34,2l3,1.34a15.61,15.61,0,0,1,4.92,3,7.66,7.66,0,0,1,2.29,5.77c0,5.87-4.35,9.78-10.07,9.78a9.46,9.46,0,0,1-6.91-2.58,11.48,11.48,0,0,1-3-5.62l3.43-1a7.6,7.6,0,0,0,1.91,4.06,6.09,6.09,0,0,0,4.58,1.76,6,6,0,0,0,6.39-6.29,4.76,4.76,0,0,0-1.57-3.72,14.1,14.1,0,0,0-3.82-2.2l-2.86-1.33a14.06,14.06,0,0,1-4.24-2.62,6.6,6.6,0,0,1-2.2-5.2c0-4.92,3.77-8.2,8.92-8.2a8.61,8.61,0,0,1,5.1,1.43,9.48,9.48,0,0,1,3.1,3.52Z"/><path d="M217.07,116.58a8,8,0,0,0-6.2-3c-3.67,0-7,2.58-7,7.39s3.43,7.35,7,7.35a8.45,8.45,0,0,0,6.39-3.1v4.1a10.62,10.62,0,0,1-6.3,2c-6.15,0-10.58-4.39-10.58-10.35a10.22,10.22,0,0,1,10.58-10.49,10.5,10.5,0,0,1,6.16,1.91Z"/><path d="M237.63,111.05h3.43v19.79h-3.43v-2.77a8.35,8.35,0,0,1-6.77,3.34c-5,0-9.64-3.53-9.64-10.49s4.58-10.35,9.64-10.35a8.2,8.2,0,0,1,6.77,3.29Zm-12.88,9.87c0,4.24,2.39,7.44,6.49,7.44s6.58-3.48,6.58-7.39c0-5.11-3.53-7.35-6.58-7.35C227.85,113.62,224.75,116.1,224.75,120.92Z"/><path d="M247.56,111.05H251v2.29a7,7,0,0,1,5.67-2.77,6.7,6.7,0,0,1,5.68,2.72c1,1.48,1.14,3.1,1.14,5.29v12.26h-3.43V118.68a5.77,5.77,0,0,0-.91-3.63,3.86,3.86,0,0,0-3.24-1.43,4.34,4.34,0,0,0-3.48,1.53c-1.33,1.57-1.43,3.91-1.43,5.34v10.35h-3.43Z"/><path d="M270,111.05h3.43v2.29a7,7,0,0,1,5.67-2.77,6.7,6.7,0,0,1,5.68,2.72c1,1.48,1.14,3.1,1.14,5.29v12.26h-3.43V118.68a5.77,5.77,0,0,0-.91-3.63,3.86,3.86,0,0,0-3.24-1.43,4.34,4.34,0,0,0-3.48,1.53c-1.33,1.57-1.43,3.91-1.43,5.34v10.35H270Z"/><path d="M294.11,101.13a2.43,2.43,0,1,1-2.43,2.43A2.44,2.44,0,0,1,294.11,101.13Zm1.72,9.92v19.79H292.4V111.05Z"/><path d="M302.32,111.05h3.43v2.29a7,7,0,0,1,5.68-2.77,6.68,6.68,0,0,1,5.67,2.72c1,1.48,1.15,3.1,1.15,5.29v12.26h-3.43V118.68a5.83,5.83,0,0,0-.91-3.63,3.88,3.88,0,0,0-3.24-1.43,4.32,4.32,0,0,0-3.48,1.53c-1.34,1.57-1.44,3.91-1.44,5.34v10.35h-3.43Z"/><path d="M333.56,138.75a5.54,5.54,0,0,0,5.25-2.76,9.23,9.23,0,0,0,1.1-5.06v-2.86a8.35,8.35,0,0,1-6.77,3.34,9.49,9.49,0,0,1-6.78-2.67,10.74,10.74,0,0,1-2.86-7.82,10.37,10.37,0,0,1,2.86-7.68,9.77,9.77,0,0,1,6.78-2.67,8.25,8.25,0,0,1,6.77,3.29v-2.81h3.43v19.31c0,2.15,0,5.2-1.91,7.77a9.6,9.6,0,0,1-7.91,3.68ZM329,115.48a7.59,7.59,0,0,0-2,5.44,7.66,7.66,0,0,0,2.24,5.82,6,6,0,0,0,4.25,1.62,5.86,5.86,0,0,0,4.34-1.67A8.05,8.05,0,0,0,340.1,121a7.82,7.82,0,0,0-2.1-5.58,6.34,6.34,0,0,0-4.48-1.77A6.18,6.18,0,0,0,329,115.48Z"/><path d="M371.49,111.05h3.43v19.79h-3.43v-2.77a8.35,8.35,0,0,1-6.77,3.34c-5,0-9.64-3.53-9.64-10.49s4.58-10.35,9.64-10.35a8.2,8.2,0,0,1,6.77,3.29Zm-12.88,9.87c0,4.24,2.38,7.44,6.49,7.44s6.58-3.48,6.58-7.39c0-5.11-3.53-7.35-6.58-7.35C361.71,113.62,358.61,116.1,358.61,120.92Z"/><path d="M381.41,111.05h3.44v2.29a7,7,0,0,1,5.67-2.77,6.7,6.7,0,0,1,5.68,2.72c1,1.48,1.14,3.1,1.14,5.29v12.26h-3.43V118.68a5.83,5.83,0,0,0-.91-3.63,3.87,3.87,0,0,0-3.24-1.43,4.34,4.34,0,0,0-3.48,1.53c-1.34,1.57-1.43,3.91-1.43,5.34v10.35h-3.44Z"/><path d="M419,96.07h3.43v34.77H419v-2.77a8.35,8.35,0,0,1-6.77,3.34c-5,0-9.64-3.53-9.64-10.49s4.58-10.35,9.64-10.35a8.2,8.2,0,0,1,6.77,3.29Zm-12.88,24.85c0,4.24,2.39,7.44,6.49,7.44s6.58-3.48,6.58-7.39c0-5.11-3.53-7.35-6.58-7.35C409.22,113.62,406.12,116.1,406.12,120.92Z"/><path d="M434.18,130.84l5.29-33.57,12.21,26.84,12.44-26.89,5,33.62h-3.62l-3-22.13-10.82,23.46L441,108.71l-3.15,22.13Z"/><path d="M474.34,121a10.5,10.5,0,1,1,10.49,10.4A10.17,10.17,0,0,1,474.34,121Zm3.53,0c0,4.87,3.44,7.35,7,7.35s7-2.53,7-7.35-3.34-7.39-7-7.39S477.87,116.2,477.87,121Z"/><path d="M515.75,96.07h3.43v34.77h-3.43v-2.77a8.35,8.35,0,0,1-6.77,3.34c-5,0-9.64-3.53-9.64-10.49s4.58-10.35,9.64-10.35a8.2,8.2,0,0,1,6.77,3.29Zm-12.88,24.85c0,4.24,2.38,7.44,6.49,7.44s6.58-3.48,6.58-7.39c0-5.11-3.53-7.35-6.58-7.35C506,113.62,502.87,116.1,502.87,120.92Z"/><path d="M543.22,125.78a11.85,11.85,0,0,1-2.43,3.2,9.6,9.6,0,0,1-6.58,2.43c-4.77,0-9.78-3-9.78-10.35,0-5.91,3.63-10.49,9.59-10.49a8.89,8.89,0,0,1,7.49,3.62,13.35,13.35,0,0,1,1.86,7.44H528c0,4.1,2.86,6.73,6.3,6.73a6,6,0,0,0,4-1.43,8,8,0,0,0,2.05-2.72Zm-3.38-7a5.92,5.92,0,0,0-5.82-5.15,6,6,0,0,0-5.82,5.15Z"/><path d="M552.05,96.07v34.77h-3.43V96.07Z"/><path d="M560.26,101.13a2.43,2.43,0,1,1-2.44,2.43A2.44,2.44,0,0,1,560.26,101.13Zm1.71,9.92v19.79h-3.43V111.05Z"/><path d="M568.47,111.05h3.43v2.29a7,7,0,0,1,5.67-2.77,6.7,6.7,0,0,1,5.68,2.72c1,1.48,1.14,3.1,1.14,5.29v12.26H581V118.68a5.77,5.77,0,0,0-.91-3.63,3.86,3.86,0,0,0-3.24-1.43,4.34,4.34,0,0,0-3.48,1.53c-1.33,1.57-1.43,3.91-1.43,5.34v10.35h-3.43Z"/><path d="M599.71,138.75A5.55,5.55,0,0,0,605,136a9.22,9.22,0,0,0,1.09-5.06v-2.86a8.34,8.34,0,0,1-6.77,3.34,9.45,9.45,0,0,1-6.77-2.67,10.7,10.7,0,0,1-2.86-7.82,10.37,10.37,0,0,1,2.86-7.68,9.76,9.76,0,0,1,6.77-2.67,8.22,8.22,0,0,1,6.77,3.29v-2.81h3.43v19.31c0,2.15,0,5.2-1.9,7.77a9.62,9.62,0,0,1-7.92,3.68Zm-4.53-23.27a7.54,7.54,0,0,0-2,5.44,7.63,7.63,0,0,0,2.24,5.82,6,6,0,0,0,4.24,1.62,5.86,5.86,0,0,0,4.34-1.67,8,8,0,0,0,2.24-5.72,7.82,7.82,0,0,0-2.1-5.58,6.31,6.31,0,0,0-4.48-1.77A6.13,6.13,0,0,0,595.18,115.48Z"/><path d="M627,99c3.19,0,5.86.38,8,2.24a8.85,8.85,0,0,1,2.91,6.82c0,4.48-2.82,8.92-10.06,8.92h-3.1v13.83h-3.53V99Zm-2.24,14.64h2.91c4.19,0,6.72-2.1,6.72-5.77,0-5.06-4.72-5.53-7-5.53h-2.62Z"/><path d="M642.12,111.05h3.44v2.14a5.5,5.5,0,0,1,4.48-2.62,7.23,7.23,0,0,1,3.05.81l-1.62,3.1a3.57,3.57,0,0,0-2-.67,3.37,3.37,0,0,0-2.77,1.24c-.57.76-1.14,2.1-1.14,5.34v10.45h-3.44Z"/><path d="M653.86,121a10.49,10.49,0,1,1,10.49,10.4A10.16,10.16,0,0,1,653.86,121Zm3.53,0c0,4.87,3.43,7.35,7,7.35s7-2.53,7-7.35-3.34-7.39-7-7.39S657.39,116.2,657.39,121Z"/><path d="M681.82,101.13a2.43,2.43,0,1,1-2.44,2.43A2.44,2.44,0,0,1,681.82,101.13Zm1.71,9.92v30.76H680.1V111.05Z"/><path d="M707.57,125.78a11.85,11.85,0,0,1-2.43,3.2,9.64,9.64,0,0,1-6.58,2.43c-4.77,0-9.78-3-9.78-10.35,0-5.91,3.62-10.49,9.58-10.49a8.86,8.86,0,0,1,7.49,3.62,13.27,13.27,0,0,1,1.86,7.44h-15.4c0,4.1,2.86,6.73,6.29,6.73a6.06,6.06,0,0,0,4.06-1.43,8.08,8.08,0,0,0,2.05-2.72Zm-3.39-7a5.92,5.92,0,0,0-5.82-5.15,6,6,0,0,0-5.81,5.15Z"/><path d="M728.46,116.58a8,8,0,0,0-6.2-3c-3.67,0-7,2.58-7,7.39s3.44,7.35,7,7.35a8.46,8.46,0,0,0,6.39-3.1v4.1a10.62,10.62,0,0,1-6.3,2c-6.15,0-10.58-4.39-10.58-10.35a10.22,10.22,0,0,1,10.58-10.49,10.44,10.44,0,0,1,6.15,1.91Z"/><path d="M737.39,114.19v16.65H734V114.19h-2.09v-3.14H734v-7.16h3.44v7.16h3.43v3.14Z"/></g></g></svg>