<svg xmlns="http://www.w3.org/2000/svg" viewBox="0 0 579.88 797.8"><defs><style>.cls-1{fill:#fff;}.cls-1,.cls-2,.cls-3,.cls-4{stroke:#000;}.cls-1,.cls-2,.cls-3,.cls-4,.cls-5,.cls-6,.cls-8{stroke-miterlimit:10;}.cls-2{fill:#f3d344;}.cls-3{fill:#ec9d93;}.cls-4{fill:#6395ce;}.cls-5,.cls-6,.cls-8{fill:none;stroke:#231815;}.cls-6{stroke-dasharray:7.96 7.96;}.cls-7{fill:#231815;}.cls-8{stroke-dasharray:8.22 8.22;}</style></defs><g id="圖層_2" data-name="圖層 2"><g id="content"><polygon class="cls-1" points="157.72 247.86 157.72 205.51 279.95 134.95 279.95 177.29 157.72 247.86"/><polygon class="cls-2" points="218.83 283.14 157.72 247.86 279.95 177.29 341.06 212.57 218.83 283.14"/><polygon class="cls-3" points="218.83 240.8 218.83 367.96 267.73 396.05 267.73 269.03 218.83 240.8"/><polygon class="cls-4" points="194.39 184.34 231.06 205.51 231.06 261.97 194.39 240.8 194.39 184.34"/><polygon class="cls-2" points="194.39 410.17 243.28 381.94 243.28 325.48 194.39 353.71 194.39 410.17"/><polygon class="cls-2" points="194.39 353.71 145.49 325.48 145.49 381.94 194.39 410.44 194.39 353.71"/><polygon class="cls-1" points="231.06 346.65 231.06 360.77 206.61 374.88 206.61 360.77 231.06 346.65"/><polygon class="cls-1" points="182.16 219.63 194.39 212.57 218.83 226.69 206.61 233.74 182.16 219.63"/><polygon class="cls-3" points="292.17 22.04 292.17 78.49 255.5 57.32 255.5 0.87 292.17 22.04"/><polygon class="cls-1" points="255.5 14.98 218.83 36.15 255.5 57.32 292.17 36.15 255.5 14.98"/><polygon class="cls-2" points="243.28 134.95 292.17 106.72 292.17 36.15 243.28 64.38 243.28 134.95"/><line class="cls-5" x1="133.27" y1="191.4" x2="136.84" y2="189.34"/><line class="cls-6" x1="143.73" y1="185.36" x2="223" y2="139.6"/><line class="cls-5" x1="226.45" y1="137.61" x2="230.01" y2="135.55"/><path class="cls-7" d="M226.5,143.12a.5.5,0,0,1-.22-.67l3.54-6.79-7.65-.33a.5.5,0,0,1,.05-1l8.42.37a.49.49,0,0,1,.42.25.51.51,0,0,1,0,.48l-3.9,7.48a.46.46,0,0,1-.19.2A.51.51,0,0,1,226.5,143.12Z"/><polyline class="cls-5" points="145.49 226.69 133.27 233.74 133.27 247.86 144.45 254.31"/><path class="cls-7" d="M136.13,255.05a.51.51,0,0,1,.48-.52l7.64-.33-3.53-6.79a.5.5,0,0,1,.21-.67.51.51,0,0,1,.68.21l3.89,7.48a.48.48,0,0,1,0,.48.47.47,0,0,1-.41.25l-8.42.37a.53.53,0,0,1-.28-.07A.5.5,0,0,1,136.13,255.05Z"/><polyline class="cls-5" points="307.18 321.95 319.4 314.9 319.4 300.78 308.22 294.33"/><path class="cls-7" d="M316.54,293.59a.5.5,0,0,1-.48.52l-7.64.33,3.53,6.79a.49.49,0,0,1-.21.67.5.5,0,0,1-.67-.21l-3.9-7.48a.51.51,0,0,1,0-.48.48.48,0,0,1,.41-.25l8.43-.37a.5.5,0,0,1,.27.07A.48.48,0,0,1,316.54,293.59Z"/><polygon class="cls-1" points="493.32 352.55 578.88 303.15 407.75 204.35 322.19 253.75 493.32 352.55"/><polygon class="cls-2" points="493.32 325.48 493.32 283.14 371.08 212.57 371.08 254.91 493.32 325.48"/><polygon class="cls-3" points="320.48 162.5 357.15 183.67 332.71 197.78 296.04 176.61 320.48 162.5"/><polygon class="cls-3" points="332.71 197.78 332.71 226.01 296.04 204.84 296.04 176.61 332.71 197.78"/><polygon class="cls-3" points="344.93 120.16 381.6 141.33 357.15 155.44 320.48 134.27 344.93 120.16"/><polygon class="cls-3" points="357.15 155.44 357.15 183.67 320.48 162.5 320.48 134.27 357.15 155.44"/><polygon class="cls-3" points="369.38 77.81 406.05 98.99 381.6 113.1 344.93 91.93 369.38 77.81"/><polygon class="cls-3" points="381.6 113.1 381.6 141.33 344.93 120.16 344.93 91.93 381.6 113.1"/><polygon class="cls-4" points="560.54 201.99 487.21 159.65 426.09 194.93 499.43 237.27 560.54 201.99"/><polygon class="cls-4" points="432.2 91.01 383.31 62.78 383.31 6.33 432.2 34.56 432.2 91.01"/><polygon class="cls-4" points="432.2 34.56 481.09 6.33 481.09 62.78 432.2 91.28 432.2 34.56"/><polygon class="cls-1" points="395.53 27.5 395.53 41.61 419.98 55.73 419.98 41.61 395.53 27.5"/><polygon class="cls-4" points="341.92 314.9 341.92 371.35 378.59 350.18 378.59 293.73 341.92 314.9"/><polygon class="cls-3" points="378.59 307.84 415.26 329.01 378.59 350.18 341.92 329.01 378.59 307.84"/><polygon class="cls-1" points="390.81 427.81 341.92 399.58 341.92 329.01 390.81 357.24 390.81 427.81"/><polyline class="cls-5" points="467.71 179.41 455.02 172.36 455.02 158.24 442.8 151.19 442.8 137.07 430.58 130.02 430.58 115.9 419.39 109.45"/><path class="cls-7" d="M427.71,108.71a.5.5,0,0,1-.48.52l-7.64.33,3.54,6.79a.5.5,0,0,1-.89.46l-3.9-7.48a.51.51,0,0,1,0-.48.48.48,0,0,1,.41-.25l8.43-.37a.42.42,0,0,1,.27.07A.46.46,0,0,1,427.71,108.71Z"/><polygon class="cls-3" points="322.19 609.49 322.19 581.26 285.52 602.43 285.52 630.66 322.19 609.49"/><polygon class="cls-3" points="268.07 670.23 373.68 609.25 251.45 538.69 145.84 599.66 268.07 670.23"/><polygon class="cls-4" points="371.08 665.51 285.52 616.11 456.65 517.32 542.21 566.72 371.08 665.51"/><polygon class="cls-1" points="407.75 602 407.75 616.11 578.88 517.32 578.88 503.2 407.75 602"/><polygon class="cls-3" points="407.75 602 322.19 552.6 493.32 453.81 578.88 503.2 407.75 602"/><polygon class="cls-2" points="372.92 485.56 336.25 506.73 360.69 520.85 397.37 499.67 372.92 485.56"/><polygon class="cls-2" points="360.69 520.85 360.69 549.07 397.37 527.9 397.37 499.67 360.69 520.85"/><polygon class="cls-2" points="348.47 443.22 311.8 464.39 336.25 478.5 372.92 457.33 348.47 443.22"/><polygon class="cls-2" points="336.25 478.5 336.25 506.73 372.92 485.56 372.92 457.33 336.25 478.5"/><polygon class="cls-2" points="324.03 400.88 287.36 422.05 311.8 436.16 348.47 414.99 324.03 400.88"/><polygon class="cls-2" points="311.8 436.16 311.8 464.39 348.47 443.22 348.47 414.99 311.8 436.16"/><polygon class="cls-4" points="407.75 531.43 481.09 489.09 542.21 524.37 468.87 566.72 407.75 531.43"/><polygon class="cls-1" points="407.75 545.54 407.75 517.32 444.43 538.49 444.43 566.72 407.75 545.54"/><polyline class="cls-5" points="346.18 641.24 358.86 634.18 358.86 620.07 371.08 613.01 371.08 598.9 383.31 591.84 383.31 577.73 394.49 571.27"/><path class="cls-7" d="M391,578.85a.51.51,0,0,1-.21-.68l3.53-6.78-7.64-.33a.51.51,0,0,1-.48-.53.5.5,0,0,1,.52-.47l8.43.36a.52.52,0,0,1,.41.25.48.48,0,0,1,0,.48l-3.89,7.49a.64.64,0,0,1-.2.2A.51.51,0,0,1,391,578.85Z"/><polygon class="cls-2" points="172.13 782.83 172.13 796.94 1 698.14 1 684.03 172.13 782.83"/><polygon class="cls-1" points="172.13 782.83 257.69 733.43 86.56 634.63 1 684.03 172.13 782.83"/><polygon class="cls-1" points="276.97 451.15 276.97 578.31 228.07 606.4 228.07 479.38 276.97 451.15"/><polygon class="cls-4" points="136.96 680.5 173.63 701.67 149.18 715.78 112.51 694.61 136.96 680.5"/><polygon class="cls-4" points="161.41 638.16 198.08 659.33 173.63 673.44 136.96 652.27 161.41 638.16"/><polygon class="cls-4" points="173.63 673.44 173.63 701.67 136.96 680.5 136.96 652.27 173.63 673.44"/><polygon class="cls-4" points="185.85 595.82 222.52 616.99 198.08 631.1 161.41 609.93 185.85 595.82"/><polygon class="cls-4" points="198.08 631.1 198.08 659.33 161.41 638.16 161.41 609.93 198.08 631.1"/><polygon class="cls-3" points="324.03 344.42 287.36 365.59 287.36 422.05 324.03 400.88 324.03 344.42"/><polygon class="cls-1" points="336.25 379.71 324.03 372.65 299.58 386.76 311.8 393.82 336.25 379.71"/><path class="cls-5" d="M43.6,643.88c0-1.38,0-2.76.09-4.12"/><path class="cls-8" d="M44.17,631.55a157.81,157.81,0,0,1,149-144"/><path class="cls-5" d="M197.26,487.35c1.37,0,2.74-.05,4.12-.05"/><path class="cls-7" d="M48.6,637.17a.5.5,0,0,0-.7.13l-4.27,6.35-3.94-6.56a.5.5,0,1,0-.86.52l4.35,7.23a.54.54,0,0,0,.42.24.5.5,0,0,0,.42-.22l4.71-7a.44.44,0,0,0,.09-.27A.5.5,0,0,0,48.6,637.17Z"/></g></g></svg>