<svg id="圖層_1" data-name="圖層 1" xmlns="http://www.w3.org/2000/svg" viewBox="0 0 465.09 200.88"><defs><style>.cls-1{fill:#fff;}</style></defs><rect class="cls-1" x="209.65" y="2.65" width="139.96" height="75.21"/><path d="M349.62,78.44h-140l-.58-.58V2.65l.58-.58h140l.57.58V77.86ZM210.24,77.28H349v-74H210.24Z"/><polygon class="cls-1" points="350.98 8.48 220.37 14.67 220.37 89.88 350.98 83.69 350.98 8.48"/><path d="M220.4,90.46l-.61-.58V14.67l.55-.58L351,7.9l.6.58V83.69l-.54.58ZM221,15.22V89.27l129.46-6.13v-74Z"/><polygon class="cls-1" points="355.4 13.11 242.49 25.48 242.49 100.69 355.4 88.32 355.4 13.11"/><path d="M242.54,101.27l-.64-.58V25.48l.51-.58L355.33,12.53l.64.58V88.32l-.51.57ZM243.06,26v74L354.81,87.8v-74Z"/><polygon class="cls-1" points="361.46 16.74 266.25 35.3 266.25 110.51 361.46 91.95 361.46 16.74"/><path d="M266.35,111.08l-.69-.57V35.3l.47-.57,95.22-18.56.69.57V92l-.47.57Zm.47-75.3v74l94.06-18.34v-74Z"/><polygon class="cls-1" points="370.55 20.17 293.02 44.92 293.02 120.14 370.55 95.39 370.55 20.17"/><path d="M293.19,120.69l-.75-.55V44.93l.4-.56,77.52-24.75.76.55V95.38l-.4.56Zm.41-75.34v74L370,95V21Z"/><polygon class="cls-1" points="382.07 22.73 322.25 53.66 322.25 128.88 382.07 97.94 382.07 22.73"/><path d="M322.51,129.39l-.85-.51V53.67l.33-.52,59.82-30.94.85.52V97.94l-.31.51ZM322.82,54v73.9L381.5,97.56V23.68Z"/><polygon class="cls-1" points="391.75 24.07 349.62 61.2 349.62 136.41 391.75 99.28 391.75 24.07"/><path d="M350,136.84l-1-.43V61.19l.21-.43,42.13-37.13,1,.44V99.28l-.21.43Zm.21-75.38v73.66l41-36.1V25.35Z"/><polygon class="cls-1" points="374.05 144.07 398.49 100.76 398.49 25.55 374.05 68.86 374.05 144.07"/><path d="M374.55,144.36l-1.09-.28V68.86l.08-.28L398,25.26l1.09.29v75.21l-.07.29ZM374.62,69v72.85l23.28-41.26V27.76Z"/><path d="M66.52,147.84h3.36a8.93,8.93,0,0,1,6,1.92,8,8,0,0,1,2.8,6.3,7.85,7.85,0,0,1-2.87,6.3c-1.51,1.28-3.08,1.9-6,1.9H66.49Zm1.83,14.7H70a7,7,0,0,0,4.7-1.48,6.23,6.23,0,0,0,2.21-5c0-3.93-2.75-6.49-6.91-6.49h-1.6Z"/><path d="M82.52,148.93a1.26,1.26,0,1,1-1.25,1.27v0A1.27,1.27,0,0,1,82.52,148.93Zm.89,5.12v10.21H81.64V154.05Z"/><path d="M91.31,168.34A2.86,2.86,0,0,0,94,166.92a4.74,4.74,0,0,0,.56-2.61v-1.48a4.29,4.29,0,0,1-3.49,1.72,5,5,0,0,1-3.5-1.37,5.56,5.56,0,0,1-1.47-4,5.38,5.38,0,0,1,1.47-4,5,5,0,0,1,3.5-1.38,4.21,4.21,0,0,1,3.49,1.7v-1.45h1.77v10a6.35,6.35,0,0,1-1,4,5,5,0,0,1-4.09,1.9Zm-2.34-12a4.44,4.44,0,0,0,.12,5.81,3.09,3.09,0,0,0,2.19.84,3,3,0,0,0,2.24-.86,4.08,4.08,0,0,0,1.16-3,4,4,0,0,0-1.08-2.88,3.31,3.31,0,0,0-2.32-.91,3.22,3.22,0,0,0-2.31,1Z"/><path d="M100.59,148.93a1.26,1.26,0,1,1-1.25,1.27v0A1.27,1.27,0,0,1,100.59,148.93Zm.89,5.12v10.21H99.71V154.05Z"/><path d="M106.65,155.67v8.59h-1.78v-8.59h-1.08v-1.62h1.08v-3.7h1.78v3.7h1.77v1.62Z"/><path d="M118,154.05h1.77v10.21H118v-1.43a4.29,4.29,0,0,1-3.49,1.72c-2.59,0-5-1.82-5-5.41s2.37-5.34,5-5.34a4.18,4.18,0,0,1,3.49,1.7Zm-6.64,5.09c0,2.19,1.23,3.84,3.34,3.84a3.53,3.53,0,0,0,3.4-3.82,3.45,3.45,0,0,0-3.11-3.77l-.29,0c-1.79,0-3.39,1.28-3.39,3.77Z"/><path d="M124.82,146.32v17.94H123V146.32Z"/><path d="M140,149.3a6.77,6.77,0,0,0-.05,13.53,5.7,5.7,0,0,0,5-2.76,5,5,0,0,0,.67-2.33h-4.88V156h6.84v.4a9,9,0,0,1-1.58,5.2,7.34,7.34,0,0,1-6.11,3,8.5,8.5,0,0,1,0-17"/><path d="M158.3,154.05h1.77v10.21H158.3v-1.43a4.29,4.29,0,0,1-3.49,1.72c-2.59,0-5-1.82-5-5.41s2.37-5.34,5-5.34a4.21,4.21,0,0,1,3.49,1.7Zm-6.64,5.09c0,2.19,1.23,3.84,3.34,3.84a3.53,3.53,0,0,0,3.4-3.82,3.45,3.45,0,0,0-3.11-3.77l-.29,0C153.25,155.37,151.66,156.65,151.66,159.14Z"/><path d="M163.42,154.05h1.78v1.08a3.12,3.12,0,0,1,5.31.32,3.42,3.42,0,0,1,3.08-1.65c3,0,3.32,2.53,3.32,4v6.47h-1.77v-6.2c0-1.16-.15-2.69-1.82-2.69-2,0-2.27,2-2.27,3.2v5.69h-1.77V158.2c0-.71,0-2.83-1.84-2.83-2,0-2.24,2.1-2.24,3.33v5.56h-1.78Z"/><path d="M189.35,161.65a6,6,0,0,1-1.25,1.65,5,5,0,0,1-3.4,1.25c-2.46,0-5-1.55-5-5.34,0-3.05,1.87-5.41,5-5.41a4.57,4.57,0,0,1,3.86,1.87,6.91,6.91,0,0,1,1,3.84h-8a3.27,3.27,0,0,0,3.07,3.46h.18a3.06,3.06,0,0,0,2.09-.74,3.83,3.83,0,0,0,1.06-1.4ZM187.6,158a3,3,0,0,0-3-2.66,3.12,3.12,0,0,0-3,2.66Z"/><path d="M196,145.78h3.62a9.65,9.65,0,0,1,6.54,2.08,8.62,8.62,0,0,1,3,6.81,8.4,8.4,0,0,1-3.12,6.81c-1.61,1.39-3.32,2.05-6.48,2.05H196Zm2,15.89h1.74a7.54,7.54,0,0,0,5.07-1.6,6.76,6.76,0,0,0,2.4-5.4c0-4.26-3-7-7.48-7H198Z"/><path d="M222.12,160.71a6.38,6.38,0,0,1-1.36,1.79,5.33,5.33,0,0,1-3.67,1.35c-2.66,0-5.46-1.67-5.46-5.77,0-3.3,2-5.86,5.36-5.86a4.92,4.92,0,0,1,4.17,2,7.37,7.37,0,0,1,1,4.15h-8.6a3.54,3.54,0,0,0,3.33,3.74h.19a3.38,3.38,0,0,0,2.26-.8,4.5,4.5,0,0,0,1.15-1.52Zm-1.89-3.91a3.31,3.31,0,0,0-3.25-2.87,3.37,3.37,0,0,0-3.25,2.87Z"/><path d="M225.66,152.49l3.3,7.45,3.3-7.45h2.13L229,164.25l-5.43-11.76Z"/><path d="M246.21,160.71a6.38,6.38,0,0,1-1.36,1.79,5.33,5.33,0,0,1-3.67,1.35c-2.66,0-5.45-1.67-5.45-5.77,0-3.3,2-5.86,5.34-5.86a4.93,4.93,0,0,1,4.18,2,7.37,7.37,0,0,1,1,4.15h-8.6a3.54,3.54,0,0,0,3.33,3.74h.19a3.38,3.38,0,0,0,2.26-.8,4,4,0,0,0,1.14-1.52Zm-1.89-3.91a3.3,3.3,0,0,0-3.25-2.87,3.36,3.36,0,0,0-3.24,2.87Z"/><path d="M251.15,144.13v19.4h-1.93v-19.4Z"/><path d="M254.07,158.05a5.86,5.86,0,1,1,5.92,5.8h-.06a5.67,5.67,0,0,1-5.85-5.49C254.07,158.26,254.07,158.15,254.07,158.05Zm2,0a3.89,3.89,0,1,0,3.89-4.12,3.83,3.83,0,0,0-3.93,3.72c0,.13,0,.27,0,.4Z"/><path d="M270.63,169.65h-1.92V152.49h1.92V154a4.77,4.77,0,0,1,3.78-1.81c3.46,0,5.37,2.88,5.37,5.86s-1.94,5.77-5.29,5.77a4.7,4.7,0,0,1-3.86-1.86Zm7.18-11.57c0-2.72-1.84-4.15-3.62-4.15a3.82,3.82,0,0,0-3.67,4v.14c0,2.26,1.44,4.1,3.7,4.1s3.59-1.86,3.59-4.07Z"/><path d="M282.71,152.49h1.92v1.17a3.22,3.22,0,0,1,2.74-1.44,3.3,3.3,0,0,1,3,1.79,3.69,3.69,0,0,1,3.32-1.79c3.28,0,3.6,2.74,3.6,4.31v7h-1.92v-6.7c0-1.25-.16-2.9-2-2.9-2.21,0-2.45,2.13-2.45,3.46v6.14H289V157c0-.78,0-3.06-2-3.06-2.18,0-2.42,2.26-2.42,3.59v6h-1.92Z"/><path d="M310.74,160.71a6.54,6.54,0,0,1-1.35,1.79,5.39,5.39,0,0,1-3.68,1.35c-2.66,0-5.45-1.67-5.45-5.77,0-3.3,2-5.86,5.35-5.86a4.91,4.91,0,0,1,4.17,2,7.27,7.27,0,0,1,1,4.15h-8.59a3.53,3.53,0,0,0,3.31,3.74h.21a3.42,3.42,0,0,0,2.26-.8,4.32,4.32,0,0,0,1.15-1.52Zm-1.89-3.91a3.3,3.3,0,0,0-3.24-2.87,3.36,3.36,0,0,0-3.25,2.87Z"/><path d="M313.75,152.49h1.93v1.28a3.85,3.85,0,0,1,3.17-1.55,3.75,3.75,0,0,1,3.16,1.52,5,5,0,0,1,.64,2.95v6.84h-1.91v-6.78a3.35,3.35,0,0,0-.51-2,2.19,2.19,0,0,0-1.81-.79,2.38,2.38,0,0,0-1.94.85,4.58,4.58,0,0,0-.8,3v5.77h-1.92Z"/><path d="M328.24,154.25v9.28h-1.92v-9.28h-1.17v-1.76h1.17v-4h1.92v4h1.91v1.76Z"/><path d="M338,156.14l2,4.55,2.1-5.06,2.08,5.06,2-4.55h1.29l-3.32,7.17-2.07-5-2.06,5-3.3-7.17Z"/><path d="M349.26,152.79a.82.82,0,1,1-.82.82.83.83,0,0,1,.82-.82Zm.58,3.35v6.7h-1.16v-6.7Z"/><path d="M353.24,157.21v5.63h-1.17v-5.63h-.7v-1.07h.7v-2.42h1.17v2.42h1.16v1.07Z"/><path d="M355.49,151.08h1.16v5.84a2.38,2.38,0,0,1,1.92-.94,2.3,2.3,0,0,1,1.93.92,3.1,3.1,0,0,1,.39,1.79v4.15h-1.16v-4.11a2.06,2.06,0,0,0-.31-1.23,1.3,1.3,0,0,0-1.1-.48,1.45,1.45,0,0,0-1.17.51,2.72,2.72,0,0,0-.49,1.81v3.5H355.5Z"/><path d="M66.58,180.23a5.36,5.36,0,0,1,.78-2.49,4.82,4.82,0,0,1,8.71,2.59,4,4,0,0,1-2.17,3.76,4,4,0,0,1,2.44,4.09A5.16,5.16,0,0,1,66,188.8v-.22h1.88a3.5,3.5,0,0,0,.61,1.7,3.1,3.1,0,0,0,2.61,1.27,3.37,3.37,0,0,0,3.33-3.39v0a3,3,0,0,0-1.68-2.85,4.41,4.41,0,0,0-1.93-.35v-1.68a3.79,3.79,0,0,0,1.93-.36,2.9,2.9,0,0,0-1.47-5.4,2.53,2.53,0,0,0-2.18,1,3.32,3.32,0,0,0-.66,1.78Z"/><path d="M79,176h3.45a9.22,9.22,0,0,1,6.25,2,8.24,8.24,0,0,1,2.89,6.5,8,8,0,0,1-3,6.5C87,192.32,85.39,193,82.37,193H79Zm1.88,15.16H82.5a7.19,7.19,0,0,0,4.85-1.53,6.44,6.44,0,0,0,2.28-5.15c0-4.06-2.84-6.7-7.13-6.7H80.85Z"/><path d="M106.32,179.39a3.74,3.74,0,0,0-1-1.27,3,3,0,0,0-1.89-.58,2.59,2.59,0,0,0-2.83,2.33,1.31,1.31,0,0,0,0,.28,1.76,1.76,0,0,0,.63,1.48,5.54,5.54,0,0,0,1.78,1.06l1.62.71a8.51,8.51,0,0,1,2.62,1.6,4.11,4.11,0,0,1,1.22,3.07,5.44,5.44,0,0,1-9,3.84,6.07,6.07,0,0,1-1.58-3l1.83-.51a3.93,3.93,0,0,0,1,2.16,3.46,3.46,0,0,0,4.9-.16,3.43,3.43,0,0,0,.93-2.25,2.53,2.53,0,0,0-.83-2,7.6,7.6,0,0,0-2-1.17l-1.53-.71a7.4,7.4,0,0,1-2.25-1.4,3.46,3.46,0,0,1-1.17-2.76c0-2.62,2-4.37,4.75-4.37a4.59,4.59,0,0,1,2.71.76,5.24,5.24,0,0,1,1.65,1.88Z"/><path d="M119.71,185.38a4.24,4.24,0,0,0-3.3-1.57,3.93,3.93,0,0,0,0,7.84,4.47,4.47,0,0,0,3.4-1.65v2.19a5.66,5.66,0,0,1-3.35,1.09,5.55,5.55,0,1,1,3.28-10.1Z"/><path d="M130.65,182.44h1.83V193h-1.83v-1.5a4.39,4.39,0,0,1-3.6,1.78c-2.67,0-5.13-1.88-5.13-5.59s2.44-5.51,5.13-5.51a4.32,4.32,0,0,1,3.6,1.76Zm-6.85,5.25c0,2.26,1.27,4,3.45,4a3.64,3.64,0,0,0,3.51-3.93,3.56,3.56,0,0,0-3.21-3.89l-.3,0c-1.8,0-3.45,1.28-3.45,3.84Z"/><path d="M136,182.44h1.83v1.22a3.73,3.73,0,0,1,3-1.48,3.56,3.56,0,0,1,3,1.45,4.63,4.63,0,0,1,.61,2.82V193h-1.83v-6.5a3.05,3.05,0,0,0-.48-1.93,2,2,0,0,0-1.72-.76,2.32,2.32,0,0,0-1.86.81,4.57,4.57,0,0,0-.76,2.85V193H136Z"/><path d="M147.88,182.44h1.83v1.22a3.73,3.73,0,0,1,3-1.48,3.57,3.57,0,0,1,3,1.45,4.63,4.63,0,0,1,.61,2.82V193h-1.83v-6.5a3.05,3.05,0,0,0-.48-1.93,2,2,0,0,0-1.72-.76,2.32,2.32,0,0,0-1.86.81,4.5,4.5,0,0,0-.75,2.85V193h-1.83Z"/><path d="M160.73,177.16a1.3,1.3,0,1,1-1.3,1.3h0A1.31,1.31,0,0,1,160.73,177.16Zm.91,5.28V193h-1.82V182.44Z"/><path d="M165.1,182.44H167v1.22a3.73,3.73,0,0,1,3-1.48,3.57,3.57,0,0,1,3,1.45,4.63,4.63,0,0,1,.61,2.82V193h-1.83v-6.5a3.05,3.05,0,0,0-.48-1.93,2.06,2.06,0,0,0-1.73-.76,2.31,2.31,0,0,0-1.85.81,4.57,4.57,0,0,0-.76,2.85V193H165.1Z"/><path d="M181.73,197.19a3,3,0,0,0,2.8-1.47,4.88,4.88,0,0,0,.58-2.7V191.5a4.41,4.41,0,0,1-3.61,1.78,5,5,0,0,1-3.6-1.42,5.74,5.74,0,0,1-1.53-4.17,5.56,5.56,0,0,1,1.53-4.08,5.14,5.14,0,0,1,3.6-1.43,4.36,4.36,0,0,1,3.61,1.76v-1.5H187v10.28a6.51,6.51,0,0,1-1,4.14,5.1,5.1,0,0,1-4.21,1.95Zm-2.41-12.39a4.52,4.52,0,0,0,.13,6,3.23,3.23,0,0,0,2.26.86,3.13,3.13,0,0,0,2.31-.88,4.24,4.24,0,0,0,1.19-3.05,4.12,4.12,0,0,0-1.12-3,3.29,3.29,0,0,0-2.38-.94,3.25,3.25,0,0,0-2.39,1Z"/><path d="M202,182.44h1.83V193H202v-1.5a4.42,4.42,0,0,1-3.6,1.78c-2.67,0-5.13-1.88-5.13-5.59s2.44-5.51,5.13-5.51a4.32,4.32,0,0,1,3.6,1.76Zm-6.85,5.25c0,2.26,1.27,4,3.45,4s3.5-1.85,3.5-3.93a3.56,3.56,0,0,0-3.21-3.89l-.29,0c-1.85,0-3.5,1.28-3.5,3.84Z"/><path d="M207.21,182.44H209v1.22a3.73,3.73,0,0,1,3-1.48,3.57,3.57,0,0,1,3,1.45,4.63,4.63,0,0,1,.61,2.82V193h-1.83v-6.5a3.05,3.05,0,0,0-.48-1.93,2.06,2.06,0,0,0-1.73-.76,2.31,2.31,0,0,0-1.85.81,4.5,4.5,0,0,0-.76,2.85V193h-1.83Z"/><path d="M227.22,174.47h1.83V193h-1.83v-1.5a4.4,4.4,0,0,1-3.6,1.78c-2.66,0-5.13-1.88-5.13-5.59s2.44-5.51,5.13-5.51a4.33,4.33,0,0,1,3.6,1.76Zm-6.85,13.22c0,2.26,1.26,4,3.45,4s3.5-1.85,3.5-3.93a3.56,3.56,0,0,0-3.21-3.89l-.29,0C222,183.81,220.37,185.13,220.37,187.69Z"/><path d="M235.3,193l2.82-17.87,6.5,14.29,6.62-14.32,2.64,17.9H252l-1.6-11.78-5.76,12.5-5.69-12.5L237.24,193Z"/><path d="M256.68,187.74a5.59,5.59,0,1,1,5.64,5.54h-.05a5.41,5.41,0,0,1-5.58-5.25A2.71,2.71,0,0,1,256.68,187.74Zm1.88,0a3.72,3.72,0,1,0,3.71-3.93,3.65,3.65,0,0,0-3.72,3.58C258.55,187.51,258.56,187.62,258.56,187.74Z"/><path d="M278.74,174.47h1.82V193h-1.82v-1.5a4.48,4.48,0,0,1-3.61,1.78c-2.66,0-5.13-1.88-5.13-5.59s2.44-5.51,5.13-5.51a4.39,4.39,0,0,1,3.61,1.76Zm-6.86,13.22c0,2.26,1.27,4,3.45,4a3.64,3.64,0,0,0,3.51-3.93,3.58,3.58,0,0,0-3.22-3.89l-.29,0c-1.81,0-3.46,1.28-3.46,3.84Z"/><path d="M293.37,190.28a6.57,6.57,0,0,1-1.3,1.7,5.09,5.09,0,0,1-3.5,1.3c-2.54,0-5.21-1.6-5.21-5.51,0-3.15,1.93-5.59,5.11-5.59a4.71,4.71,0,0,1,4,1.93,7.11,7.11,0,0,1,1,4h-8.21a3.37,3.37,0,0,0,3.16,3.57h.2a3.25,3.25,0,0,0,2.16-.76,4.33,4.33,0,0,0,1.09-1.45Zm-1.81-3.73a3.16,3.16,0,0,0-3.09-2.74,3.2,3.2,0,0,0-3.1,2.74Z"/><path d="M298.06,174.47V193h-1.82V174.5Z"/><path d="M302.43,177.16a1.3,1.3,0,0,1,0,2.6,1.3,1.3,0,0,1-1.31-1.29v0A1.31,1.31,0,0,1,302.43,177.16Zm.92,5.28V193h-1.83V182.44Z"/><path d="M306.8,182.44h1.82v1.22a3.73,3.73,0,0,1,3-1.48,3.57,3.57,0,0,1,3,1.45,4.7,4.7,0,0,1,.6,2.82V193H313.4v-6.5a2.94,2.94,0,0,0-.49-1.93,2,2,0,0,0-1.72-.76,2.3,2.3,0,0,0-1.85.81,4.51,4.51,0,0,0-.77,2.85V193h-1.82Z"/><path d="M323.43,197.19a3,3,0,0,0,2.79-1.47,4.88,4.88,0,0,0,.58-2.7V191.5a4.39,4.39,0,0,1-3.6,1.78,5.11,5.11,0,0,1-3.61-1.42,5.77,5.77,0,0,1-1.52-4.17,5.55,5.55,0,0,1,1.52-4.08,5.18,5.18,0,0,1,3.61-1.43,4.32,4.32,0,0,1,3.6,1.76v-1.5h1.83v10.28a6.63,6.63,0,0,1-1,4.14,5.11,5.11,0,0,1-4.22,1.95ZM321,184.8a4,4,0,0,0-1.07,2.89,4.11,4.11,0,0,0,1.19,3.1,3.23,3.23,0,0,0,2.26.86,3.09,3.09,0,0,0,2.31-.88,4.27,4.27,0,0,0,1.2-3.05,4.12,4.12,0,0,0-1.12-3,3.33,3.33,0,0,0-2.39-.94A3.21,3.21,0,0,0,321,184.8Z"/><path d="M338,176a6.12,6.12,0,0,1,4.27,1.19,4.7,4.7,0,0,1,1.54,3.63c0,2.39-1.5,4.75-5.35,4.75h-1.65V193h-1.87V176Zm-1.2,7.8h1.55c2.24,0,3.58-1.12,3.58-3.08,0-2.69-2.51-2.94-3.73-2.94h-1.4Z"/><path d="M346,182.44h1.83v1.14a2.94,2.94,0,0,1,2.39-1.4,4,4,0,0,1,1.62.44l-.85,1.65a1.91,1.91,0,0,0-1.08-.36,1.79,1.79,0,0,0-1.47.66,4.47,4.47,0,0,0-.6,2.84V193H346Z"/><path d="M352.26,187.74a5.59,5.59,0,1,1,5.64,5.54h-.06a5.41,5.41,0,0,1-5.57-5.24C352.26,187.94,352.26,187.84,352.26,187.74Zm1.89,0a3.71,3.71,0,1,0,3.7-3.93,3.66,3.66,0,0,0-3.72,3.59C354.13,187.51,354.14,187.63,354.15,187.74Z"/><path d="M367.15,177.16a1.3,1.3,0,0,1,0,2.6,1.3,1.3,0,0,1-1.31-1.29v0A1.31,1.31,0,0,1,367.15,177.16Zm.92,5.28v16.37h-1.83V182.44Z"/><path d="M380.85,190.28a5.93,5.93,0,0,1-1.29,1.7,5.12,5.12,0,0,1-3.5,1.3c-2.54,0-5.21-1.6-5.21-5.51,0-3.15,1.93-5.59,5.11-5.59a4.73,4.73,0,0,1,4,1.93,7.11,7.11,0,0,1,1,4h-8.21a3.37,3.37,0,0,0,3.16,3.57h.19a3.21,3.21,0,0,0,2.16-.76,4.08,4.08,0,0,0,1.09-1.45Zm-1.79-3.73a3.15,3.15,0,0,0-3.1-2.74,3.2,3.2,0,0,0-3.09,2.74Z"/><path d="M392,185.38a4.23,4.23,0,0,0-3.29-1.57,3.93,3.93,0,0,0,0,7.84,4.46,4.46,0,0,0,3.39-1.65v2.19a5.66,5.66,0,0,1-3.35,1.09,5.55,5.55,0,0,1,0-11.1h0a5.55,5.55,0,0,1,3.28,1Z"/><path d="M396.74,184.11V193h-1.83v-8.86H393.8v-1.67h1.11v-3.81h1.83v3.81h1.82v1.67Z"/></svg>