<svg id="圖層_1" data-name="圖層 1" xmlns="http://www.w3.org/2000/svg" viewBox="0 0 467.54 328.43"><defs><style>.cls-1{fill:#fff;}</style></defs><rect class="cls-1" x="92.18" y="22.1" width="209.89" height="112.79"/><path d="M302.08,135.76H92.18l-.87-.87V22.1l.87-.87h209.9l.87.87V134.89ZM93.05,134H301.21V23H93.05Z"/><polygon class="cls-1" points="304.12 30.85 108.25 40.13 108.25 152.92 304.12 143.64 304.12 30.85"/><path d="M108.29,153.79l-.91-.87V40.13l.83-.87L304.08,30l.91.87V143.64l-.83.87ZM109.12,41V152l194.13-9.2v-111Z"/><polygon class="cls-1" points="310.75 37.79 141.41 56.35 141.41 169.14 310.75 150.58 310.75 37.79"/><path d="M141.51,170l-1-.86V56.35l.78-.87L310.66,36.92l1,.87V150.58l-.77.86Zm.77-112.87v111l167.6-18.37v-111Z"/><polygon class="cls-1" points="319.85 43.23 177.05 71.07 177.05 183.86 319.85 156.02 319.85 43.23"/><path d="M177.21,184.71l-1-.85V71.07l.7-.85,142.8-27.84,1,.85V156l-.71.85Zm.71-112.92v111L319,155.3v-111Z"/><polygon class="cls-1" points="333.47 48.39 217.21 85.5 217.21 198.29 333.47 161.18 333.47 48.39"/><path d="M217.47,199.12l-1.13-.83V85.51l.6-.83L333.2,47.56l1.14.83V161.18l-.61.83Zm.61-113v111L332.6,160.54v-111Z"/><polygon class="cls-1" points="350.76 52.22 261.04 98.61 261.04 211.4 350.76 165 350.76 52.22"/><path d="M261.44,212.17l-1.27-.77V98.61l.47-.77,89.72-46.4,1.27.78V165l-.47.78Zm.47-113V210l88-45.5V53.64Z"/><polygon class="cls-1" points="365.26 54.23 302.08 109.9 302.08 222.69 365.26 167.02 365.26 54.23"/><path d="M302.65,223.35l-1.44-.66V109.9l.29-.65,63.18-55.68,1.45.66V167l-.3.65Zm.3-113V220.77l61.44-54.15V56.15Z"/><polygon class="cls-1" points="338.72 234.19 375.36 169.24 375.36 56.45 338.72 121.41 338.72 234.19"/><path d="M339.48,234.62l-1.63-.43V121.41L338,121,374.6,56l1.63.43V169.24l-.11.43Zm.11-113V230.88L374.49,169V59.76Z"/><path d="M80.75,245.2h4a10.54,10.54,0,0,1,7.15,2.26,9.45,9.45,0,0,1,3.31,7.44,9.23,9.23,0,0,1-3.4,7.43c-1.77,1.52-3.63,2.24-7.09,2.24H80.75Zm2.15,17.34h1.89a8.33,8.33,0,0,0,5.55-1.74A7.43,7.43,0,0,0,93,254.9c0-4.65-3.25-7.67-8.16-7.67H82.9Z"/><path d="M99.64,246.48A1.48,1.48,0,1,1,98.16,248,1.48,1.48,0,0,1,99.64,246.48Zm1,6v12H98.59v-12Z"/><path d="M110,269.39a3.37,3.37,0,0,0,3.19-1.68,5.61,5.61,0,0,0,.67-3.08v-1.74a5.08,5.08,0,0,1-4.12,2,5.79,5.79,0,0,1-4.13-1.63,6.53,6.53,0,0,1-1.74-4.76,6.34,6.34,0,0,1,1.74-4.68,6,6,0,0,1,4.13-1.62,5,5,0,0,1,4.12,2v-1.71H116v11.76A7.56,7.56,0,0,1,114.8,269a5.86,5.86,0,0,1-4.82,2.24Zm-2.76-14.17a4.56,4.56,0,0,0-1.22,3.31,4.63,4.63,0,0,0,1.36,3.54,3.67,3.67,0,0,0,2.59,1,3.56,3.56,0,0,0,2.64-1,4.85,4.85,0,0,0,1.37-3.48,4.76,4.76,0,0,0-1.28-3.4,3.86,3.86,0,0,0-2.73-1.07A3.73,3.73,0,0,0,107.25,255.22Z"/><path d="M121,246.48a1.48,1.48,0,1,1-1.48,1.48A1.49,1.49,0,0,1,121,246.48Zm1.05,6v12h-2.09v-12Z"/><path d="M128.11,254.43v10.14H126V254.43h-1.28v-1.91H126v-4.36h2.09v4.36h2.09v1.91Z"/><path d="M141.42,252.52h2.09v12h-2.09v-1.68a5.1,5.1,0,0,1-4.13,2c-3,0-5.87-2.15-5.87-6.39s2.79-6.3,5.87-6.3a5,5,0,0,1,4.13,2Zm-7.85,6c0,2.58,1.46,4.53,4,4.53s4-2.12,4-4.5c0-3.11-2.15-4.47-4-4.47C135.46,254.09,133.57,255.6,133.57,258.53Z"/><path d="M149.55,243.4v21.17h-2.09V243.4Z"/><path d="M170.83,246.91a8,8,0,0,0-.06,16,6.74,6.74,0,0,0,5.93-3.26,6,6,0,0,0,.78-2.76h-5.75v-2h8.08v.47a10.63,10.63,0,0,1-1.86,6.12,8.68,8.68,0,0,1-7.21,3.49,10,10,0,1,1,.06-20"/><path d="M192.48,252.52h2.09v12h-2.09v-1.68a5.1,5.1,0,0,1-4.13,2c-3,0-5.86-2.15-5.86-6.39s2.79-6.3,5.86-6.3a5,5,0,0,1,4.13,2Zm-7.84,6c0,2.58,1.45,4.53,4,4.53s4-2.12,4-4.5c0-3.11-2.14-4.47-4-4.47C186.52,254.09,184.64,255.6,184.64,258.53Z"/><path d="M198.53,252.52h2.09v1.28a3.48,3.48,0,0,1,3-1.57,3.61,3.61,0,0,1,3.28,1.94,4,4,0,0,1,3.63-1.94c3.57,0,3.92,3,3.92,4.7v7.64h-2.09v-7.32c0-1.36-.17-3.16-2.15-3.16-2.41,0-2.67,2.32-2.67,3.77v6.71h-2.09v-7.14c0-.85,0-3.34-2.18-3.34-2.38,0-2.64,2.46-2.64,3.92v6.56h-2.09Z"/><path d="M229.12,261.49a7.19,7.19,0,0,1-1.48,1.95,5.85,5.85,0,0,1-4,1.48c-2.91,0-6-1.83-6-6.3,0-3.6,2.21-6.39,5.84-6.39a5.38,5.38,0,0,1,4.56,2.2,8.15,8.15,0,0,1,1.14,4.53h-9.39a3.87,3.87,0,0,0,3.84,4.1,3.67,3.67,0,0,0,2.47-.87,4.92,4.92,0,0,0,1.25-1.66Zm-2.06-4.27a3.61,3.61,0,0,0-3.55-3.13,3.66,3.66,0,0,0-3.54,3.13Z"/><path d="M240.35,245.2h4a10.54,10.54,0,0,1,7.15,2.26,9.45,9.45,0,0,1,3.31,7.44,9.23,9.23,0,0,1-3.4,7.43c-1.77,1.52-3.63,2.24-7.09,2.24h-3.92Zm2.15,17.34h1.89a8.33,8.33,0,0,0,5.55-1.74,7.43,7.43,0,0,0,2.61-5.9c0-4.65-3.25-7.67-8.16-7.67H242.5Z"/><path d="M268.88,261.49a7.19,7.19,0,0,1-1.48,1.95,5.84,5.84,0,0,1-4,1.48c-2.9,0-5.95-1.83-5.95-6.3,0-3.6,2.2-6.39,5.84-6.39a5.41,5.41,0,0,1,4.56,2.2A8.14,8.14,0,0,1,269,259h-9.38a3.86,3.86,0,0,0,3.83,4.1,3.67,3.67,0,0,0,2.47-.87,4.79,4.79,0,0,0,1.25-1.66Zm-2.06-4.27a3.6,3.6,0,0,0-3.54-3.13,3.66,3.66,0,0,0-3.55,3.13Z"/><path d="M272.75,252.52l3.6,8.13,3.6-8.13h2.33l-5.93,12.84-5.92-12.84Z"/><path d="M295.18,261.49a7.4,7.4,0,0,1-1.48,1.95,5.85,5.85,0,0,1-4,1.48c-2.91,0-6-1.83-6-6.3,0-3.6,2.21-6.39,5.84-6.39a5.4,5.4,0,0,1,4.56,2.2,8.06,8.06,0,0,1,1.13,4.53h-9.38a3.86,3.86,0,0,0,3.84,4.1,3.65,3.65,0,0,0,2.46-.87,4.67,4.67,0,0,0,1.25-1.66Zm-2.07-4.27a3.59,3.59,0,0,0-3.54-3.13,3.66,3.66,0,0,0-3.54,3.13Z"/><path d="M300.55,243.4v21.17h-2.09V243.4Z"/><path d="M303.75,258.59a6.39,6.39,0,1,1,6.39,6.33A6.19,6.19,0,0,1,303.75,258.59Zm2.15,0a4.25,4.25,0,1,0,4.24-4.5A4.18,4.18,0,0,0,305.9,258.59Z"/><path d="M321.82,271.25h-2.09V252.52h2.09v1.68a5.2,5.2,0,0,1,4.13-2c3.77,0,5.87,3.13,5.87,6.39s-2.12,6.3-5.78,6.3a5.13,5.13,0,0,1-4.22-2Zm7.85-12.63c0-3-2-4.53-3.95-4.53a4.18,4.18,0,0,0-4,4.5c0,2.47,1.57,4.47,4,4.47S329.67,261,329.67,258.62Z"/><path d="M335,252.52h2.09v1.28a3.48,3.48,0,0,1,3-1.57,3.61,3.61,0,0,1,3.28,1.94,4,4,0,0,1,3.63-1.94c3.57,0,3.92,3,3.92,4.7v7.64h-2.09v-7.32c0-1.36-.17-3.16-2.15-3.16-2.41,0-2.67,2.32-2.67,3.77v6.71h-2.09v-7.14c0-.85,0-3.34-2.18-3.34-2.38,0-2.64,2.46-2.64,3.92v6.56H335Z"/><path d="M365.61,261.49a7.19,7.19,0,0,1-1.48,1.95,5.85,5.85,0,0,1-4,1.48c-2.91,0-6-1.83-6-6.3,0-3.6,2.21-6.39,5.84-6.39a5.4,5.4,0,0,1,4.56,2.2,8.06,8.06,0,0,1,1.13,4.53h-9.38a3.86,3.86,0,0,0,3.84,4.1,3.69,3.69,0,0,0,2.47-.87,4.76,4.76,0,0,0,1.24-1.66Zm-2.07-4.27a3.59,3.59,0,0,0-3.54-3.13,3.66,3.66,0,0,0-3.54,3.13Z"/><path d="M368.89,252.52H371v1.39a4.28,4.28,0,0,1,3.46-1.68,4.1,4.1,0,0,1,3.46,1.65,5.39,5.39,0,0,1,.69,3.23v7.46H376.5v-7.41A3.49,3.49,0,0,0,376,255a2.33,2.33,0,0,0-2-.87,2.62,2.62,0,0,0-2.12.93,5,5,0,0,0-.88,3.25v6.3h-2.09Z"/><path d="M384.7,254.43v10.14h-2.09V254.43h-1.28v-1.91h1.28v-4.36h2.09v4.36h2.09v1.91Z"/><path d="M10.57,288.46l3.57,8.19,3.78-9.12,3.75,9.12,3.6-8.19h2.32l-6,12.9-3.72-9-3.72,9-5.92-12.9Z"/><path d="M30.85,282.42a1.48,1.48,0,1,1-1.48,1.48A1.49,1.49,0,0,1,30.85,282.42Zm1,6v12.05H29.81V288.46Z"/><path d="M38,290.38v10.13H35.91V290.38H34.63v-1.92h1.28V284.1H38v4.36h2.09v1.92Z"/><path d="M42.07,279.34h2.09v10.51a4.26,4.26,0,0,1,3.46-1.68,4.08,4.08,0,0,1,3.45,1.65,5.39,5.39,0,0,1,.7,3.23v7.46H49.68v-7.4a3.57,3.57,0,0,0-.55-2.21,2.39,2.39,0,0,0-2-.87A2.62,2.62,0,0,0,45,291a5.09,5.09,0,0,0-.87,3.25v6.3H42.07Z"/><path d="M63.55,285.93a6,6,0,0,1,.9-2.84,5.51,5.51,0,0,1,10,3,4.64,4.64,0,0,1-2.5,4.3c.67.26,2.79,1.33,2.79,4.67a5.9,5.9,0,1,1-11.79.47h2.15a4.31,4.31,0,0,0,.7,1.94,3.59,3.59,0,0,0,3,1.46,3.84,3.84,0,0,0,3.8-3.92,3.44,3.44,0,0,0-1.91-3.26,5,5,0,0,0-2.21-.4v-1.92a4.31,4.31,0,0,0,2.21-.41A3.33,3.33,0,0,0,69,282.8a3,3,0,0,0-2.5,1.1,4,4,0,0,0-.75,2Z"/><path d="M77.76,281.14h3.95a10.51,10.51,0,0,1,7.15,2.27,9.44,9.44,0,0,1,3.31,7.43,9.24,9.24,0,0,1-3.4,7.44c-1.77,1.51-3.63,2.23-7.09,2.23H77.76Zm2.15,17.34H81.8a8.23,8.23,0,0,0,5.54-1.74,7.4,7.4,0,0,0,2.62-5.9c0-4.65-3.25-7.67-8.16-7.67H79.91Z"/><path d="M113,285a4.77,4.77,0,0,0-1.13-1.45,3.51,3.51,0,0,0-2.18-.67,3,3,0,0,0-3.25,3,2,2,0,0,0,.72,1.68,6.39,6.39,0,0,0,2,1.22l1.86.81a9.46,9.46,0,0,1,3,1.83,4.67,4.67,0,0,1,1.4,3.52,6.22,6.22,0,0,1-10.34,4.38,7,7,0,0,1-1.8-3.42l2.09-.59a4.54,4.54,0,0,0,1.16,2.47,4,4,0,0,0,6.68-2.76,2.87,2.87,0,0,0-1-2.26,8.55,8.55,0,0,0-2.32-1.34l-1.74-.81a8.61,8.61,0,0,1-2.59-1.6,4,4,0,0,1-1.33-3.16c0-3,2.29-5,5.43-5a5.2,5.2,0,0,1,3.1.87,5.76,5.76,0,0,1,1.89,2.15Z"/><path d="M128.32,291.83a4.84,4.84,0,0,0-3.78-1.8,4.49,4.49,0,0,0,0,9,5.17,5.17,0,0,0,3.89-1.88v2.49a6.44,6.44,0,0,1-3.84,1.25,6.35,6.35,0,1,1,0-12.69,6.36,6.36,0,0,1,3.75,1.16Z"/><path d="M140.84,288.46h2.09v12.05h-2.09v-1.68a5.06,5.06,0,0,1-4.12,2c-3.05,0-5.87-2.15-5.87-6.39s2.79-6.3,5.87-6.3a5,5,0,0,1,4.12,2Zm-7.84,6c0,2.59,1.45,4.53,3.95,4.53s4-2.12,4-4.5c0-3.11-2.15-4.47-4-4.47C134.89,290,133,291.54,133,294.47Z"/><path d="M146.89,288.46H149v1.39a4.26,4.26,0,0,1,3.46-1.68,4.08,4.08,0,0,1,3.45,1.65,5.39,5.39,0,0,1,.7,3.23v7.46H154.5v-7.4a3.57,3.57,0,0,0-.55-2.21,2.39,2.39,0,0,0-2-.87,2.63,2.63,0,0,0-2.12.93,5.09,5.09,0,0,0-.87,3.25v6.3h-2.09Z"/><path d="M160.55,288.46h2.09v1.39a4.24,4.24,0,0,1,3.45-1.68,4.1,4.1,0,0,1,3.46,1.65,5.39,5.39,0,0,1,.7,3.23v7.46h-2.09v-7.4a3.51,3.51,0,0,0-.56-2.21,2.35,2.35,0,0,0-2-.87,2.62,2.62,0,0,0-2.12.93,5.09,5.09,0,0,0-.87,3.25v6.3h-2.09Z"/><path d="M175.25,282.42a1.48,1.48,0,1,1-1.48,1.48A1.49,1.49,0,0,1,175.25,282.42Zm1,6v12.05H174.2V288.46Z"/><path d="M180.25,288.46h2.09v1.39a4.24,4.24,0,0,1,3.45-1.68,4.1,4.1,0,0,1,3.46,1.65,5.39,5.39,0,0,1,.7,3.23v7.46h-2.09v-7.4a3.51,3.51,0,0,0-.56-2.21,2.35,2.35,0,0,0-2-.87,2.62,2.62,0,0,0-2.12.93,5.09,5.09,0,0,0-.87,3.25v6.3h-2.09Z"/><path d="M199.28,305.33a3.38,3.38,0,0,0,3.19-1.68,5.61,5.61,0,0,0,.67-3.08v-1.74a5.1,5.1,0,0,1-4.13,2,5.8,5.8,0,0,1-4.12-1.62,6.57,6.57,0,0,1-1.74-4.77,6.36,6.36,0,0,1,1.74-4.68,6,6,0,0,1,4.12-1.62,5,5,0,0,1,4.13,2v-1.71h2.09v11.76a7.61,7.61,0,0,1-1.16,4.74,5.86,5.86,0,0,1-4.82,2.23Zm-2.76-14.17a4.57,4.57,0,0,0-1.22,3.31,4.66,4.66,0,0,0,1.36,3.55,3.69,3.69,0,0,0,2.59,1,3.6,3.6,0,0,0,2.64-1,4.92,4.92,0,0,0,1.36-3.49,4.8,4.8,0,0,0-1.27-3.4,3.86,3.86,0,0,0-2.73-1.07A3.73,3.73,0,0,0,196.52,291.16Z"/><path d="M226.36,288.46h2.09v12.05h-2.09v-1.68a5.06,5.06,0,0,1-4.12,2c-3.05,0-5.87-2.15-5.87-6.39s2.79-6.3,5.87-6.3a5,5,0,0,1,4.12,2Zm-7.84,6c0,2.59,1.45,4.53,3.95,4.53s4-2.12,4-4.5c0-3.11-2.15-4.47-4-4.47C220.41,290,218.52,291.54,218.52,294.47Z"/><path d="M232.41,288.46h2.09v1.39a4.26,4.26,0,0,1,3.46-1.68,4.08,4.08,0,0,1,3.45,1.65,5.39,5.39,0,0,1,.7,3.23v7.46H240v-7.4a3.57,3.57,0,0,0-.55-2.21,2.39,2.39,0,0,0-2-.87,2.63,2.63,0,0,0-2.12.93,5.09,5.09,0,0,0-.87,3.25v6.3h-2.09Z"/><path d="M255.3,279.34h2.09v21.17H255.3v-1.68a5.08,5.08,0,0,1-4.12,2c-3.05,0-5.87-2.15-5.87-6.39s2.79-6.3,5.87-6.3a5,5,0,0,1,4.12,2Zm-7.84,15.13c0,2.59,1.45,4.53,3.95,4.53s4-2.12,4-4.5c0-3.11-2.15-4.47-4-4.47C249.35,290,247.46,291.54,247.46,294.47Z"/><path d="M268.53,300.51l3.23-20.44,7.43,16.35L286.77,280l3,20.47h-2.21L285.76,287l-6.6,14.29L272.66,287l-1.92,13.47Z"/><path d="M293,294.53a6.39,6.39,0,1,1,6.39,6.33A6.19,6.19,0,0,1,293,294.53Zm2.15,0a4.25,4.25,0,1,0,4.24-4.5A4.18,4.18,0,0,0,295.15,294.53Z"/><path d="M318.22,279.34h2.09v21.17h-2.09v-1.68a5.1,5.1,0,0,1-4.13,2c-3,0-5.86-2.15-5.86-6.39s2.78-6.3,5.86-6.3a5,5,0,0,1,4.13,2Zm-7.85,15.13c0,2.59,1.46,4.53,3.95,4.53s4-2.12,4-4.5c0-3.11-2.15-4.47-4-4.47C312.26,290,310.37,291.54,310.37,294.47Z"/><path d="M335,297.43a7.19,7.19,0,0,1-1.48,1.95,5.84,5.84,0,0,1-4,1.48c-2.9,0-5.95-1.83-5.95-6.3,0-3.6,2.21-6.39,5.84-6.39a5.39,5.39,0,0,1,4.56,2.21,8.1,8.1,0,0,1,1.13,4.53h-9.38a3.86,3.86,0,0,0,3.83,4.09,3.67,3.67,0,0,0,2.47-.87,4.76,4.76,0,0,0,1.25-1.65Zm-2.06-4.27a3.61,3.61,0,0,0-3.54-3.13,3.66,3.66,0,0,0-3.55,3.13Z"/><path d="M340.33,279.34v21.17h-2.09V279.34Z"/><path d="M345.33,282.42a1.48,1.48,0,1,1-1.48,1.48A1.49,1.49,0,0,1,345.33,282.42Zm1,6v12.05h-2.09V288.46Z"/><path d="M350.33,288.46h2.09v1.39a4.26,4.26,0,0,1,3.45-1.68,4.09,4.09,0,0,1,3.46,1.65,5.39,5.39,0,0,1,.7,3.23v7.46h-2.09v-7.4a3.57,3.57,0,0,0-.55-2.21,2.39,2.39,0,0,0-2-.87,2.62,2.62,0,0,0-2.12.93,5.09,5.09,0,0,0-.87,3.25v6.3h-2.09Z"/><path d="M369.36,305.33a3.38,3.38,0,0,0,3.19-1.68,5.61,5.61,0,0,0,.67-3.08v-1.74a5.08,5.08,0,0,1-4.12,2,5.81,5.81,0,0,1-4.13-1.62,6.57,6.57,0,0,1-1.74-4.77,6.36,6.36,0,0,1,1.74-4.68,6,6,0,0,1,4.13-1.62,5,5,0,0,1,4.12,2v-1.71h2.09v11.76a7.61,7.61,0,0,1-1.16,4.74,5.86,5.86,0,0,1-4.82,2.23Zm-2.76-14.17a4.57,4.57,0,0,0-1.22,3.31,4.66,4.66,0,0,0,1.36,3.55,3.69,3.69,0,0,0,2.59,1,3.6,3.6,0,0,0,2.64-1,4.93,4.93,0,0,0,1.37-3.49,4.81,4.81,0,0,0-1.28-3.4,3.86,3.86,0,0,0-2.73-1.07A3.73,3.73,0,0,0,366.6,291.16Z"/><path d="M390,281.14c1.94,0,3.57.23,4.88,1.37a5.4,5.4,0,0,1,1.77,4.15c0,2.73-1.72,5.43-6.13,5.43H388.6v8.42h-2.15V281.14Zm-1.37,8.92h1.77c2.56,0,4.1-1.28,4.1-3.52,0-3.08-2.88-3.37-4.27-3.37h-1.6Z"/><path d="M399.18,288.46h2.09v1.31a3.34,3.34,0,0,1,2.73-1.6,4.42,4.42,0,0,1,1.86.49l-1,1.89a2.14,2.14,0,0,0-1.22-.41,2,2,0,0,0-1.68.76c-.35.46-.7,1.28-.7,3.25v6.36h-2.09Z"/><path d="M406.33,294.53a6.39,6.39,0,1,1,6.39,6.33A6.19,6.19,0,0,1,406.33,294.53Zm2.15,0a4.25,4.25,0,1,0,4.24-4.5A4.18,4.18,0,0,0,408.48,294.53Z"/><path d="M423.35,282.42a1.48,1.48,0,1,1-1.48,1.48A1.49,1.49,0,0,1,423.35,282.42Zm1,6v18.73h-2.09V288.46Z"/><path d="M439,297.43a7.19,7.19,0,0,1-1.48,1.95,5.84,5.84,0,0,1-4,1.48c-2.9,0-5.95-1.83-5.95-6.3,0-3.6,2.2-6.39,5.83-6.39a5.36,5.36,0,0,1,4.56,2.21,8.1,8.1,0,0,1,1.14,4.53h-9.38a3.85,3.85,0,0,0,3.83,4.09,3.67,3.67,0,0,0,2.47-.87,4.76,4.76,0,0,0,1.25-1.65ZM437,293.16a3.61,3.61,0,0,0-3.55-3.13,3.66,3.66,0,0,0-3.54,3.13Z"/><path d="M451.77,291.83A4.85,4.85,0,0,0,448,290a4.49,4.49,0,0,0,0,9,5.14,5.14,0,0,0,3.89-1.88v2.49a6.41,6.41,0,0,1-3.83,1.25,6.35,6.35,0,1,1,0-12.69,6.36,6.36,0,0,1,3.75,1.16Z"/><path d="M457.2,290.38v10.13h-2.09V290.38h-1.28v-1.92h1.28V284.1h2.09v4.36h2.09v1.92Z"/></svg>