<svg id="圖層_1" data-name="圖層 1" xmlns="http://www.w3.org/2000/svg" viewBox="0 0 467.54 328.43"><defs><style>.cls-1{fill:#fff;}</style></defs><rect class="cls-1" x="92.18" y="0.87" width="209.89" height="112.79"/><path d="M302.08,114.53H92.18l-.87-.87V.87L92.18,0h209.9l.87.87V113.66Zm-209-1.74H301.21V1.74H93.05Z"/><polygon class="cls-1" points="304.12 9.62 108.25 18.9 108.25 131.69 304.12 122.41 304.12 9.62"/><path d="M108.29,132.55l-.91-.87V18.9l.83-.87L304.08,8.75l.91.87V122.41l-.83.86Zm.83-112.82v111l194.13-9.19v-111Z"/><polygon class="cls-1" points="310.75 16.55 141.41 35.11 141.41 147.9 310.75 129.34 310.75 16.55"/><path d="M141.51,148.77l-1-.87V35.11l.78-.86L310.66,15.69l1,.86V129.34l-.77.87Zm.77-112.88v111l167.6-18.37v-111Z"/><polygon class="cls-1" points="319.85 22 177.05 49.84 177.05 162.63 319.85 134.79 319.85 22"/><path d="M177.21,163.48l-1-.86V49.84l.7-.86,142.8-27.84,1,.86V134.79l-.71.85Zm.71-112.93v111L319,134.07v-111Z"/><polygon class="cls-1" points="333.47 27.15 217.21 64.27 217.21 177.06 333.47 139.94 333.47 27.15"/><path d="M217.47,177.89l-1.13-.83V64.27l.6-.83L333.2,26.33l1.14.82V139.94l-.61.83Zm.61-113v111L332.6,139.31v-111Z"/><polygon class="cls-1" points="350.76 30.98 261.04 77.38 261.04 190.17 350.76 143.77 350.76 30.98"/><path d="M261.44,190.94l-1.27-.77V77.38l.47-.77,89.72-46.4,1.27.77V143.77l-.47.77Zm.47-113V188.74l88-45.5V32.41Z"/><polygon class="cls-1" points="365.26 32.99 302.08 88.67 302.08 201.46 365.26 145.78 365.26 32.99"/><path d="M302.65,202.11l-1.44-.65V88.67l.29-.65,63.18-55.68,1.45.65V145.78l-.3.66Zm.3-113V199.53l61.44-54.14V34.92Z"/><polygon class="cls-1" points="338.72 212.96 375.36 148 375.36 35.22 338.72 100.17 338.72 212.96"/><path d="M339.48,213.39l-1.63-.43V100.17l.11-.43L374.6,34.79l1.63.43V148l-.11.43Zm.11-113V209.65l34.9-61.87V38.53Z"/><path d="M49.17,299.85v-3.43H36.66V295H49.17v-3.63h1.47V295h8.07v-3.63h1.47V295H72.74v1.38H60.18v3.43H58.71v-3.43H50.64v3.43Zm7.22,28.58-.82-1.19A24.52,24.52,0,0,0,60.2,324a26.55,26.55,0,0,0,3.69-4.09,37.65,37.65,0,0,1-1.65-7q-.56-3.86-.75-8.29H47.05v5.91a53.53,53.53,0,0,1-.4,6.89,25.1,25.1,0,0,1-1.45,5.75,23.26,23.26,0,0,1-2.92,5.21l-1.22-.85a19.3,19.3,0,0,0,3.12-5.79,28.3,28.3,0,0,0,1.24-6.28h-4a20.36,20.36,0,0,1-.9,5.42,18.74,18.74,0,0,1-2.73,5.3l-1.18-.81a17.69,17.69,0,0,0,2.55-4.81,18.86,18.86,0,0,0,.91-5.1H37.47V314h8a16.32,16.32,0,0,0,.09-1.71v-2.61H39.27v-8.15h1.34v6.68h5v-5H61.4c0-.65,0-1.32,0-2v-2h1.43v2c0,.68,0,1.35,0,2h9.62v1.39H62.87c.11,2.71.33,5.24.65,7.56a40.94,40.94,0,0,0,1.35,6.26,31,31,0,0,0,2.49-4.71,44.88,44.88,0,0,0,1.83-5.32l1.43.49a49.74,49.74,0,0,1-2.24,6,33.63,33.63,0,0,1-2.94,5.2,14.82,14.82,0,0,0,4.48,6.69,18,18,0,0,0,.88-1.84c.31-.73.61-1.49.9-2.26s.51-1.45.67-2l1.26.86c-.19.59-.44,1.29-.77,2.1s-.66,1.58-1,2.34a20.56,20.56,0,0,1-.92,1.87,1.05,1.05,0,0,1-.81.58,1.49,1.49,0,0,1-1-.33,16.51,16.51,0,0,1-4.69-6.65,30.91,30.91,0,0,1-3.57,3.78A27.13,27.13,0,0,1,56.39,328.43Zm-6.65-4.94v-15.9H60v1.23h-4.2v3.5h3.95v6.08H55.78v3.87h4.4v1.22ZM51,312.32h3.5v-3.5H51Zm0,4.85h7.46v-3.62H51Zm0,5.1h3.5V318.4H51Zm17.32-19.89A17.83,17.83,0,0,0,66.79,301a22.35,22.35,0,0,0-2-1.41l.81-1a16.89,16.89,0,0,1,2,1.29,14.33,14.33,0,0,1,1.65,1.4Z"/><path d="M81.23,326.16V311.61H94.31v14.55Zm1.46-1.46H92.84V313.08H82.69Zm5.63-17.57V293.67h17.57v13.46Zm1.47-1.47h14.63V295.14H89.79Zm10.15,20.5V311.61h13.33v14.55Zm1.47-1.46H111.8V313.08H101.41Z"/><path d="M128.44,324.68a7.14,7.14,0,0,1-4.89-1.76,8.6,8.6,0,0,1-2.69-4.4l1.35-.49a7.44,7.44,0,0,0,2.2,3.75,5.68,5.68,0,0,0,4,1.51,6.93,6.93,0,0,0,5.06-1.73,7.61,7.61,0,0,0,.79-8.56,6.51,6.51,0,0,0-2.59-2.37,8,8,0,0,0-3.71-.83h-.81v-1.39H128a6.62,6.62,0,0,0,4.77-1.67,5.87,5.87,0,0,0,1.76-4.45,5.61,5.61,0,0,0-.86-3.24,5.25,5.25,0,0,0-2.24-1.85,7.29,7.29,0,0,0-3-.61,5.11,5.11,0,0,0-3.77,1.48,9,9,0,0,0-2.18,3.61l-1.34-.53a9.07,9.07,0,0,1,3-4.48,7,7,0,0,1,4.26-1.51A7.78,7.78,0,0,1,133.8,297a6.71,6.71,0,0,1,2.1,5.26,7.4,7.4,0,0,1-1.2,4.18,6.75,6.75,0,0,1-3.36,2.63,7.69,7.69,0,0,1,5.34,7.5,9.58,9.58,0,0,1-.84,4,6.64,6.64,0,0,1-2.65,2.94A9.1,9.1,0,0,1,128.44,324.68Z"/><path d="M142.93,324.19V295.65h7.79a14.82,14.82,0,0,1,6.38,1.24,12,12,0,0,1,4.28,3.3,13.37,13.37,0,0,1,2.4,4.61,17.74,17.74,0,0,1,.76,5.12,17.56,17.56,0,0,1-.76,5.13,13.28,13.28,0,0,1-2.4,4.59,12,12,0,0,1-4.28,3.3,14.81,14.81,0,0,1-6.38,1.25Zm1.39-1.43h6.4a13.75,13.75,0,0,0,5.79-1.1,10.36,10.36,0,0,0,3.83-3,11.84,11.84,0,0,0,2.12-4.13,17,17,0,0,0,0-9.3,12,12,0,0,0-2.12-4.14,10.59,10.59,0,0,0-3.83-3,13.43,13.43,0,0,0-5.79-1.13h-6.4Z"/><path d="M173.68,328.32a5,5,0,0,0-.18-.75c-.1-.28-.18-.51-.23-.67h3.43a1.76,1.76,0,0,0,1.22-.35,1.49,1.49,0,0,0,.37-1.12V313.28c-1.23.46-2.37.88-3.43,1.24l-2.2.76-.53-1.55c.62-.16,1.5-.43,2.63-.8s2.3-.76,3.53-1.2V301.25H172.5v-1.46h5.79v-8.32h1.46v8.32h4.73v1.46h-4.73v9.95l2.75-1.06c.86-.32,1.53-.6,2-.81v1.46l-2,.84c-.88.37-1.81.74-2.82,1.12v12.68c0,1.93-1,2.89-3.05,2.89Zm22.63.05V314.91h-6.16v10h-1.47v-11.5h7.63v-4.56h-9.54v5H185.3v-6.44H209v6.28h-1.46v-4.81h-9.75v4.56h7.71v8.48a3,3,0,0,1-.72,2.21,3.18,3.18,0,0,1-2.34.73H200.1a3.83,3.83,0,0,0-.21-.78q-.16-.43-.24-.69h2.77a1.74,1.74,0,0,0,1.24-.34,1.56,1.56,0,0,0,.35-1.13v-7h-6.24v13.46Zm-8.81-23.81v-1.47h16v-3.51H188v-1.46h15.49v-3.51h-16v-1.47H205v11.42Z"/><path d="M262.32,328.39l-1-1.1a20.9,20.9,0,0,0,3.81-3.1,20.2,20.2,0,0,0,2.95-4,25.57,25.57,0,0,1-2.5-3.46,30,30,0,0,1-2.14-4.32l1.34-.57a26.62,26.62,0,0,0,4,6.93,22.61,22.61,0,0,0,1.67-5.14,30.83,30.83,0,0,0,.57-6.12h-6.89v-1.42c.38-.49.84-1.19,1.39-2.08s1.1-1.88,1.69-2.94,1.13-2.08,1.65-3.06.92-1.79,1.22-2.44h-7.58v-1.47h9.21l.57.65c-.32.74-.77,1.64-1.32,2.71s-1.16,2.18-1.8,3.31S268,303,267.4,303.93s-1,1.67-1.33,2.16h6.45a40.47,40.47,0,0,1-.68,7.91,23.49,23.49,0,0,1-2,5.95,16.94,16.94,0,0,0,6.87,4.09,31.36,31.36,0,0,0,9.56,1.29c2.9,0,5.32,0,7.23-.08s3.43-.14,4.55-.25l-.45,1.55q-1.31.09-4,.12t-7.37,0a35.32,35.32,0,0,1-9.87-1.22,17.31,17.31,0,0,1-7.3-4.2,19.87,19.87,0,0,1-3,3.79A34.16,34.16,0,0,1,262.32,328.39Zm21.53-4.45v-4.4H273.41v-1.47h10.44v-4.16h-9v-1.46h9v-4.16h-8.36v-1.47h8.36v-4.16H272.43v-1.47h11.42V297h-8.19v-1.47h8.19v-4.12h1.47v4.12h8.52v5.62h3.87v1.47h-3.87v5.63h-8.52v4.16h9.58v1.46h-9.58v4.16h11.17v1.47H285.32v4.4Zm1.47-22.75h7.05V297h-7.05Zm0,5.63h7.05v-4.16h-7.05Z"/><path d="M350.77,301.09v-1.47h15.81v1.47Zm2-5.42V294.2h12v1.47Zm0,10.93v-1.47h12v1.47Zm0,5.46v-1.47h12v1.47Zm.29,14.76V316h11.82v10.85Zm1.47-1.47h8.88v-7.91h-8.88Zm21.89,2.53V306.43h-8.93V305h8.93V292h1.47v13h8.52v1.47h-8.52v21.45Z"/><rect x="394.11" y="326.43" width="36.41" height="1.35"/><path d="M400,314.57v9.33h24.91v-9.33Zm11.74,3.91h-5.17v1.22h5.17v2.94H401.41v-6.81h10.35Zm11.83-1.06v5.22H413.15V319.7h5.26v-1.22h-5.26v-2.65h10.44Z"/><path d="M413.15,311.06v-2.73h14.51v-1.27H413.15v-2.73H424.4v-4h6.4v-1.27h-6.4v-4H413.15v-3h-1.39v3h-13v1.26h13v2.73H394v1.27h17.73v2.73H398.55v1.26h13.21v2.73h-15v1.27h15v2.73H394v1.26h36.93v-1.26Zm0-14.72h9.91v2.73h-9.91Zm0,4h9.91v2.73h-9.91Z"/><path d="M320.47,312.22a22.34,22.34,0,0,1-1.94-2c-.75-.87-1.47-1.77-2.18-2.71s-1.26-1.72-1.67-2.34v-3.67h5.14v-1.35h-5.14v-8.64h-1.47v8.64h-6.44v1.35h6.44v.77c-.33,1-.76,2.08-1.3,3.28s-1.17,2.45-1.86,3.71-1.41,2.48-2.16,3.65a29.73,29.73,0,0,1-2.22,3.06l1.26.82a48.49,48.49,0,0,0,3.39-5.2,46.41,46.41,0,0,0,2.89-6v22.83h1.47v-21.2c.43.7.93,1.44,1.49,2.2s1.12,1.49,1.69,2.18,1.09,1.27,1.55,1.73Z"/><polygon points="325.97 300.28 327.44 300.28 327.44 297.3 333.64 297.3 333.64 300.28 335.1 300.28 335.1 297.3 342.65 297.3 342.65 295.83 335.1 295.83 335.1 291.63 333.64 291.63 333.64 295.83 327.44 295.83 327.44 291.63 325.97 291.63 325.97 295.83 319.08 295.83 319.08 297.3 325.97 297.3 325.97 300.28"/><path d="M343.18,316.67H331.27a19.26,19.26,0,0,0,.37-3.92h8V301.5H321.85v11.25h8.28q0,1.06-.12,2a13.93,13.93,0,0,1-.29,1.88H318.51v1.42H329.4a10.69,10.69,0,0,1-3.82,5.67,19.22,19.22,0,0,1-7.35,3.14l.61,1.38a25.13,25.13,0,0,0,7.52-3.36,11.48,11.48,0,0,0,4.34-6,16.41,16.41,0,0,0,4.49,5.73,18.28,18.28,0,0,0,7.13,3.52l.69-1.38a20.31,20.31,0,0,1-6.5-3,14.64,14.64,0,0,1-4.83-5.73h11.5ZM327,311.45h-3.72V302.8H338.2v8.65H327Z"/><rect x="327.04" y="306.35" width="7.44" height="1.3"/><path d="M218.41,328.35a3.53,3.53,0,0,0-.21-.76c-.11-.28-.19-.51-.24-.67h3.42a1.77,1.77,0,0,0,1.23-.35,1.49,1.49,0,0,0,.36-1.12V313.18c-1.3.49-2.51.93-3.62,1.32l-2.25.8-.53-1.55c.63-.16,1.53-.44,2.71-.84s2.42-.82,3.69-1.28v-9.87h-6V300.3h6v-8.81h1.47v8.81h5.26v1.46h-5.26v9.3c1.17-.44,2.24-.85,3.22-1.24s1.69-.7,2.12-.92v1.47c-.35.19-1,.49-2,.91s-2.1.87-3.3,1.33v12.84c0,1.93-1,2.9-3.06,2.9Z"/><polygon points="236.39 304.86 236.39 299.36 229.21 299.36 229.21 297.89 236.39 297.89 236.39 292.02 237.85 292.02 237.85 297.89 244.83 297.89 244.83 292.02 246.29 292.02 246.29 297.89 253.71 297.89 253.71 299.36 246.29 299.36 246.29 304.86 244.83 304.86 244.83 299.36 237.85 299.36 237.85 304.86 236.39 304.86"/><path d="M231.54,307v20.31H251.1V307Zm9.05,9.42h-3.42v1.47h3.42v7.95H233V308.49h7.59Zm9.09,0v9.42h-7.63v-7.95h3.46v-1.47h-3.46v-7.95h7.63Z"/><path d="M84.38,256.13v-5.79h7.51v-2.28h-7.1v-4.49H81v-1.14h3.75v-4.36h7.1v-3.18h1.34v3.18h7v4.36h3.59v1.14H100.2v4.49h-7v2.28h7.54v5.79ZM81.9,271.82l-.41-1.3a25.41,25.41,0,0,0,6.2-1,15.47,15.47,0,0,0,4.56-2.2c-1-.38-2.06-.76-3.18-1.12s-2.31-.73-3.58-1.08c.38-.49.77-1.05,1.18-1.67s.81-1.28,1.22-2H81.53v-1.22h7.09a34.23,34.23,0,0,0,2-3.71l1.31.44c-.22.44-.49.94-.8,1.51l-1,1.76h13.74v1.22H98.12a19.22,19.22,0,0,1-3.46,5.42q1.47.57,2.85,1.2c.93.43,1.84.88,2.73,1.37l-.85,1.18c-.93-.54-1.86-1-2.82-1.49s-1.93-.89-2.93-1.32a14.54,14.54,0,0,1-4.81,2.67A28.51,28.51,0,0,1,81.9,271.82ZM85.73,255h6.16v-3.55H85.73Zm.41-12.56h5.75v-3.1H86.14Zm0,4.44h5.75v-3.3H86.14Zm7.17,19.57a14.8,14.8,0,0,0,3.39-4.93H89.4c-.35.6-.69,1.15-1,1.67s-.61,1-.86,1.35c1,.29,2,.6,3,.91S92.42,266.09,93.31,266.44Zm-.08-24h5.63v-3.1H93.23Zm0,4.44h5.63v-3.3H93.23Zm0,8.12h6.24v-3.55H93.23Zm8.32,16.63-1-1.1a25.89,25.89,0,0,0,5.05-4,24.93,24.93,0,0,0,3.67-4.81,32.32,32.32,0,0,1-2.4-6.22,38.62,38.62,0,0,1-1.22-6.78c-.38,1-.81,2-1.27,2.93s-1,1.9-1.51,2.86l-1.26-.7a30.57,30.57,0,0,0,2.89-6,58.21,58.21,0,0,0,1.94-6.54c.5-2.16.88-4.11,1.12-5.85l1.35.24q-.37,2.32-.84,4.59c-.31,1.51-.68,3-1.12,4.42h11.62V246h-3.51a45.35,45.35,0,0,1-1.34,8.54,29.8,29.8,0,0,1-2.86,7.11,25.56,25.56,0,0,0,3.47,4.71,24.6,24.6,0,0,0,4.48,3.77l-1.06,1.31a31.43,31.43,0,0,1-4.36-4,29,29,0,0,1-3.34-4.48A30.63,30.63,0,0,1,101.55,271.62Zm8.56-11.42a28.68,28.68,0,0,0,2.49-6.82,45.12,45.12,0,0,0,1-7.36h-6.94a39.33,39.33,0,0,0,1,7.46A31.89,31.89,0,0,0,110.11,260.2Z"/><path d="M130.28,271.82V246.38q-1.51,2.25-3.1,4.26a31.11,31.11,0,0,1-3.1,3.45,5.83,5.83,0,0,0-1.06-.94,22.23,22.23,0,0,0,2.67-2.85q1.41-1.76,2.81-3.81t2.65-4.2q1.24-2.14,2.17-4.08a21.92,21.92,0,0,0,1.32-3.4l1.47.53a41.41,41.41,0,0,1-1.88,4.26c-.76,1.5-1.59,3-2.48,4.5v27.72Zm4.32-2.57v-1.46h13.09c.78-1.91,1.57-4,2.36-6.32s1.5-4.66,2.14-7.06,1.14-4.63,1.49-6.72l1.59.36c-.3,1.53-.67,3.15-1.12,4.88s-1,3.47-1.49,5.24-1.1,3.47-1.67,5.11-1.13,3.15-1.67,4.51h11.74v1.46Zm1.22-23.93v-1.46h11.05v-8.52h1.47v8.52h11.17v1.46Zm7.63,18.84q-.9-4.25-2-8a55.66,55.66,0,0,0-2.55-6.85l1.43-.49q1.38,3.3,2.57,7.11c.78,2.55,1.45,5.15,2,7.81Z"/><path d="M192.89,271.82a61.51,61.51,0,0,1-7.07-.36,20.39,20.39,0,0,1-5.46-1.37A15,15,0,0,1,176,267.3c-.44.32-1.05.75-1.84,1.28s-1.57,1.08-2.34,1.63-1.4,1-1.86,1.41l-.94-1.43c.44-.24,1.06-.61,1.88-1.1s1.65-1,2.51-1.55,1.53-1,2-1.38V254.05h-6v-1.51H177v13.9a15.73,15.73,0,0,0,4.14,2.49,18.71,18.71,0,0,0,5,1.16,66,66,0,0,0,6.83.31q4.37,0,7.42-.15c2-.09,3.92-.19,5.63-.3l-.45,1.63C203.42,271.74,199.23,271.82,192.89,271.82Zm-16.26-26.33a24,24,0,0,0-1.72-2.14c-.7-.8-1.44-1.58-2.2-2.33a17.44,17.44,0,0,0-2.12-1.81l1-.9a24.34,24.34,0,0,1,2.18,1.9c.78.75,1.52,1.49,2.23,2.24s1.28,1.42,1.75,2Zm6,22.05a3.21,3.21,0,0,0-.2-.71c-.11-.26-.19-.47-.25-.63h1.92A5,5,0,0,0,186,266a1.52,1.52,0,0,0,.86-.94,10.32,10.32,0,0,0,.47-1.95c.13-.74.26-1.76.39-3.08s.23-2.75.32-4.28.14-3,.14-4.3h-3.91a28.25,28.25,0,0,1-1.61,8.87,21,21,0,0,1-3.69,6.46l-1.1-.94a20,20,0,0,0,3.61-6.24,27.1,27.1,0,0,0,1.36-9.33V243.9h-4.48v-1.39h5.75v-6h1.47v6h5.5v1.39h-6.77V250h5.34c0,1.69,0,3.39-.14,5.1s-.21,3.27-.35,4.69-.27,2.55-.4,3.42a10.05,10.05,0,0,1-.76,2.65,2.58,2.58,0,0,1-1.39,1.31,7,7,0,0,1-2.5.36Zm8.07-19.08-1.18-.85a17.09,17.09,0,0,0,2.37-3.18,27.55,27.55,0,0,0,1.91-4,23.82,23.82,0,0,0,1.18-3.93l1.35.32c-.19.82-.43,1.67-.71,2.55s-.62,1.76-1,2.63H205v1.43H194A26.9,26.9,0,0,1,190.73,248.46Zm2.82,19.29a3.83,3.83,0,0,0-.21-.78q-.17-.45-.24-.69h2.65a1.82,1.82,0,0,0,1.26-.35,1.45,1.45,0,0,0,.37-1.12v-6.89h-5.83v-1.43h5.83v-3.62h.89c.44-.38,1-.91,1.59-1.57s1.16-1.25,1.59-1.74h-8.52v-1.38h10.73l.49.49c-.44.51-1,1.12-1.66,1.83s-1.32,1.39-2,2-1.21,1.2-1.67,1.63v2.32h6.36v1.43h-6.36v6.89a3,3,0,0,1-.74,2.2,3.24,3.24,0,0,1-2.36.74Z"/><path d="M217,271.34l-1.34-.69a35.17,35.17,0,0,0,2.44-7.83,57,57,0,0,0,.94-11.25v-9.74h7.75v-6.89h1.47v2.77h8.11V239h-8.11v2.86h10.11v4.81h-1.47v-3.55h-9.38v2.81l5.91-.4.08,1.3-6,.37v1.91a1.2,1.2,0,0,0,.29,1,2.5,2.5,0,0,0,1.34.23h3.47a6.14,6.14,0,0,0,1.65-.17,1.23,1.23,0,0,0,.81-.75,7.39,7.39,0,0,0,.47-1.77l1.35.73a6.17,6.17,0,0,1-.8,2.18,2.06,2.06,0,0,1-1.24.86,9.81,9.81,0,0,1-2.12.18H229a4,4,0,0,1-2.45-.47,2.61,2.61,0,0,1-.49-1.85v-1.92l-5.54.37v3.91a60.13,60.13,0,0,1-.94,11.4A36.42,36.42,0,0,1,217,271.34Zm3.51-25,5.54-.36v-2.9h-5.54Zm1.39,24.55-.41-1.19,4-.75c1.66-.31,3.33-.65,5-1,.19-.46.41-1.1.67-1.92s.52-1.63.8-2.44l1.34.32a25.68,25.68,0,0,1-1.43,3.75l2.84-.61c.88-.19,1.65-.38,2.3-.57v1.31c-.92.24-2,.51-3.36.79s-2.7.57-4.14.86l-4.16.81C224.05,270.52,222.89,270.73,221.92,270.9ZM221.63,255v-1.27h15.9V255Zm1.71,7.86V257h12.11v5.87Zm3.39,5.18q-.37-.81-.9-1.83a17.89,17.89,0,0,0-1.06-1.8l1.26-.57c.3.49.63,1.1,1,1.84a17.43,17.43,0,0,1,.8,1.79Zm-1.92-6.36H234v-3.46h-9.17Zm10.89,9.83-.94-1.31a29.34,29.34,0,0,0,5.93-3.89,32,32,0,0,0,4.75-5,57,57,0,0,1-1.2-5.59q-.51-3.06-.84-6.73l-5.54.41-.13-1.39,5.55-.44q-.21-2.82-.31-6c-.06-2.12-.1-4.37-.1-6.76h1.39c0,2.36,0,4.6.12,6.7s.19,4.1.32,6l9.26-.73.12,1.43-9.29.69a66.57,66.57,0,0,0,1.71,11,37.19,37.19,0,0,0,2.61-4.47,39,39,0,0,0,1.95-4.66l1.35.65a51.78,51.78,0,0,1-2.41,5.36,36.77,36.77,0,0,1-3,4.87,24.61,24.61,0,0,0,2,4.95,16.43,16.43,0,0,0,2.54,3.53,21.47,21.47,0,0,0,1.29-3,27,27,0,0,0,.92-3.18l1.26.53c-.14.63-.33,1.36-.59,2.19s-.56,1.65-.9,2.48a11.43,11.43,0,0,1-1.16,2.18c-.43.63-1,.64-1.63,0a15.68,15.68,0,0,1-2.65-3.5A27.29,27.29,0,0,1,246,263a36.13,36.13,0,0,1-4.61,4.73A31.55,31.55,0,0,1,235.7,271.55Zm15.16-27.11a21.65,21.65,0,0,0-2-2.41,20.78,20.78,0,0,0-2.5-2.32l.93-1a29.42,29.42,0,0,1,2.53,2.3,26.09,26.09,0,0,1,2.08,2.35Z"/><path d="M311.74,273.07a3.2,3.2,0,0,0-.2-.78q-.17-.45-.24-.69h4.19a3.58,3.58,0,0,0,1.78-.41,2.7,2.7,0,0,0,1-1.83,15.23,15.23,0,0,0,.34-2.08c.1-.87.18-1.77.25-2.69s.13-1.73.18-2.41h-9.29l.93-7.46H319v-4.65h-7.66c-.9.55-1.81,1.07-2.73,1.57s-1.87,1-2.82,1.41l-.85-1.26a47.27,47.27,0,0,0,5.5-2.9,41.17,41.17,0,0,0,4.89-3.5,24,24,0,0,0-2.44-2.16c-.87-.68-1.74-1.31-2.61-1.88l.89-1c.87.57,1.77,1.22,2.69,2s1.77,1.45,2.53,2.16a33.54,33.54,0,0,0,3-3,22.74,22.74,0,0,0,2.26-3.1h-8.72V237h10.15l.69.57a26.66,26.66,0,0,1-4.28,5.95,40.07,40.07,0,0,1-5.91,5.14h6.93v7.58H312l-.49,4.52h9.13q0,1.28-.18,2.94c-.1,1.11-.2,2.19-.31,3.22s-.23,1.89-.36,2.57a5,5,0,0,1-1.29,2.87,4.66,4.66,0,0,1-3,.76Zm10.24.12-.74-1.39a31.53,31.53,0,0,0,5-2,32.66,32.66,0,0,0,4.24-2.57,29.2,29.2,0,0,1-2.53-2.79,27.57,27.57,0,0,1-2.2-3.25h-3.06v-1.34H338l.69.61a29.83,29.83,0,0,1-2.69,3.67,26.52,26.52,0,0,1-3.26,3.18,21.37,21.37,0,0,0,4.36,2.59,29,29,0,0,0,5.42,1.77l-.69,1.43a29.08,29.08,0,0,1-5.63-2,23,23,0,0,1-4.56-2.89,32.62,32.62,0,0,1-4.49,2.79A38.38,38.38,0,0,1,322,273.19Zm.4-14.19-1-1.26a5.81,5.81,0,0,0,4.07-6.2v-2.89h8.6v6.24a.92.92,0,0,0,.39.87A3.44,3.44,0,0,0,336,256a9.85,9.85,0,0,0,2.3-.19,1.28,1.28,0,0,0,.92-.87,14.4,14.4,0,0,0,.49-2.16,3.39,3.39,0,0,0,.61.38c.25.12.46.23.65.31a7.23,7.23,0,0,1-.73,2.59,2.19,2.19,0,0,1-1.34,1.06,9.46,9.46,0,0,1-2.29.22h-.89a4.43,4.43,0,0,1-2.39-.45,2,2,0,0,1-.63-1.71V250H327v1.55a8.55,8.55,0,0,1-1,4.22A8.66,8.66,0,0,1,322.38,259Zm20.76-6.15a32.14,32.14,0,0,1-7.36-4,38,38,0,0,1-6.18-5.6,32.91,32.91,0,0,1-4.48-6.41l1.18-.57a31.25,31.25,0,0,0,3.87,5.55,27.58,27.58,0,0,0,2.73-2.37c1-1,1.82-1.8,2.53-2.56l1,.89a27.81,27.81,0,0,1-2.67,2.65c-.94.82-1.86,1.59-2.75,2.33.46.51,1,1,1.49,1.55s1.06,1,1.61,1.46c.57-.46,1.21-1,1.91-1.65s1.41-1.3,2.1-2,1.27-1.27,1.73-1.79l1,.94a29.57,29.57,0,0,1-2.81,2.77c-1.06.92-2,1.77-2.94,2.53a34.48,34.48,0,0,0,4.27,2.85,25.22,25.22,0,0,0,4.58,2ZM331.6,266.38a22.82,22.82,0,0,0,4.73-5.18h-9.09a27,27,0,0,0,2,2.78A19.74,19.74,0,0,0,331.6,266.38Z"/><path d="M282.55,237.89v12.47h12v19.77a1.49,1.49,0,0,1-.36,1.12,1.79,1.79,0,0,1-1.23.35h-3.42c.05.16.13.39.22.69a4.35,4.35,0,0,1,.19.78h3a3.1,3.1,0,0,0,2.37-.8,3,3,0,0,0,.73-2.14V237.89Zm12,5.42h0v1.47h0v4.11H284v-9.53h10.56Z"/><rect x="286.65" y="243.31" width="5.28" height="1.47"/><rect x="267.94" y="243.31" width="5.28" height="1.47"/><path d="M277.33,237.89h-13.5v35.3h1.47V250.36h12Zm-1.47,5.42v5.57H265.3v-9.53h10.56Z"/><path d="M291.11,260.63H284.3v-5.5h5v-1.47H270.23v1.47h5.3v5.5h-7v1.47h6.93a10.09,10.09,0,0,1-7.34,9.3l.9,1.06a13.66,13.66,0,0,0,5.59-3.92A11.34,11.34,0,0,0,277,262.1h5.87v10.44h1.47V262.1h6.81Zm-8.28,0H277v-5.5h5.83Z"/><rect x="351.93" y="270.64" width="34.57" height="1.19"/><path d="M369.19,254.63l.92.93a31.94,31.94,0,0,0,7.26-8.16l.64-1v6.56a1.9,1.9,0,0,0,.4,1.26,1.87,1.87,0,0,0,.89.66,11.31,11.31,0,0,0,2.55.16,6.72,6.72,0,0,0,2.91-.36,2.49,2.49,0,0,0,1-1.16,7.46,7.46,0,0,0,.39-2.82l-1.35-.4a8.08,8.08,0,0,1-.15,2,2,2,0,0,1-.75,1.33,4,4,0,0,1-2,.29,3.6,3.6,0,0,1-2-.34,1.3,1.3,0,0,1-.53-1.11v-5.94h6.85v-1.22h-7.7l.18-.47c.35-.9.83-2.37,1.46-4.49l.08-.25h5.05v-1.25H369.45V240h2.45l-1.43,6.43h6l-.31.52A27.38,27.38,0,0,1,369.19,254.63Zm2.95-9.39,1.17-5.21h5.43l-.09.42a23.18,23.18,0,0,1-1.53,4.58l-.09.21Z"/><path d="M356.65,257.68v9.86H381.9v-9.86Zm23.84,4.2v4.44H358.05V258.9h22.44Z"/><rect x="363.66" y="261.88" width="11.22" height="1.11"/><rect x="357.61" y="243.03" width="5.17" height="1.21"/><path d="M364,250.05l-1.12.74a12,12,0,0,1,1,1.34l.26.41-.47.11c-2.91.7-5.68,1.25-8.23,1.64l-.39.06v-5.84h11.7v-9.66h-13v17.06L365,253.57l1,1.65,1.14-.78A37.73,37.73,0,0,0,364,250.05Zm-9-5.37v-4.57h10.34v7.12H355Z"/></svg>