<svg id="圖層_1" data-name="圖層 1" xmlns="http://www.w3.org/2000/svg" viewBox="0 0 465.09 200.88"><defs><style>.cls-1{fill:#fff;}</style></defs><rect class="cls-1" x="275.68" y="2.65" width="139.96" height="75.21"/><path d="M415.64,78.44h-140l-.58-.58V2.65l.58-.58h140l.58.58V77.86ZM276.26,77.28h138.8v-74H276.26Z"/><polygon class="cls-1" points="417 8.48 286.39 14.67 286.39 89.88 417 83.69 417 8.48"/><path d="M286.42,90.46l-.61-.58V14.67l.55-.58L417,7.9l.6.58V83.69l-.55.58ZM287,15.22V89.27l129.45-6.13v-74Z"/><polygon class="cls-1" points="421.43 13.11 308.51 25.48 308.51 100.69 421.43 88.32 421.43 13.11"/><path d="M308.57,101.27l-.64-.58V25.48l.51-.58L421.36,12.53l.64.58V88.32l-.51.57ZM309.09,26v74L420.84,87.8v-74Z"/><polygon class="cls-1" points="427.49 16.74 332.27 35.3 332.27 110.51 427.49 91.95 427.49 16.74"/><path d="M332.38,111.08l-.69-.57V35.3l.47-.57,95.22-18.56.69.57V92l-.47.57Zm.47-75.3v74l94.06-18.34v-74Z"/><polygon class="cls-1" points="436.57 20.17 359.05 44.92 359.05 120.14 436.57 95.39 436.57 20.17"/><path d="M359.22,120.69l-.75-.55V44.93l.4-.56,77.52-24.75.76.55V95.38l-.4.56Zm.41-75.34v74L436,95V21Z"/><polygon class="cls-1" points="448.1 22.73 388.27 53.66 388.27 128.88 448.1 97.94 448.1 22.73"/><path d="M388.54,129.39l-.85-.51V53.67l.32-.52,59.82-30.94.85.52V97.94l-.31.51ZM388.85,54v73.9l58.67-30.34V23.68Z"/><polygon class="cls-1" points="457.77 24.07 415.64 61.2 415.64 136.41 457.77 99.28 457.77 24.07"/><path d="M416,136.84l-1-.43V61.19l.2-.43,42.13-37.13,1,.44V99.28l-.2.43Zm.2-75.38v73.66l41-36.1V25.35Z"/><polygon class="cls-1" points="440.07 144.07 464.51 100.76 464.51 25.55 440.07 68.86 440.07 144.07"/><path d="M440.58,144.36l-1.09-.28V68.86l.08-.28L464,25.26l1.09.29v75.21l-.08.29ZM440.65,69v72.85l23.28-41.26V27.76Z"/><path d="M132.55,147.84h3.35a8.92,8.92,0,0,1,6,1.92,8,8,0,0,1,2.8,6.3,7.81,7.81,0,0,1-2.87,6.3c-1.51,1.28-3.08,1.9-6,1.9h-3.32Zm1.82,14.7H136a7,7,0,0,0,4.7-1.48,6.28,6.28,0,0,0,2.21-5c0-3.93-2.75-6.49-6.91-6.49h-1.6Z"/><path d="M148.55,148.93a1.26,1.26,0,1,1-1.25,1.25A1.26,1.26,0,0,1,148.55,148.93Zm.89,5.12v10.21h-1.77V154.05Z"/><path d="M157.34,168.34a2.88,2.88,0,0,0,2.71-1.42,4.82,4.82,0,0,0,.56-2.61v-1.48a4.31,4.31,0,0,1-3.49,1.72,4.94,4.94,0,0,1-3.5-1.37,5.54,5.54,0,0,1-1.47-4,5.35,5.35,0,0,1,1.47-4,5,5,0,0,1,3.5-1.38,4.23,4.23,0,0,1,3.49,1.7v-1.45h1.77v10a6.44,6.44,0,0,1-1,4,5,5,0,0,1-4.09,1.9Zm-2.34-12a4.42,4.42,0,0,0,.12,5.81,3.09,3.09,0,0,0,2.19.84,3,3,0,0,0,2.24-.86,4.16,4.16,0,0,0,1.16-3,4.06,4.06,0,0,0-1.08-2.88,3.32,3.32,0,0,0-2.32-.91A3.17,3.17,0,0,0,155,156.33Z"/><path d="M166.62,148.93a1.26,1.26,0,1,1-1.25,1.25A1.26,1.26,0,0,1,166.62,148.93Zm.89,5.12v10.21h-1.77V154.05Z"/><path d="M172.68,155.67v8.59H170.9v-8.59h-1.08v-1.62h1.08v-3.7h1.78v3.7h1.77v1.62Z"/><path d="M184,154.05h1.77v10.21H184v-1.43a4.31,4.31,0,0,1-3.49,1.72c-2.59,0-5-1.82-5-5.41s2.37-5.34,5-5.34a4.2,4.2,0,0,1,3.49,1.7Zm-6.64,5.09c0,2.19,1.23,3.84,3.34,3.84s3.4-1.8,3.4-3.82a3.46,3.46,0,0,0-3.4-3.79C178.91,155.37,177.31,156.65,177.31,159.14Z"/><path d="M190.85,146.32v17.94h-1.78V146.32Z"/><path d="M206,149.3a6.77,6.77,0,0,0-.05,13.53,5.72,5.72,0,0,0,5-2.76,5.21,5.21,0,0,0,.67-2.33h-4.88V156h6.84v.4A9.06,9.06,0,0,1,212,161.6a7.38,7.38,0,0,1-6.11,3,8.49,8.49,0,1,1,.05-17"/><path d="M224.33,154.05h1.77v10.21h-1.77v-1.43a4.31,4.31,0,0,1-3.49,1.72c-2.59,0-5-1.82-5-5.41s2.37-5.34,5-5.34a4.22,4.22,0,0,1,3.49,1.7Zm-6.64,5.09c0,2.19,1.23,3.84,3.34,3.84s3.4-1.8,3.4-3.82a3.46,3.46,0,0,0-3.4-3.79C219.28,155.37,217.69,156.65,217.69,159.14Z"/><path d="M229.45,154.05h1.78v1.08a3,3,0,0,1,2.53-1.33,3,3,0,0,1,2.78,1.65,3.42,3.42,0,0,1,3.08-1.65c3,0,3.32,2.53,3.32,4v6.47h-1.77v-6.2c0-1.16-.15-2.69-1.82-2.69-2,0-2.27,2-2.27,3.2v5.69h-1.77V158.2c0-.71,0-2.83-1.84-2.83-2,0-2.24,2.1-2.24,3.33v5.56h-1.78Z"/><path d="M255.38,161.65a6.14,6.14,0,0,1-1.26,1.65,4.93,4.93,0,0,1-3.4,1.25c-2.46,0-5-1.55-5-5.34,0-3.05,1.87-5.41,4.95-5.41a4.56,4.56,0,0,1,3.86,1.87,6.84,6.84,0,0,1,1,3.84H247.5a3.27,3.27,0,0,0,3.25,3.47,3.11,3.11,0,0,0,2.09-.74,4,4,0,0,0,1.06-1.4ZM253.63,158a3.06,3.06,0,0,0-3-2.66,3.11,3.11,0,0,0-3,2.66Z"/><path d="M262,145.78h3.62a9.64,9.64,0,0,1,6.54,2.08,8.64,8.64,0,0,1,3,6.81,8.43,8.43,0,0,1-3.12,6.81c-1.62,1.39-3.32,2.05-6.49,2.05H262Zm2,15.89h1.73a7.57,7.57,0,0,0,5.08-1.6,6.78,6.78,0,0,0,2.4-5.4c0-4.26-3-7-7.48-7H264Z"/><path d="M288.15,160.71a6.74,6.74,0,0,1-1.36,1.79,5.37,5.37,0,0,1-3.67,1.35c-2.66,0-5.46-1.67-5.46-5.77,0-3.3,2-5.86,5.35-5.86a4.94,4.94,0,0,1,4.18,2,7.43,7.43,0,0,1,1,4.15h-8.6a3.54,3.54,0,0,0,3.52,3.75,3.38,3.38,0,0,0,2.26-.8,4.35,4.35,0,0,0,1.14-1.52Zm-1.89-3.91a3.31,3.31,0,0,0-3.25-2.87,3.36,3.36,0,0,0-3.25,2.87Z"/><path d="M291.69,152.49l3.3,7.45,3.3-7.45h2.13L295,164.25l-5.43-11.76Z"/><path d="M312.24,160.71a6.74,6.74,0,0,1-1.36,1.79,5.37,5.37,0,0,1-3.67,1.35c-2.66,0-5.45-1.67-5.45-5.77,0-3.3,2-5.86,5.34-5.86a4.93,4.93,0,0,1,4.18,2,7.43,7.43,0,0,1,1,4.15h-8.6a3.54,3.54,0,0,0,3.52,3.75,3.38,3.38,0,0,0,2.26-.8,4.23,4.23,0,0,0,1.14-1.52Zm-1.89-3.91a3.3,3.3,0,0,0-3.25-2.87,3.35,3.35,0,0,0-3.24,2.87Z"/><path d="M317.17,144.13v19.4h-1.92v-19.4Z"/><path d="M320.1,158.05a5.86,5.86,0,1,1,5.85,5.8A5.67,5.67,0,0,1,320.1,158.05Zm2,0a3.89,3.89,0,1,0,3.88-4.12A3.82,3.82,0,0,0,322.07,158.05Z"/><path d="M336.66,169.65h-1.92V152.49h1.92V154a4.76,4.76,0,0,1,3.78-1.81c3.45,0,5.37,2.88,5.37,5.86s-1.94,5.77-5.3,5.77a4.68,4.68,0,0,1-3.85-1.86Zm7.18-11.57c0-2.72-1.84-4.15-3.62-4.15a3.83,3.83,0,0,0-3.67,4.12c0,2.26,1.44,4.1,3.7,4.1S343.84,160.29,343.84,158.08Z"/><path d="M348.74,152.49h1.92v1.17a3.22,3.22,0,0,1,2.74-1.44,3.31,3.31,0,0,1,3,1.79,3.68,3.68,0,0,1,3.32-1.79c3.28,0,3.6,2.74,3.6,4.31v7h-1.92v-6.7c0-1.25-.16-2.9-2-2.9-2.21,0-2.45,2.13-2.45,3.46v6.14h-1.91V157c0-.78,0-3.06-2-3.06-2.18,0-2.42,2.26-2.42,3.59v6h-1.92Z"/><path d="M376.77,160.71a6.91,6.91,0,0,1-1.35,1.79,5.41,5.41,0,0,1-3.68,1.35c-2.66,0-5.45-1.67-5.45-5.77,0-3.3,2-5.86,5.35-5.86a4.92,4.92,0,0,1,4.17,2,7.35,7.35,0,0,1,1,4.15h-8.59a3.53,3.53,0,0,0,3.51,3.75,3.38,3.38,0,0,0,2.26-.8,4.26,4.26,0,0,0,1.15-1.52Zm-1.89-3.91a3.3,3.3,0,0,0-3.24-2.87,3.35,3.35,0,0,0-3.25,2.87Z"/><path d="M379.78,152.49h1.92v1.28a3.88,3.88,0,0,1,3.17-1.55,3.75,3.75,0,0,1,3.16,1.52,4.9,4.9,0,0,1,.64,2.95v6.84h-1.91v-6.78a3.29,3.29,0,0,0-.51-2,2.19,2.19,0,0,0-1.81-.79,2.4,2.4,0,0,0-1.94.85,4.62,4.62,0,0,0-.8,3v5.77h-1.92Z"/><path d="M394.27,154.25v9.28h-1.92v-9.28h-1.17v-1.76h1.17v-4h1.92v4h1.91v1.76Z"/><path d="M404,156.14l2,4.55,2.1-5.06,2.08,5.06,2-4.55h1.29l-3.32,7.17-2.07-5-2.06,5-3.3-7.17Z"/><path d="M415.29,152.79a.82.82,0,1,1-.82.82A.82.82,0,0,1,415.29,152.79Zm.58,3.35v6.7h-1.16v-6.7Z"/><path d="M419.26,157.21v5.63H418.1v-5.63h-.71v-1.07h.71v-2.42h1.16v2.42h1.16v1.07Z"/><path d="M421.52,151.08h1.16v5.84a2.35,2.35,0,0,1,1.92-.94,2.29,2.29,0,0,1,1.92.92,3,3,0,0,1,.39,1.79v4.15h-1.16v-4.11a2,2,0,0,0-.31-1.23,1.32,1.32,0,0,0-1.1-.48,1.45,1.45,0,0,0-1.17.51,2.77,2.77,0,0,0-.49,1.81v3.5h-1.16Z"/><path d="M132.61,180.23a5.26,5.26,0,0,1,.78-2.49,4.82,4.82,0,0,1,8.71,2.59,4,4,0,0,1-2.18,3.76,4,4,0,0,1,2.44,4.09,5.16,5.16,0,1,1-10.31.4h1.88a3.69,3.69,0,0,0,.61,1.7,3.12,3.12,0,0,0,2.61,1.27,3.36,3.36,0,0,0,3.33-3.42,3,3,0,0,0-1.68-2.85,4.35,4.35,0,0,0-1.93-.35v-1.68a3.75,3.75,0,0,0,1.93-.36,2.9,2.9,0,0,0-1.47-5.4,2.55,2.55,0,0,0-2.18,1,3.39,3.39,0,0,0-.66,1.78Z"/><path d="M145,176h3.45a9.23,9.23,0,0,1,6.25,2,8.24,8.24,0,0,1,2.89,6.5,8.06,8.06,0,0,1-3,6.5c-1.55,1.32-3.17,1.95-6.19,1.95H145Zm1.88,15.16h1.65a7.21,7.21,0,0,0,4.85-1.53,6.46,6.46,0,0,0,2.28-5.15c0-4.06-2.84-6.7-7.13-6.7h-1.65Z"/><path d="M172.35,179.39a3.86,3.86,0,0,0-1-1.27,3,3,0,0,0-1.9-.58,2.59,2.59,0,0,0-2.84,2.61,1.79,1.79,0,0,0,.63,1.48,5.65,5.65,0,0,0,1.78,1.06l1.62.71a8.41,8.41,0,0,1,2.62,1.6,4.09,4.09,0,0,1,1.22,3.07,5.44,5.44,0,0,1-9,3.84,6.13,6.13,0,0,1-1.58-3l1.83-.51a4,4,0,0,0,1,2.16,3.47,3.47,0,0,0,5.84-2.41,2.53,2.53,0,0,0-.84-2,7.34,7.34,0,0,0-2-1.17l-1.52-.71a7.33,7.33,0,0,1-2.26-1.4,3.49,3.49,0,0,1-1.17-2.76c0-2.62,2-4.37,4.75-4.37a4.56,4.56,0,0,1,2.71.76,5.07,5.07,0,0,1,1.65,1.88Z"/><path d="M185.74,185.38a4.25,4.25,0,0,0-3.3-1.57,3.93,3.93,0,0,0,0,7.84,4.48,4.48,0,0,0,3.4-1.65v2.19a5.67,5.67,0,0,1-3.35,1.09,5.55,5.55,0,1,1,0-11.1,5.56,5.56,0,0,1,3.28,1Z"/><path d="M196.68,182.44h1.83V193h-1.83V191.5a4.42,4.42,0,0,1-3.6,1.78c-2.67,0-5.13-1.88-5.13-5.59s2.44-5.51,5.13-5.51a4.33,4.33,0,0,1,3.6,1.76Zm-6.85,5.25c0,2.26,1.27,4,3.45,4s3.51-1.85,3.51-3.93a3.57,3.57,0,0,0-3.51-3.91C191.48,183.81,189.83,185.13,189.83,187.69Z"/><path d="M202,182.44h1.83v1.22a3.72,3.72,0,0,1,3-1.48,3.57,3.57,0,0,1,3,1.45,4.73,4.73,0,0,1,.61,2.82V193h-1.83V186.5a3.1,3.1,0,0,0-.48-1.93,2.06,2.06,0,0,0-1.73-.76,2.31,2.31,0,0,0-1.85.81,4.45,4.45,0,0,0-.76,2.85V193H202Z"/><path d="M213.91,182.44h1.83v1.22a3.72,3.72,0,0,1,3-1.48,3.58,3.58,0,0,1,3,1.45,4.73,4.73,0,0,1,.61,2.82V193h-1.83V186.5a3.1,3.1,0,0,0-.48-1.93,2.08,2.08,0,0,0-1.73-.76,2.31,2.31,0,0,0-1.85.81,4.45,4.45,0,0,0-.76,2.85V193h-1.83Z"/><path d="M226.76,177.16a1.3,1.3,0,1,1-1.3,1.29A1.3,1.3,0,0,1,226.76,177.16Zm.91,5.28V193h-1.82V182.44Z"/><path d="M231.13,182.44H233v1.22a3.72,3.72,0,0,1,3-1.48,3.58,3.58,0,0,1,3,1.45,4.73,4.73,0,0,1,.61,2.82V193h-1.83V186.5a3.1,3.1,0,0,0-.48-1.93,2.08,2.08,0,0,0-1.73-.76,2.31,2.31,0,0,0-1.85.81,4.45,4.45,0,0,0-.76,2.85V193h-1.83Z"/><path d="M247.76,197.19a3,3,0,0,0,2.8-1.47,5,5,0,0,0,.58-2.7V191.5a4.44,4.44,0,0,1-3.61,1.78,5,5,0,0,1-3.6-1.42,5.71,5.71,0,0,1-1.53-4.17,5.52,5.52,0,0,1,1.53-4.08,5.16,5.16,0,0,1,3.6-1.43,4.38,4.38,0,0,1,3.61,1.76v-1.5H253v10.28a6.61,6.61,0,0,1-1,4.14,5.11,5.11,0,0,1-4.21,1.95Zm-2.41-12.39a4,4,0,0,0-1.07,2.89,4.05,4.05,0,0,0,1.2,3.1,3.18,3.18,0,0,0,2.26.86,3.14,3.14,0,0,0,2.31-.88,4.3,4.3,0,0,0,1.19-3.05,4.15,4.15,0,0,0-1.12-3,3.33,3.33,0,0,0-2.38-.94A3.26,3.26,0,0,0,245.35,184.8Z"/><path d="M268,182.44h1.83V193H268V191.5a4.43,4.43,0,0,1-3.6,1.78c-2.67,0-5.13-1.88-5.13-5.59s2.44-5.51,5.13-5.51a4.33,4.33,0,0,1,3.6,1.76Zm-6.85,5.25c0,2.26,1.27,4,3.45,4s3.5-1.85,3.5-3.93a3.57,3.57,0,0,0-3.5-3.91C262.75,183.81,261.1,185.13,261.1,187.69Z"/><path d="M273.24,182.44h1.83v1.22a3.72,3.72,0,0,1,3-1.48,3.58,3.58,0,0,1,3,1.45,4.73,4.73,0,0,1,.61,2.82V193h-1.83V186.5a3.1,3.1,0,0,0-.48-1.93,2.08,2.08,0,0,0-1.73-.76,2.31,2.31,0,0,0-1.85.81,4.45,4.45,0,0,0-.76,2.85V193h-1.83Z"/><path d="M293.25,174.47h1.83V193h-1.83V191.5a4.44,4.44,0,0,1-3.61,1.78c-2.66,0-5.13-1.88-5.13-5.59s2.44-5.51,5.13-5.51a4.36,4.36,0,0,1,3.61,1.76Zm-6.86,13.22c0,2.26,1.27,4,3.46,4s3.5-1.85,3.5-3.93a3.57,3.57,0,0,0-3.5-3.91C288,183.81,286.39,185.13,286.39,187.69Z"/><path d="M301.33,193l2.82-17.87,6.5,14.29,6.62-14.32,2.64,17.9H318l-1.6-11.78-5.76,12.5-5.69-12.5L303.26,193Z"/><path d="M322.71,187.74a5.59,5.59,0,1,1,5.59,5.54A5.42,5.42,0,0,1,322.71,187.74Zm1.88,0a3.72,3.72,0,1,0,3.71-3.93A3.65,3.65,0,0,0,324.59,187.74Z"/><path d="M344.76,174.47h1.82V193h-1.82V191.5a4.45,4.45,0,0,1-3.61,1.78c-2.66,0-5.13-1.88-5.13-5.59s2.44-5.51,5.13-5.51a4.37,4.37,0,0,1,3.61,1.76Zm-6.86,13.22c0,2.26,1.27,4,3.45,4s3.51-1.85,3.51-3.93a3.57,3.57,0,0,0-3.51-3.91C339.55,183.81,337.9,185.13,337.9,187.69Z"/><path d="M359.39,190.28a6.36,6.36,0,0,1-1.3,1.7,5.08,5.08,0,0,1-3.5,1.3c-2.54,0-5.21-1.6-5.21-5.51,0-3.15,1.93-5.59,5.11-5.59a4.71,4.71,0,0,1,4,1.93,7.09,7.09,0,0,1,1,4h-8.2a3.37,3.37,0,0,0,3.35,3.58,3.18,3.18,0,0,0,2.16-.76,4.17,4.17,0,0,0,1.09-1.45Zm-1.81-3.73a3.15,3.15,0,0,0-3.09-2.74,3.21,3.21,0,0,0-3.1,2.74Z"/><path d="M364.09,174.47V193h-1.83v-18.5Z"/><path d="M368.45,177.16a1.3,1.3,0,1,1-1.29,1.29A1.3,1.3,0,0,1,368.45,177.16Zm.92,5.28V193h-1.83V182.44Z"/><path d="M372.83,182.44h1.82v1.22a3.72,3.72,0,0,1,3-1.48,3.59,3.59,0,0,1,3,1.45,4.73,4.73,0,0,1,.6,2.82V193h-1.82V186.5a3,3,0,0,0-.49-1.93,2,2,0,0,0-1.72-.76,2.33,2.33,0,0,0-1.86.81,4.45,4.45,0,0,0-.76,2.85V193h-1.82Z"/><path d="M389.46,197.19a3,3,0,0,0,2.79-1.47,5,5,0,0,0,.58-2.7V191.5a4.42,4.42,0,0,1-3.6,1.78,5.08,5.08,0,0,1-3.61-1.42,5.71,5.71,0,0,1-1.52-4.17,5.52,5.52,0,0,1,1.52-4.08,5.19,5.19,0,0,1,3.61-1.43,4.34,4.34,0,0,1,3.6,1.76v-1.5h1.83v10.28a6.66,6.66,0,0,1-1,4.14,5.13,5.13,0,0,1-4.22,1.95Zm-2.41-12.39a4,4,0,0,0-1.07,2.89,4.08,4.08,0,0,0,1.19,3.1,3.22,3.22,0,0,0,2.26.86,3.11,3.11,0,0,0,2.31-.88,4.3,4.3,0,0,0,1.2-3.05,4.15,4.15,0,0,0-1.12-3,3.35,3.35,0,0,0-2.39-.94A3.24,3.24,0,0,0,387.05,184.8Z"/><path d="M404,176a6.1,6.1,0,0,1,4.26,1.19,4.71,4.71,0,0,1,1.55,3.63c0,2.39-1.5,4.75-5.36,4.75h-1.65V193h-1.87V176Zm-1.2,7.8h1.55c2.24,0,3.58-1.12,3.58-3.08,0-2.69-2.51-2.94-3.73-2.94h-1.4Z"/><path d="M412,182.44h1.83v1.14a2.92,2.92,0,0,1,2.39-1.4,3.87,3.87,0,0,1,1.62.44l-.86,1.65a1.9,1.9,0,0,0-1.07-.36,1.77,1.77,0,0,0-1.47.66,4.52,4.52,0,0,0-.61,2.84V193H412Z"/><path d="M418.29,187.74a5.59,5.59,0,1,1,5.58,5.54A5.41,5.41,0,0,1,418.29,187.74Zm1.88,0a3.71,3.71,0,1,0,3.7-3.93A3.65,3.65,0,0,0,420.17,187.74Z"/><path d="M433.17,177.16a1.3,1.3,0,1,1-1.29,1.29A1.3,1.3,0,0,1,433.17,177.16Zm.92,5.28v16.37h-1.83V182.44Z"/><path d="M446.88,190.28a6.12,6.12,0,0,1-1.29,1.7,5.1,5.1,0,0,1-3.5,1.3c-2.54,0-5.21-1.6-5.21-5.51,0-3.15,1.93-5.59,5.1-5.59a4.73,4.73,0,0,1,4,1.93,7.09,7.09,0,0,1,1,4h-8.2a3.37,3.37,0,0,0,3.35,3.58,3.2,3.2,0,0,0,2.16-.76,4.17,4.17,0,0,0,1.09-1.45Zm-1.8-3.73a3.15,3.15,0,0,0-3.1-2.74,3.2,3.2,0,0,0-3.09,2.74Z"/><path d="M458,185.38a4.25,4.25,0,0,0-3.3-1.57,3.93,3.93,0,0,0,0,7.84,4.48,4.48,0,0,0,3.4-1.65v2.19a5.67,5.67,0,0,1-3.35,1.09,5.55,5.55,0,1,1,0-11.1,5.56,5.56,0,0,1,3.28,1Z"/><path d="M462.76,184.11V193h-1.83v-8.86h-1.11v-1.67h1.11v-3.81h1.83v3.81h1.83v1.67Z"/></svg>