<svg xmlns="http://www.w3.org/2000/svg" viewBox="0 0 465.09 200.88"><defs><style>.cls-1{fill:#fff;}.cls-2{fill:none;}</style></defs><g id="圖層_2" data-name="圖層 2"><g id="content"><rect class="cls-1" x="275.68" y="0.58" width="139.96" height="75.21"/><path d="M415.64,76.37h-140l-.58-.58V.58l.58-.58h140l.58.58V75.79ZM276.26,75.21h138.8v-74H276.26Z"/><polygon class="cls-1" points="417 6.41 286.39 12.6 286.39 87.81 417 81.62 417 6.41"/><path d="M286.42,88.39l-.61-.58V12.6l.55-.58L417,5.83l.6.58V81.62l-.55.58ZM287,13.15V87.2l129.45-6.13V7Z"/><polygon class="cls-1" points="421.43 11.04 308.51 23.41 308.51 98.63 421.43 86.25 421.43 11.04"/><path d="M308.57,99.2l-.64-.57V23.41l.51-.57L421.36,10.46,422,11V86.25l-.51.58Zm.52-75.27V98L420.84,85.73v-74Z"/><polygon class="cls-1" points="427.49 14.67 332.27 33.23 332.27 108.44 427.49 89.88 427.49 14.67"/><path d="M332.38,109l-.69-.57V33.23l.47-.57L427.38,14.1l.69.57V89.88l-.47.57Zm.47-75.3v74L426.91,89.4v-74Z"/><polygon class="cls-1" points="436.57 18.11 359.05 42.86 359.05 118.07 436.57 93.32 436.57 18.11"/><path d="M359.22,118.62l-.75-.55V42.86l.4-.55,77.52-24.76.76.56V93.32l-.4.55Zm.41-75.34v74L436,92.89v-74Z"/><polygon class="cls-1" points="448.1 20.66 388.27 51.6 388.27 126.81 448.1 95.87 448.1 20.66"/><path d="M388.54,127.32l-.85-.51V51.6l.32-.52,59.82-30.94.85.52V95.87l-.31.52ZM388.85,52v73.91l58.67-30.34V21.61Z"/><polygon class="cls-1" points="457.77 22 415.64 59.13 415.64 134.34 457.77 97.21 457.77 22"/><path d="M416,134.77l-1-.43V59.13l.2-.44,42.13-37.12,1,.43V97.21l-.2.44Zm.2-75.38v73.66l41-36.1V23.29Z"/><polygon class="cls-1" points="440.07 142.01 464.51 98.69 464.51 23.48 440.07 66.8 440.07 142.01"/><path d="M440.58,142.29l-1.09-.28V66.8l.08-.29L464,23.2l1.09.28V98.69L465,99ZM440.65,67V139.8l23.28-41.26V25.69Z"/><path d="M3.25,130.57v-5.63h7.3v-2.22H3.65v-4.36H0v-1.11H3.65V113h6.9v-3.1h1.3V113h6.78v4.24h3.49v1.11H18.63v4.36H11.85v2.22h7.34v5.63ZM.83,145.83l-.39-1.26a24.48,24.48,0,0,0,6-1,14.78,14.78,0,0,0,4.44-2.14c-1-.37-2-.73-3.09-1.09s-2.25-.7-3.49-1c.37-.47.75-1,1.15-1.62s.79-1.24,1.19-1.91H.48v-1.19H7.37A34.19,34.19,0,0,0,9.28,131l1.27.43c-.22.43-.47.91-.78,1.47s-.61,1.12-.93,1.7H22.2v1.19H16.61a18.66,18.66,0,0,1-3.37,5.28c.95.37,1.88.76,2.78,1.17s1.78.85,2.65,1.32l-.83,1.15c-.9-.52-1.81-1-2.73-1.44s-1.88-.87-2.86-1.29a14.23,14.23,0,0,1-4.68,2.6A28,28,0,0,1,.83,145.83Zm3.73-16.37h6V126h-6ZM5,117.25h5.59v-3H5Zm0,4.32h5.59v-3.21H5Zm7,19a14.35,14.35,0,0,0,3.29-4.8H8.13c-.35.59-.68,1.13-1,1.63l-.84,1.31c1,.29,2,.59,2.92.89S11.06,140.26,11.93,140.6Zm-.08-23.35h5.48v-3H11.85Zm0,4.32h5.48v-3.21H11.85Zm0,7.89h6.07V126H11.85Zm8.09,16.18-1-1.07a25.58,25.58,0,0,0,4.92-3.93A24.8,24.8,0,0,0,27.48,136a31,31,0,0,1-2.34-6,37.66,37.66,0,0,1-1.19-6.6q-.56,1.46-1.23,2.85c-.45.93-.94,1.85-1.47,2.78L20,128.27a30.36,30.36,0,0,0,2.82-5.87A59.25,59.25,0,0,0,24.72,116q.74-3.15,1.09-5.69l1.31.24c-.24,1.51-.51,3-.81,4.46s-.67,2.9-1.09,4.3H36.51v1.39H33.1a44.44,44.44,0,0,1-1.3,8.3A29.21,29.21,0,0,1,29,136a24.59,24.59,0,0,0,3.37,4.58,24,24,0,0,0,4.36,3.67l-1,1.27a29.67,29.67,0,0,1-4.24-3.85,28.05,28.05,0,0,1-3.25-4.36A29.66,29.66,0,0,1,19.94,145.64Zm8.33-11.1a27.83,27.83,0,0,0,2.42-6.65,43.49,43.49,0,0,0,1-7.15H24.94a37.15,37.15,0,0,0,1,7.25A30.48,30.48,0,0,0,28.27,134.54Z"/><path d="M47.88,145.83V121.09q-1.47,2.19-3,4.15a31.16,31.16,0,0,1-3,3.35,4.37,4.37,0,0,0-.49-.5,3.64,3.64,0,0,0-.54-.41,21.76,21.76,0,0,0,2.6-2.78c.91-1.14,1.82-2.37,2.74-3.71s1.77-2.69,2.57-4.08,1.51-2.71,2.11-4a21.3,21.3,0,0,0,1.28-3.31l1.43.51a39.23,39.23,0,0,1-1.82,4.14q-1.11,2.2-2.42,4.38v27Zm4.2-2.49v-1.43H64.81c.77-1.85,1.53-3.9,2.3-6.15s1.46-4.53,2.08-6.86,1.1-4.5,1.45-6.54l1.55.36c-.3,1.48-.66,3.06-1.1,4.74s-.91,3.37-1.44,5.09-1.07,3.38-1.63,5-1.1,3.06-1.62,4.38H77.81v1.43Zm1.19-23.28v-1.42H64v-8.29h1.42v8.29H76.31v1.42Zm7.42,18.32q-.87-4.12-2-7.73A52.63,52.63,0,0,0,56.25,124l1.38-.48q1.35,3.21,2.5,6.92A75.28,75.28,0,0,1,62.07,138Z"/><path d="M108.77,145.83a58.48,58.48,0,0,1-6.88-.35,19.85,19.85,0,0,1-5.31-1.33,14.51,14.51,0,0,1-4.22-2.72c-.42.32-1,.74-1.78,1.25s-1.53,1-2.28,1.59-1.36,1-1.81,1.37l-.91-1.39,1.82-1.07c.8-.48,1.61-1,2.44-1.51s1.49-1,2-1.35V128.55H85.94v-1.47h7.33V140.6a15.58,15.58,0,0,0,4,2.42,18.53,18.53,0,0,0,4.83,1.13,62.63,62.63,0,0,0,6.64.3q4.24,0,7.22-.14c2-.09,3.81-.19,5.47-.3L121,145.6Q118,145.84,108.77,145.83ZM93,120.22a23.74,23.74,0,0,0-1.66-2.08c-.69-.78-1.4-1.53-2.14-2.26a17.24,17.24,0,0,0-2.06-1.76l1-.88a24.7,24.7,0,0,1,2.12,1.85c.75.73,1.47,1.45,2.16,2.18s1.25,1.38,1.7,2Zm5.87,21.45a2.29,2.29,0,0,0-.2-.69c-.1-.25-.18-.46-.23-.62h1.86a5.25,5.25,0,0,0,1.8-.23,1.54,1.54,0,0,0,.84-.92,10.07,10.07,0,0,0,.45-1.9c.13-.71.26-1.71.38-3s.22-2.67.32-4.17.13-2.88.13-4.18h-3.8a27.23,27.23,0,0,1-1.57,8.62,20,20,0,0,1-3.59,6.29L94.14,140a19.25,19.25,0,0,0,3.51-6.07A26.23,26.23,0,0,0,99,124.82v-6.14H94.62v-1.35h5.59V111.5h1.43v5.83H107v1.35h-6.58v5.94h5.19c0,1.64,0,3.29-.14,5s-.2,3.18-.33,4.56-.27,2.48-.4,3.33a9.79,9.79,0,0,1-.73,2.58,2.55,2.55,0,0,1-1.35,1.26,6.72,6.72,0,0,1-2.44.36Zm7.85-18.55-1.15-.84a15.72,15.72,0,0,0,2.3-3.09,26,26,0,0,0,1.87-3.86,23.48,23.48,0,0,0,1.14-3.83l1.31.32c-.18.79-.41,1.62-.69,2.48s-.6,1.71-1,2.55h10.07v1.39H109.84A26.33,26.33,0,0,1,106.67,123.12Zm2.74,18.75a4.24,4.24,0,0,0-.2-.75c-.11-.29-.19-.52-.24-.68h2.58a1.81,1.81,0,0,0,1.23-.33,1.45,1.45,0,0,0,.36-1.09v-6.71h-5.67v-1.38h5.67V127.4H114a21.62,21.62,0,0,0,1.54-1.53c.61-.65,1.13-1.21,1.55-1.68h-8.29v-1.35h10.43l.48.48c-.43.5-1,1.09-1.61,1.78s-1.29,1.35-1.92,2-1.18,1.16-1.63,1.59v2.26h6.19v1.38h-6.19V139a2.94,2.94,0,0,1-.71,2.14,3.18,3.18,0,0,1-2.3.71Z"/><path d="M132.24,145.37l-1.31-.68a33.87,33.87,0,0,0,2.38-7.61,55.65,55.65,0,0,0,.91-10.94v-9.48h7.53V110h1.43v2.7h7.89v1.23h-7.89v2.77H153v4.68h-1.42v-3.45h-9.12v2.74l5.75-.4.08,1.27-5.83.36v1.86c0,.48.09.79.28.93a2.4,2.4,0,0,0,1.31.22h3.36a5.89,5.89,0,0,0,1.61-.16,1.21,1.21,0,0,0,.79-.73,7.05,7.05,0,0,0,.46-1.73l1.31.72a6,6,0,0,1-.78,2.12,2,2,0,0,1-1.2.83,9.36,9.36,0,0,1-2.07.18H143.9a3.83,3.83,0,0,1-2.38-.46,2.49,2.49,0,0,1-.48-1.8V122l-5.39.35v3.81a58.64,58.64,0,0,1-.91,11.08A36,36,0,0,1,132.24,145.37Zm3.41-24.31,5.39-.35v-2.82h-5.39ZM137,144.93l-.4-1.15,3.89-.73c1.61-.3,3.23-.63,4.87-1,.19-.45.41-1.07.66-1.87s.51-1.58.77-2.37l1.31.31a25.93,25.93,0,0,1-1.39,3.65l2.76-.59c.85-.19,1.6-.37,2.24-.56v1.27c-.9.24-2,.49-3.27.77s-2.63.56-4,.84l-4,.79C139.07,144.57,138,144.77,137,144.93Zm-.28-15.42v-1.23h15.46v1.23Zm1.67,7.65v-5.71h11.77v5.71Zm3.29,5c-.24-.53-.53-1.13-.88-1.79a15.1,15.1,0,0,0-1-1.74l1.23-.56c.29.48.62,1.07,1,1.79a15.68,15.68,0,0,1,.78,1.74ZM139.81,136h8.92v-3.37h-8.92Zm10.59,9.56-.91-1.27a28.84,28.84,0,0,0,5.76-3.79,29.86,29.86,0,0,0,4.62-4.86c-.45-1.63-.83-3.44-1.17-5.43s-.6-4.16-.81-6.54l-5.39.4-.12-1.35,5.39-.44q-.2-2.73-.29-5.82c-.07-2.07-.1-4.26-.1-6.59h1.34q0,3.45.12,6.53t.32,5.8l9-.71.12,1.39-9,.67a65.6,65.6,0,0,0,1.66,10.67,35.86,35.86,0,0,0,2.54-4.34,37.67,37.67,0,0,0,1.9-4.54l1.31.63a46.17,46.17,0,0,1-2.34,5.21,36.52,36.52,0,0,1-2.93,4.74,25,25,0,0,0,2,4.82,16.38,16.38,0,0,0,2.48,3.43,20.86,20.86,0,0,0,1.25-2.9,25.4,25.4,0,0,0,.89-3.09l1.23.52c-.13.61-.32,1.31-.57,2.12s-.55,1.61-.88,2.42a10.85,10.85,0,0,1-1.13,2.12c-.42.61-1,.62-1.58,0a15.4,15.4,0,0,1-2.58-3.41,26.87,26.87,0,0,1-2.06-4.76,34.77,34.77,0,0,1-4.48,4.6A31.13,31.13,0,0,1,150.4,145.57Zm14.75-26.37a25.63,25.63,0,0,0-1.93-2.34,21.29,21.29,0,0,0-2.43-2.26l.91-.95a29.36,29.36,0,0,1,2.46,2.24,26.38,26.38,0,0,1,2,2.28Z"/><path d="M224.35,147a3.43,3.43,0,0,0-.19-.75c-.11-.29-.19-.51-.24-.67H228a3.41,3.41,0,0,0,1.73-.4,2.61,2.61,0,0,0,1-1.78,14.61,14.61,0,0,0,.33-2c.1-.85.18-1.72.24-2.62l.18-2.34h-9l.91-7.26h8.09v-4.52H224c-.87.53-1.76,1-2.66,1.53s-1.81,1-2.73,1.37l-.84-1.23a44.85,44.85,0,0,0,5.36-2.82,39.38,39.38,0,0,0,4.75-3.41,25.32,25.32,0,0,0-2.38-2.1c-.84-.66-1.69-1.27-2.53-1.82l.87-1c.84.55,1.72,1.19,2.62,1.9s1.71,1.42,2.45,2.1a31.69,31.69,0,0,0,2.88-2.93,23.66,23.66,0,0,0,2.2-3H225.5v-1.35h9.88l.67.55a25.62,25.62,0,0,1-4.16,5.79,39.6,39.6,0,0,1-5.75,5h6.74v7.37h-8.25l-.47,4.4H233c0,.82-.09,1.77-.18,2.86s-.19,2.12-.3,3.13-.22,1.84-.36,2.5a4.91,4.91,0,0,1-1.24,2.79,4.6,4.6,0,0,1-3,.73Zm10,.12-.72-1.34a30.19,30.19,0,0,0,4.84-1.95,30.81,30.81,0,0,0,4.12-2.49,30.33,30.33,0,0,1-2.46-2.72,28,28,0,0,1-2.14-3.15h-3V134.2h14.87l.67.59a28.25,28.25,0,0,1-2.62,3.57,24.41,24.41,0,0,1-3.17,3.09A20.73,20.73,0,0,0,249,144a28.08,28.08,0,0,0,5.27,1.73l-.68,1.38a28.57,28.57,0,0,1-5.47-1.94,22.19,22.19,0,0,1-4.44-2.81A31.34,31.34,0,0,1,239.3,145,35.62,35.62,0,0,1,234.31,147.16Zm.39-13.79-.95-1.23a5.68,5.68,0,0,0,4-6V123.3h8.36v6.06a.89.89,0,0,0,.38.85,3.25,3.25,0,0,0,1.48.22,9.51,9.51,0,0,0,2.24-.18,1.24,1.24,0,0,0,.9-.85,15.09,15.09,0,0,0,.47-2.1,3.28,3.28,0,0,0,.6.38,6.51,6.51,0,0,0,.63.29,7.32,7.32,0,0,1-.71,2.52,2.11,2.11,0,0,1-1.31,1,8.89,8.89,0,0,1-2.22.22h-.87a4.21,4.21,0,0,1-2.32-.44,1.91,1.91,0,0,1-.62-1.66v-5h-5.59v1.51a8.31,8.31,0,0,1-1,4.1A8.52,8.52,0,0,1,234.7,133.37Zm20.18-6a30.92,30.92,0,0,1-7.15-3.91,36.4,36.4,0,0,1-6-5.45,32.22,32.22,0,0,1-4.36-6.22l1.15-.56a30.94,30.94,0,0,0,3.76,5.4,27.49,27.49,0,0,0,2.66-2.3c.95-.93,1.77-1.76,2.46-2.5l1,.87a27.51,27.51,0,0,1-2.6,2.58c-.91.79-1.8,1.54-2.67,2.26q.67.75,1.44,1.5c.52.51,1,1,1.57,1.43.56-.45,1.18-1,1.86-1.6s1.37-1.27,2.05-1.93,1.23-1.24,1.68-1.74l1,.91a29.12,29.12,0,0,1-2.73,2.7l-2.86,2.45a32.65,32.65,0,0,0,4.15,2.78,23.81,23.81,0,0,0,4.45,2Zm-11.22,13.16a22.21,22.21,0,0,0,4.6-5h-8.84a26.88,26.88,0,0,0,2,2.69A19.41,19.41,0,0,0,243.66,140.54Z"/><path d="M12.57,173.09v-3.33H.4v-1.35H12.57v-3.53H14v3.53h7.85v-3.53h1.42v3.53H35.48v1.35H23.27v3.33H21.85v-3.33H14v3.33Zm7,27.79-.8-1.15a23.93,23.93,0,0,0,4.5-3.19,25.21,25.21,0,0,0,3.59-4,35.61,35.61,0,0,1-1.6-6.79q-.54-3.75-.74-8.07h-14v5.75a52.49,52.49,0,0,1-.4,6.7,23.25,23.25,0,0,1-1.41,5.59,22.74,22.74,0,0,1-2.83,5.07L4.68,200a18.68,18.68,0,0,0,3-5.63,27.46,27.46,0,0,0,1.21-6.11H5.08a19.78,19.78,0,0,1-.88,5.28,18.45,18.45,0,0,1-2.65,5.15L.4,197.87a17.42,17.42,0,0,0,2.48-4.68,18.61,18.61,0,0,0,.89-5H1.19v-1.42H9c.05-.56.08-1.11.08-1.67V182.6H2.93v-7.93H4.24v6.51H9.08v-4.84H24.46c0-.64,0-1.28,0-1.94v-2h1.39v2c0,.66,0,1.3,0,1.94h9.36v1.35H25.89c.1,2.64.32,5.09.63,7.35a40.19,40.19,0,0,0,1.31,6.09,29.77,29.77,0,0,0,2.42-4.58A40.9,40.9,0,0,0,32,181.37l1.39.48a47.13,47.13,0,0,1-2.18,5.85,32.15,32.15,0,0,1-2.85,5.05,14.33,14.33,0,0,0,4.36,6.51c.26-.48.55-1.08.85-1.79s.6-1.45.87-2.2.5-1.41.66-2l1.23.83c-.19.58-.44,1.26-.76,2s-.64,1.54-1,2.28-.63,1.35-.89,1.83a1,1,0,0,1-.79.55,1.34,1.34,0,0,1-1-.32,16,16,0,0,1-4.56-6.46A30.7,30.7,0,0,1,24,197.73,26.94,26.94,0,0,1,19.59,200.88Zm-6.47-4.8V180.62h10v1.19H19v3.41h3.85v5.91H19v3.76h4.28v1.19Zm1.23-10.86h3.41v-3.41H14.35Zm0,4.72h7.26v-3.53H14.35Zm0,4.95h3.41v-3.76H14.35ZM31.2,175.55a19.43,19.43,0,0,0-3.45-2.7l.8-1a16.68,16.68,0,0,1,2,1.25,14.35,14.35,0,0,1,1.6,1.37Z"/><path d="M43.74,198.68V184.53H56.47v14.15Zm1.42-1.43H55V186H45.16Zm5.48-17.09V167.08H67.73v13.08Zm1.42-1.42H66.3V168.51H52.06Zm9.88,19.94V184.53h13v14.15Zm1.42-1.43H73.47V186H63.36Z"/><path d="M89.66,197.23a6.93,6.93,0,0,1-4.76-1.7,8.4,8.4,0,0,1-2.62-4.28l1.31-.48a7.39,7.39,0,0,0,2.14,3.65,5.56,5.56,0,0,0,3.93,1.46,6.69,6.69,0,0,0,4.91-1.68,7.41,7.41,0,0,0,.78-8.33,6.36,6.36,0,0,0-2.52-2.3,7.83,7.83,0,0,0-3.61-.81h-.79v-1.35h.79a6.46,6.46,0,0,0,4.64-1.62,5.7,5.7,0,0,0,1.71-4.32,5.38,5.38,0,0,0-.84-3.15,5.07,5.07,0,0,0-2.18-1.81,7,7,0,0,0-2.89-.59A5,5,0,0,0,86,171.36a8.72,8.72,0,0,0-2.12,3.51l-1.31-.51a8.82,8.82,0,0,1,3-4.36,6.81,6.81,0,0,1,4.15-1.47,7.55,7.55,0,0,1,5.21,1.82,6.51,6.51,0,0,1,2,5.12,7.19,7.19,0,0,1-1.17,4.06,6.6,6.6,0,0,1-3.27,2.56,7.47,7.47,0,0,1,5.2,7.29,9.4,9.4,0,0,1-.82,3.93,6.37,6.37,0,0,1-2.57,2.85A8.78,8.78,0,0,1,89.66,197.23Z"/><path d="M103.75,196.76V169h7.57a14.49,14.49,0,0,1,6.2,1.21,11.56,11.56,0,0,1,4.17,3.22A12.94,12.94,0,0,1,124,177.9a17.42,17.42,0,0,1,0,10,13.07,13.07,0,0,1-2.34,4.46,11.65,11.65,0,0,1-4.17,3.21,14.49,14.49,0,0,1-6.2,1.21Zm1.34-1.39h6.23A13.34,13.34,0,0,0,117,194.3a10.08,10.08,0,0,0,3.73-2.88,11.63,11.63,0,0,0,2.06-4,16.53,16.53,0,0,0,0-9,11.63,11.63,0,0,0-2.06-4,10.34,10.34,0,0,0-3.73-2.9,13.17,13.17,0,0,0-5.63-1.09h-6.23Z"/><path d="M133.65,200.78a4.52,4.52,0,0,0-.18-.73l-.22-.66h3.33a1.73,1.73,0,0,0,1.19-.33,1.45,1.45,0,0,0,.36-1.09V186.15c-1.19.45-2.3.85-3.33,1.21l-2.14.73-.52-1.5c.61-.16,1.46-.42,2.56-.78s2.24-.74,3.43-1.17V174.46H132.5V173h5.63v-8.09h1.42V173h4.6v1.43h-4.6v9.67l2.68-1c.83-.32,1.49-.58,2-.79v1.42l-1.9.82c-.85.35-1.76.72-2.74,1.09V198c0,1.87-1,2.81-3,2.81Zm22,0V187.74h-6v9.75h-1.42V186.31h7.41v-4.44h-9.28v4.84H145v-6.27h23v6.11h-1.43v-4.68h-9.47v4.44h7.49v8.25a3,3,0,0,1-.69,2.14,3.11,3.11,0,0,1-2.28.71h-2.26a3.52,3.52,0,0,0-.2-.75c-.11-.29-.19-.52-.24-.68h2.7a1.73,1.73,0,0,0,1.21-.33,1.53,1.53,0,0,0,.33-1.09v-6.82h-6.06v13.08Zm-8.56-23.15v-1.43h15.54v-3.41H147.56V171.4h15.07V168H147.09v-1.42h17v11.1Z"/><path d="M219.85,200.84l-1-1.07a20.18,20.18,0,0,0,3.71-3,19.39,19.39,0,0,0,2.87-3.85,24.24,24.24,0,0,1-2.43-3.37,29.35,29.35,0,0,1-2.09-4.2l1.31-.56a25.73,25.73,0,0,0,3.93,6.74,21.79,21.79,0,0,0,1.62-5,29.92,29.92,0,0,0,.56-5.95h-6.7v-1.39a21.69,21.69,0,0,0,1.35-2c.52-.87,1.07-1.82,1.64-2.85s1.1-2,1.61-3,.9-1.74,1.19-2.38h-7.38v-1.42h9l.56.63c-.32.72-.75,1.59-1.29,2.64s-1.12,2.11-1.75,3.21-1.2,2.11-1.74,3-1,1.63-1.29,2.1h6.27a39.24,39.24,0,0,1-.66,7.7,23.08,23.08,0,0,1-1.92,5.78,16.46,16.46,0,0,0,6.68,4,30.74,30.74,0,0,0,9.3,1.25c2.82,0,5.17,0,7-.08s3.34-.13,4.42-.24l-.43,1.51c-.85.05-2.13.09-3.85.12s-4.11,0-7.17,0a34.6,34.6,0,0,1-9.6-1.19,17,17,0,0,1-7.1-4.09,19.13,19.13,0,0,1-2.89,3.69A34.12,34.12,0,0,1,219.85,200.84Zm20.94-4.32v-4.28H230.64v-1.43h10.15v-4h-8.72v-1.43h8.72v-4h-8.13v-1.43h8.13v-4.05h-11.1V174.4h11.1v-4.05h-8v-1.42h8v-4h1.43v4h8.28v5.47h3.77v1.42H250.5v5.48h-8.28v4h9.31v1.43h-9.31v4h10.86v1.43H242.22v4.28Zm1.43-22.12h6.85v-4.05h-6.85Zm0,5.47h6.85v-4.05h-6.85Z"/><path d="M305.86,174.3v-1.43h15.38v1.43Zm1.91-5.28V167.6h11.65V169Zm0,10.63v-1.43h11.65v1.43Zm0,5.31v-1.43h11.65V185Zm.27,14.35V188.77h11.5v10.54Zm1.43-1.42h8.64V190.2h-8.64Zm21.29,2.46V179.49h-8.68v-1.43h8.68V165.42h1.43v12.64h8.28v1.43h-8.28v20.86Z"/><rect x="348.01" y="198.94" width="35.41" height="1.31"/><path d="M353.76,187.4v9.08H378V187.4Zm11.42,3.81h-5v1.19h5v2.85H355.11v-6.62h10.07Zm11.5-1v5.08H366.53V192.4h5.11v-1.19h-5.11v-2.58h10.15Z"/><path d="M366.53,184v-2.66h14.11v-1.22H366.53v-2.66h10.94v-3.89h6.23v-1.22h-6.23v-3.89H366.53v-2.93h-1.35v2.93H352.49v1.23h12.69v2.66H347.93v1.22h17.25v2.66H352.34v1.23h12.84v2.66H350.59v1.22h14.59V184H347.86v1.23h35.92V184Zm0-14.31h9.63v2.66h-9.63Zm0,3.88h9.63v2.66h-9.63Z"/><path d="M276.4,185.12a22.28,22.28,0,0,1-1.89-2c-.72-.85-1.43-1.73-2.12-2.64s-1.23-1.67-1.62-2.28v-3.57h5v-1.3h-5v-8.41h-1.43v8.41h-6.26v1.3h6.26v.76c-.32,1-.74,2-1.27,3.19s-1.13,2.38-1.8,3.61-1.38,2.41-2.1,3.55a30.23,30.23,0,0,1-2.16,3l1.23.79a47.72,47.72,0,0,0,3.29-5.05,45.22,45.22,0,0,0,2.81-5.85v22.2h1.43V180.2c.42.69.9,1.41,1.45,2.15s1.08,1.44,1.64,2.12,1.06,1.23,1.51,1.68Z"/><polygon points="281.75 173.5 283.18 173.5 283.18 170.61 289.2 170.61 289.2 173.5 290.63 173.5 290.63 170.61 297.97 170.61 297.97 169.18 290.63 169.18 290.63 165.1 289.2 165.1 289.2 169.18 283.18 169.18 283.18 165.1 281.75 165.1 281.75 169.18 275.05 169.18 275.05 170.61 281.75 170.61 281.75 173.5"/><path d="M298.48,189.44H286.9a18.79,18.79,0,0,0,.36-3.8h7.81V174.69H277.75v10.95h8q0,1-.12,2a13.06,13.06,0,0,1-.27,1.82H274.5v1.39h10.58a10.34,10.34,0,0,1-3.71,5.51,18.61,18.61,0,0,1-7.15,3l.59,1.35a24.52,24.52,0,0,0,7.32-3.27,11.21,11.21,0,0,0,4.22-5.81,15.93,15.93,0,0,0,4.36,5.57,17.8,17.8,0,0,0,6.94,3.43l.67-1.35A19.8,19.8,0,0,1,292,196.4a14.31,14.31,0,0,1-4.7-5.57h11.18Zm-15.69-5.07h-3.62V176h14.47v8.41H282.79Z"/><rect x="282.79" y="179.41" width="7.24" height="1.27"/><path d="M196,112.83V125h11.7v19.23a1.43,1.43,0,0,1-.36,1.09,1.68,1.68,0,0,1-1.19.34h-3.33c.05.16.12.38.22.67a5,5,0,0,1,.18.75h2.89a3,3,0,0,0,2.3-.77,2.92,2.92,0,0,0,.71-2.08V112.83Zm11.7,5.27h0v1.43h0v4H197.39v-9.26h10.27Z"/><rect x="199.95" y="118.1" width="5.13" height="1.43"/><rect x="181.76" y="118.1" width="5.13" height="1.43"/><path d="M190.89,112.83H177.76v34.33h1.43V125h11.7Zm-1.43,5.27v5.42H179.19v-9.26h10.27Z"/><path d="M204.29,135h-6.62V129.6h4.87v-1.43H184v1.43h5.15V135h-6.82v1.43h6.74a9.82,9.82,0,0,1-7.13,9l.87,1a13.19,13.19,0,0,0,5.43-3.81,11,11,0,0,0,2.3-6.26h5.71v10.15h1.43V136.38h6.62Zm-8,0h-5.67V129.6h5.67Z"/><path d="M177.15,200.8a3.88,3.88,0,0,0-.2-.73q-.16-.42-.24-.66H180a1.73,1.73,0,0,0,1.19-.33,1.45,1.45,0,0,0,.36-1.09V186.05c-1.27.48-2.45.91-3.53,1.29l-2.18.77-.52-1.5c.61-.16,1.49-.43,2.64-.82s2.34-.79,3.59-1.24V175h-5.87v-1.43h5.87V165H183v8.56h5.12V175H183v9c1.14-.42,2.19-.82,3.14-1.21s1.64-.68,2.06-.89v1.43c-.35.18-1,.48-2,.89s-2,.84-3.22,1.29V198c0,1.87-1,2.81-3,2.81Z"/><polygon points="194.63 177.97 194.63 172.61 187.65 172.61 187.65 171.19 194.63 171.19 194.63 165.48 196.06 165.48 196.06 171.19 202.84 171.19 202.84 165.48 204.26 165.48 204.26 171.19 211.48 171.19 211.48 172.61 204.26 172.61 204.26 177.97 202.84 177.97 202.84 172.61 196.06 172.61 196.06 177.97 194.63 177.97"/><line class="cls-2" x1="191.34" y1="189.22" x2="191.34" y2="191.9"/><path d="M189.91,180.07v19.74h19V180.07Zm8.8,9.15h-3.32v1.43h3.32v7.73h-7.37V181.49h7.37Zm8.85,0v9.16h-7.42v-7.73h3.36v-1.43h-3.36v-7.73h7.42Z"/><rect x="263.43" y="144.68" width="33.62" height="1.15"/><path d="M280.22,129.11l.89.91a31.31,31.31,0,0,0,7.07-7.93l.61-1v6.38a1.91,1.91,0,0,0,1.26,1.87,10.71,10.71,0,0,0,2.48.16,6.53,6.53,0,0,0,2.83-.36,2.36,2.36,0,0,0,1-1.12,7.67,7.67,0,0,0,.37-2.75l-1.31-.39a7.69,7.69,0,0,1-.15,1.92,2,2,0,0,1-.73,1.3,3.88,3.88,0,0,1-2,.28,3.63,3.63,0,0,1-1.91-.33,1.27,1.27,0,0,1-.52-1.09v-5.77h6.66V120h-7.49l.18-.46c.34-.87.81-2.3,1.42-4.36l.07-.24h4.91v-1.21h-15.4v1.21h2.38l-1.39,6.25h5.85l-.31.51A26.68,26.68,0,0,1,280.22,129.11Zm2.87-9.13,1.14-5.06h5.28l-.09.4a22.2,22.2,0,0,1-1.49,4.46l-.08.2Z"/><path d="M268,132.08v9.59h24.56v-9.59Zm23.19,4.08v4.32H269.39v-7.21h21.82Z"/><rect x="274.85" y="136.16" width="10.91" height="1.08"/><rect x="268.96" y="117.83" width="5.03" height="1.17"/><path d="M275.15,124.66l-1.08.72a11.48,11.48,0,0,1,1,1.31l.26.39-.46.11c-2.83.68-5.53,1.22-8,1.59l-.38.06v-5.67h11.38v-9.41H265.21v16.6l10.93-2.28,1,1.61,1.12-.76A36.13,36.13,0,0,0,275.15,124.66Zm-8.7-5.22V115H276.5v6.91H266.45Z"/></g></g></svg>